<?xml version="1.0" encoding="utf-8"?>
<!-- Generator: Adobe Illustrator 25.0.0, SVG Export Plug-In . SVG Version: 6.00 Build 0)  -->
<svg version="1.1" id="Layer_1" xmlns="http://www.w3.org/2000/svg" xmlns:xlink="http://www.w3.org/1999/xlink" x="0px" y="0px"
	 viewBox="0 0 1920 1080" enable-background="new 0 0 1920 1080" xml:space="preserve">
<g id="Layer_2">
</g>
<rect fill="#4C8184" width="1920" height="1080"/>
<g>
	<linearGradient id="SVGID_1_" gradientUnits="userSpaceOnUse" x1="1394.4663" y1="1083.063" x2="778.4312" y2="317.986">
		<stop  offset="0" style="stop-color:#DAE3FE"/>
		<stop  offset="1" style="stop-color:#E9EFFD"/>
	</linearGradient>
	<path fill="url(#SVGID_1_)" d="M1228.54,778.87c-14.34,14.76-27.92,24.28-38.64,31.8c-126.05,88.41-275.21,62.64-306.91,56.35
		c-46.81-9.29-137.29-27.26-202.71-102.46c-98.97-113.77-83.56-293.01-6.79-411.33c14.04-21.64,88.22-141.76,238.98-161.03
		c91.24-11.66,197.6,11.86,274.62,74.93C1348.76,399.53,1337.25,667.01,1228.54,778.87z"/>
	<g>
		<path fill="#91B3FA" d="M992.55,531.34c-12.22-53.52-40.92-97.75-77.02-125.35c-32.28-24.67-53.97-60.72-59.73-100.76
			c-0.61-4.21-1.39-8.44-2.36-12.69c-14.7-64.37-66.37-107.48-115.42-96.28c-49.05,11.2-76.9,72.46-62.21,136.83
			c3,13.16,7.56,25.43,13.32,36.53c18.38,35.42,23.26,76.47,12.12,114.86c-9.96,34.31-11.41,73.75-2.25,113.88
			c13.66,59.85,47.93,108.08,90.11,134.43c15.96,9.97,30.02,22.76,41.3,37.73c18.73,24.89,46.99,38.21,74.53,31.92
			c29.71-6.78,50.27-34.48,54.47-68.43c2.38-19.21,8.54-37.73,17.47-54.98C997.96,638.32,1004.91,585.45,992.55,531.34z"/>
		<path opacity="0.57" fill="#FFFFFF" d="M770.83,260.81c16.12,41.08,30.9,82.65,45.23,124.37c3.59,10.43,7.01,20.91,10.46,31.39
			l5.18,15.71l5.05,15.76c3.32,10.52,6.79,20.99,9.99,31.54l9.61,31.66c6.13,21.19,12.45,42.33,18.19,63.63
			c2.88,10.65,5.98,21.24,8.64,31.94l8.14,32.08c10.42,42.88,19.76,86.04,26.89,129.59l-1.89,0.33l-6.58-32.38l-1.63-8.1l-1.83-8.05
			l-3.69-16.1l-3.66-16.1c-1.21-5.37-2.62-10.7-3.92-16.04c-2.67-10.68-5.26-21.38-8-32.05c-11.25-42.59-23.07-85.02-35.78-127.21
			c-6.51-21.04-12.85-42.14-19.51-63.14l-4.95-15.76l-5.09-15.72c-3.38-10.48-6.77-20.97-10.26-31.42
			c-6.8-20.96-13.76-41.87-20.88-62.72c-7.02-20.89-14.23-41.72-21.51-62.52L770.83,260.81z"/>
	</g>
	<g>
		<path fill="#BDD0FB" d="M811.31,585.58c-16.78-9.54-27.15-27.28-27.28-46.59c-0.14-20.61-5.27-43.23-15.78-65.23
			c-27.58-57.72-81.81-89.29-121.11-70.51c-39.31,18.78-48.81,80.8-21.23,138.53c5.35,11.21,11.71,21.42,18.77,30.48
			c10.7,13.73,14.17,31.76,9.01,48.39c-4.9,15.79-4.1,33.41,3.6,49.51c10.5,21.98,31.27,35.75,53.82,38.3
			c13.36,1.51,25.64,7.89,34.44,18.05c24.97,28.82,60.1,41.11,88.06,27.75c35.82-17.12,46.29-69.87,23.38-117.82
			C846.05,613.57,829.51,595.93,811.31,585.58z"/>
		
			<linearGradient id="SVGID_2_" gradientUnits="userSpaceOnUse" x1="191.2817" y1="677.2526" x2="370.298" y2="677.2526" gradientTransform="matrix(-1 0 0 1 1057.4528 0)">
			<stop  offset="0" style="stop-color:#CE1567"/>
			<stop  offset="1" style="stop-color:#7A1DBC"/>
		</linearGradient>
		<path opacity="0.52" fill="url(#SVGID_2_)" d="M891.5,808.91c-0.91,0.41-2.01,0.28-2.81-0.41
			c-39.56-34.47-84.88-103.18-115.93-154.75c-33.59-55.78-58.2-104.09-58.44-104.57c-0.66-1.3-0.14-2.88,1.15-3.54
			c1.29-0.66,2.88-0.14,3.54,1.15c0.97,1.92,98.32,192.54,173.14,257.73c1.1,0.95,1.21,2.62,0.26,3.71
			C892.15,808.54,891.84,808.76,891.5,808.91z"/>
	</g>
	<g>
		<linearGradient id="SVGID_3_" gradientUnits="userSpaceOnUse" x1="1058.7574" y1="454.1818" x2="1332.0856" y2="292.2093">
			<stop  offset="0" style="stop-color:#09005D"/>
			<stop  offset="1" style="stop-color:#1A0F91"/>
		</linearGradient>
		<path fill="url(#SVGID_3_)" d="M1222.95,419.57c0,59.88-48.45,111.1-109.51,114.46c-62.55,3.45-115.38-44.4-115.38-106.95
			s52.84-113.87,115.38-114.63C1174.5,311.72,1222.95,359.68,1222.95,419.57z"/>
		<linearGradient id="SVGID_4_" gradientUnits="userSpaceOnUse" x1="1113.8079" y1="880.6439" x2="1120.1346" y2="411.1768">
			<stop  offset="0" style="stop-color:#09005D"/>
			<stop  offset="1" style="stop-color:#1A0F91"/>
		</linearGradient>
		<path fill="url(#SVGID_4_)" d="M1231.92,419c0,59.88-48.45,111.1-109.51,114.46c-62.55,3.45-114.38-44.4-114.38-106.95
			s51.83-113.87,114.38-114.63C1183.47,311.15,1231.92,359.11,1231.92,419z"/>
		<linearGradient id="SVGID_5_" gradientUnits="userSpaceOnUse" x1="986.4482" y1="119.526" x2="1141.7302" y2="516.0239">
			<stop  offset="0" style="stop-color:#FF928E"/>
			<stop  offset="1" style="stop-color:#FE7062"/>
		</linearGradient>
		<path fill="url(#SVGID_5_)" d="M1111.73,237.73c-105.17,0-193.43,85.75-193.43,191.52c0,105.77,88.25,185.59,193.43,178.53
			c101.31-6.8,180.74-92.26,180.74-191.09C1292.47,317.85,1213.04,237.73,1111.73,237.73z M1111.73,260.39
			c30.91-0.13,55.72,24.47,55.72,54.94c0,30.47-24.81,55.78-55.72,56.53c-31.27,0.76-56.87-23.83-56.87-54.93
			C1054.86,285.83,1080.47,260.52,1111.73,260.39z M1125,422.31c0,7.26-5.93,13.35-13.27,13.62c-7.36,0.26-13.33-5.43-13.33-12.72
			c0-7.29,5.98-13.39,13.33-13.62C1119.07,409.36,1125,415.05,1125,422.31z M1001.89,483.29c-32.53,1.42-59.18-23.13-59.18-54.86
			c0-31.73,26.65-58.07,59.18-58.83c32.16-0.75,57.96,23.83,57.96,54.9C1059.85,455.57,1034.05,481.89,1001.89,483.29z
			 M1111.73,585.12c-31.27,1.97-56.87-21.63-56.87-52.73c0-31.1,25.61-57.41,56.87-58.75c30.91-1.32,55.72,22.32,55.72,52.79
			C1167.46,556.91,1142.65,583.17,1111.73,585.12z M1217.37,473.88c-30.08,1.31-54.7-22.33-54.7-52.83c0-30.5,24.63-55.8,54.7-56.5
			c29.74-0.7,53.62,22.97,53.62,52.87C1270.98,447.3,1247.11,472.58,1217.37,473.88z"/>
		<linearGradient id="SVGID_6_" gradientUnits="userSpaceOnUse" x1="1074.9894" y1="306.8331" x2="1250.5972" y2="827.7359">
			<stop  offset="0" style="stop-color:#FF928E"/>
			<stop  offset="1" style="stop-color:#FE7062"/>
		</linearGradient>
		<path fill="url(#SVGID_6_)" d="M1120.57,237.73c-105.17,0-193.43,85.75-193.43,191.52c0,105.77,88.25,185.59,193.43,178.53
			c101.31-6.8,180.74-92.26,180.74-191.09C1301.31,317.85,1221.88,237.73,1120.57,237.73z M1120.57,260.39
			c30.91-0.13,55.72,24.47,55.72,54.94c0,30.47-24.81,55.78-55.72,56.53c-31.27,0.76-56.87-23.83-56.87-54.93
			C1063.7,285.83,1089.31,260.52,1120.57,260.39z M1133.84,422.31c0,7.26-5.93,13.35-13.27,13.62c-7.36,0.26-13.33-5.43-13.33-12.72
			c0-7.29,5.98-13.39,13.33-13.62C1127.91,409.36,1133.84,415.05,1133.84,422.31z M1010.73,483.29
			c-32.53,1.42-59.18-23.13-59.18-54.86c0-31.73,26.65-58.07,59.18-58.83c32.16-0.75,57.96,23.83,57.96,54.9
			C1068.69,455.57,1042.89,481.89,1010.73,483.29z M1120.57,585.12c-31.27,1.97-56.87-21.63-56.87-52.73
			c0-31.1,25.61-57.41,56.87-58.75c30.91-1.32,55.72,22.32,55.72,52.79C1176.29,556.91,1151.49,583.17,1120.57,585.12z
			 M1226.2,473.88c-30.08,1.31-54.7-22.33-54.7-52.83c0-30.5,24.63-55.8,54.7-56.5c29.74-0.7,53.62,22.97,53.62,52.87
			C1279.82,447.3,1255.95,472.58,1226.2,473.88z"/>
	</g>
	<g>
		<linearGradient id="SVGID_7_" gradientUnits="userSpaceOnUse" x1="971.4098" y1="441.3667" x2="962.5516" y2="837.4404">
			<stop  offset="0" style="stop-color:#09005D"/>
			<stop  offset="1" style="stop-color:#1A0F91"/>
		</linearGradient>
		<path fill="url(#SVGID_7_)" d="M1263.8,792.05c0,5.77-4.73,10.49-10.5,10.49H685.44c-5.78,0-10.5-4.72-10.5-10.49l-4.73-326.34
			c0-5.77,6.8-17.03,19.26-16.19l554.98-14.36c7.25-0.19,14.25,2.6,19.39,7.72c5.13,5.12,7.94,12.11,7.77,19.35L1263.8,792.05z"/>
		<path fill="#7D97F4" d="M1253.44,781.98c0,5.46-4.47,9.93-9.93,9.93H699.13c-5.46,0-9.93-4.47-9.93-9.93l-4.46-296.25
			c0.53-17.83,16.16-24.24,25.63-23.86l531.92-14.27c5.09-0.14,10.02,1.82,13.62,5.42c3.6,3.6,5.57,8.52,5.45,13.61L1253.44,781.98z
			"/>
		<path fill="#91B3FA" d="M706.38,773.13c0.58-25.85,0.36-254.81-1.06-274.58c-1.42-19.77,28.12-23.48,73.47-25.71
			c45.35-2.23,428.01-11.04,437.86-11.87c22.15-1.87,26.73,32.64,24.51,107.56c-1.66,56.28-4.42,149-5.69,191.64
			c-0.38,12.7-10.33,22.77-22.52,22.8c-92.08,0.26-445.01,1.32-468.5,2.05C717.42,785.87,706.15,783.39,706.38,773.13z"/>
		<linearGradient id="SVGID_8_" gradientUnits="userSpaceOnUse" x1="975.254" y1="812.5247" x2="984.112" y2="622.7126">
			<stop  offset="0" style="stop-color:#09005D"/>
			<stop  offset="1" style="stop-color:#1A0F91"/>
		</linearGradient>
		<path fill="url(#SVGID_8_)" d="M1295.53,829.63H654.72c-7.89,0-14.34-6.45-14.34-14.34l0,0c0-7.89,6.45-14.34,14.34-14.34h640.82
			c7.89,0,14.34,6.45,14.34,14.34l0,0C1309.87,823.18,1303.42,829.63,1295.53,829.63z"/>
		<linearGradient id="SVGID_9_" gradientUnits="userSpaceOnUse" x1="877.917" y1="678.1301" x2="888.0408" y2="487.4658">
			<stop  offset="0" style="stop-color:#4F52FF"/>
			<stop  offset="1" style="stop-color:#4042E2"/>
		</linearGradient>
		<path fill="url(#SVGID_9_)" d="M1036.77,670.56H729.28c-5.37,0-9.72-4.15-9.72-9.27V502.74c0-9.06,7.59-16.46,17.09-16.66
			l300.12-6.41c5.37,0,9.72,4.15,9.72,9.27V661.3C1046.49,666.42,1042.14,670.56,1036.77,670.56z"/>
		<path fill="#BDD0FB" d="M868.78,549.48v56.62c0,1.34,1.5,2.12,2.6,1.36l42.12-29.41c0.96-0.67,0.94-2.11-0.05-2.74l-42.12-27.21
			C870.23,547.38,868.78,548.17,868.78,549.48z"/>
		<g>
			<path fill="#BDD0FB" d="M1218.3,574.98h-153.52c-2.68,0-4.85-2.07-4.85-4.63v-79.17c0-4.52,3.79-8.22,8.53-8.32l149.84-3.2
				c2.68,0,4.85,2.07,4.85,4.63v86.06C1223.15,572.91,1220.98,574.98,1218.3,574.98z"/>
			<path opacity="0.69" fill="#FFFFFF" d="M1134.43,514.52v28.27c0,0.67,0.75,1.06,1.3,0.68l21.03-14.68
				c0.48-0.34,0.47-1.05-0.02-1.37l-21.03-13.59C1135.15,513.47,1134.43,513.87,1134.43,514.52z"/>
		</g>
		<g>
			<linearGradient id="SVGID_10_" gradientUnits="userSpaceOnUse" x1="766.6771" y1="688.6677" x2="729.1947" y2="791.8727">
				<stop  offset="0" style="stop-color:#FF928E"/>
				<stop  offset="1" style="stop-color:#FE7062"/>
			</linearGradient>
			<path fill="url(#SVGID_10_)" d="M755.91,765.08c0,9.03-7.32,16.35-16.35,16.35c-9.03,0-17.93-6.84-17.93-15.87
				c0-9.03,8.9-16.82,17.93-16.82C748.59,748.73,755.91,756.05,755.91,765.08z"/>
			<path opacity="0.69" fill="#FFFFFF" d="M734.52,754.95v20.61c0,0.49,0.55,0.77,0.95,0.49l15.33-10.71c0.35-0.24,0.34-0.77-0.02-1
				l-15.33-9.91C735.05,754.18,734.52,754.47,734.52,754.95z"/>
		</g>
		<path opacity="0.69" fill="#FFFFFF" d="M1181.78,774.47H771.29c-1.98,0-3.58-1.6-3.58-3.58v-8.17c0-1.98,1.6-3.58,3.58-3.58
			h410.48c1.98,0,3.58,1.6,3.58,3.58v8.17C1185.36,772.87,1183.75,774.47,1181.78,774.47z"/>
		<linearGradient id="SVGID_11_" gradientUnits="userSpaceOnUse" x1="929.3863" y1="646.1061" x2="826.8885" y2="796.6895">
			<stop  offset="0" style="stop-color:#FF928E"/>
			<stop  offset="1" style="stop-color:#FE7062"/>
		</linearGradient>
		<path fill="url(#SVGID_11_)" d="M925.1,759.13h-153.9c-1.74,0-3.14,1.23-3.14,2.74v9.86c0,1.51,1.41,2.74,3.14,2.74h153.87
			C925.01,769.36,924.98,764.25,925.1,759.13z"/>
		<path opacity="0.69" fill="#FFFFFF" d="M1207.14,740.44H717.07c-6.51,0-11.79-5.28-11.79-11.79v-39.6
			c0-6.51,5.28-11.79,11.79-11.79h490.07c6.51,0,11.79,5.28,11.79,11.79v39.6C1218.94,735.16,1213.65,740.44,1207.14,740.44z"/>
		<path fill="#7D97F4" d="M798.15,735.65h-82.73c-1.44,0-2.62-1.12-2.62-2.49V690.5c0-2.44,2.04-4.43,4.6-4.48l80.74-1.73
			c1.44,0,2.62,1.12,2.62,2.49v46.38C800.77,734.53,799.6,735.65,798.15,735.65z"/>
		<path fill="#7D97F4" d="M894.33,735.65H811.6c-1.44,0-2.62-1.12-2.62-2.49V690.5c0-2.44,2.04-4.43,4.6-4.48l80.74-1.73
			c1.44,0,2.62,1.12,2.62,2.49v46.38C896.95,734.53,895.77,735.65,894.33,735.65z"/>
		<path fill="#7D97F4" d="M991.33,735.65h-82.73c-1.44,0-2.62-1.12-2.62-2.49V690.5c0-2.44,2.04-4.43,4.6-4.48l80.74-1.73
			c1.44,0,2.62,1.12,2.62,2.49v46.38C993.95,734.53,992.78,735.65,991.33,735.65z"/>
		<path fill="#7D97F4" d="M1087.51,735.65h-82.73c-1.44,0-2.62-1.12-2.62-2.49V690.5c0-2.44,2.04-4.43,4.6-4.48l80.74-1.73
			c1.44,0,2.62,1.12,2.62,2.49v46.38C1090.13,734.53,1088.95,735.65,1087.51,735.65z"/>
		<path fill="#7D97F4" d="M1182.9,735.65h-82.73c-1.44,0-2.62-1.12-2.62-2.49V690.5c0-2.44,2.04-4.43,4.6-4.48l80.74-1.73
			c1.44,0,2.62,1.12,2.62,2.49v46.38C1185.52,734.53,1184.34,735.65,1182.9,735.65z"/>
	</g>
	<g>
		
			<linearGradient id="SVGID_12_" gradientUnits="userSpaceOnUse" x1="-1371.5092" y1="592.8334" x2="-1552.4976" y2="793.4946" gradientTransform="matrix(-1 0 0 1 -336.3629 0)">
			<stop  offset="0" style="stop-color:#09005D"/>
			<stop  offset="1" style="stop-color:#1A0F91"/>
		</linearGradient>
		<path fill="url(#SVGID_12_)" d="M1085.61,660.35c2.95,17.69,25.64,43,30.42,52.15c6.49,12.46,4.65,49.81,21.04,67.52
			c7.62,8.24,17.47,10.21,26.33,9.83c6.43-0.29,13.96-3.59,19.99-5.67c12.34-4.27,26.06-9.15,32.11-21.72
			c5.94-12.36,5.09-27.51-0.12-39.98c-4.34-10.37-12.26-18.62-21.62-24.52c-14.44-9.1-31.48-13.5-45.16-23.9
			c-9.91-7.53-14.8-19.79-24.77-27.1c-7.6-5.58-16.17-6.72-24.64-4.46c-2.45,0.65-4.88,1.58-7.28,2.78c-0.02,0-0.03,0.01-0.05,0.02
			c-0.48,0.25-0.96,0.57-1.45,0.93c-1.44,1.04-2.54,2.25-3.34,3.59c-0.19,0.3-0.35,0.63-0.5,0.95
			C1085.23,653.53,1085.02,656.78,1085.61,660.35z"/>
		
			<linearGradient id="SVGID_13_" gradientUnits="userSpaceOnUse" x1="6492.2197" y1="780.9683" x2="6411.3828" y2="827.1088" gradientTransform="matrix(-1 0 0 1 7495.3369 0)">
			<stop  offset="0" style="stop-color:#FEBBBA"/>
			<stop  offset="1" style="stop-color:#FF928E"/>
		</linearGradient>
		<path fill="url(#SVGID_13_)" d="M1015.41,856.19c0.1-0.04,51.37-89.83,58.3-98.28c1.17-1.42,2.97-2.14,4.79-1.93l14.31,1.71
			l16.81,36.37l-28.01-16.31c2.77,19.17-33.21,47.66-45.55,58.05c-1.25,1.05-1.36,2.94-0.22,4.13l4.93,5.16
			c-8.09,8.2-17.42,13.46-27.96,15.9L1015.41,856.19z"/>
		
			<linearGradient id="SVGID_14_" gradientUnits="userSpaceOnUse" x1="835.2059" y1="-485.5801" x2="829.0004" y2="-390.4284" gradientTransform="matrix(0.8974 -0.4412 0.4412 0.8974 478.4089 1631.3552)">
			<stop  offset="0" style="stop-color:#4F52FF"/>
			<stop  offset="1" style="stop-color:#4042E2"/>
		</linearGradient>
		<path fill="url(#SVGID_14_)" d="M1037.92,842.3c0,0,3.14,1.02,4.21,3.82c0.51,1.34-0.04,2.86-1.2,3.69
			c-5.18,3.71-22.26,15.69-30.14,18.03c-0.65,0.19-1.26-0.39-1.12-1.05c0.4-1.83,1.71-5.49,5.93-10.84l-0.38,0.76
			c-0.48,0.97,0.58,1.98,1.52,1.44C1022,855.18,1032.74,848.67,1037.92,842.3z"/>
		
			<linearGradient id="SVGID_15_" gradientUnits="userSpaceOnUse" x1="6484.3999" y1="792.4754" x2="6760.9834" y2="619.3298" gradientTransform="matrix(-1 0 0 1 7495.3369 0)">
			<stop  offset="0" style="stop-color:#FEBBBA"/>
			<stop  offset="1" style="stop-color:#FF928E"/>
		</linearGradient>
		<path fill="url(#SVGID_15_)" d="M1035.38,878.23c0.09-0.06,7.78-18.59,7.86-18.64c7.05-42.94,24.26-79.72,29.34-89.4
			c0.85-1.63,2.47-2.7,4.31-2.86l14.36-1.23l23.83,32.22l-30.73-10.31c6.59,18.21-22.88,53.39-32.86,66.07
			c-1.01,1.29-0.73,3.16,0.62,4.09l5.87,4.05c-6.26,9.67-14.34,16.71-24.16,21.23L1035.38,878.23z"/>
		
			<linearGradient id="SVGID_16_" gradientUnits="userSpaceOnUse" x1="1246.812" y1="-949.677" x2="1240.6068" y2="-854.5319" gradientTransform="matrix(0.7895 -0.6137 0.6137 0.7895 626.265 2365.0327)">
			<stop  offset="0" style="stop-color:#4F52FF"/>
			<stop  offset="1" style="stop-color:#4042E2"/>
		</linearGradient>
		<path fill="url(#SVGID_16_)" d="M1054.61,860.07c0,0,3.28,0.36,4.89,2.89c0.77,1.21,0.54,2.81-0.43,3.86
			c-4.32,4.68-18.62,19.86-25.86,23.76c-0.59,0.32-1.31-0.13-1.3-0.8c0.03-1.87,0.57-5.72,3.61-11.81l-0.22,0.83
			c-0.27,1.04,0.96,1.82,1.78,1.11C1041.64,875.91,1050.83,867.35,1054.61,860.07z"/>
		<g>
			
				<linearGradient id="SVGID_17_" gradientUnits="userSpaceOnUse" x1="-1211.2532" y1="406.9009" x2="-1247.95" y2="461.3134" gradientTransform="matrix(-1 0 0 1 -336.3629 0)">
				<stop  offset="0" style="stop-color:#4F52FF"/>
				<stop  offset="1" style="stop-color:#4042E2"/>
			</linearGradient>
			<path fill="url(#SVGID_17_)" d="M1158.47,759.31c0,0,12.99,19.32,14.06,28.14c1.07,8.81-3.59,11.86-17.19,12.99
				c-40.46,3.34-60.41-8.78-60.41-8.78c-2.77-17.65-4.74-22.14-27.85-31.73c0,0,29.24,2.32,35.12,0.04
				C1108.08,757.67,1158.47,759.31,1158.47,759.31z"/>
		</g>
		<linearGradient id="SVGID_18_" gradientUnits="userSpaceOnUse" x1="1215.5504" y1="595.4987" x2="1139.626" y2="716.9777">
			<stop  offset="0" style="stop-color:#FF928E"/>
			<stop  offset="1" style="stop-color:#FE7062"/>
		</linearGradient>
		<path fill="url(#SVGID_18_)" d="M1123.33,756.75c0,0-15.13-14.4-22.57-23.95c-4.03-5.16-5.29-11.95-3.43-18.22
			c3.4-11.45,9.44-23.32,9.99-25.16c0.84-2.83,17.81-2.71,17.81-2.71s33.38,21.66,46.49,58.36l-14.73,4.59
			c0,0-8.72-14.62-17.33-23.92c0,0,14.9,19.68,15.42,27.74L1123.33,756.75z"/>
		
			<linearGradient id="SVGID_19_" gradientUnits="userSpaceOnUse" x1="230.4746" y1="709.4396" x2="224.9822" y2="674.1974" gradientTransform="matrix(1 0 0 1 888.874 0)">
			<stop  offset="0" style="stop-color:#FEBBBA"/>
			<stop  offset="1" style="stop-color:#FF928E"/>
		</linearGradient>
		<path fill="url(#SVGID_19_)" d="M1105.27,673.61c0.18,0.59,4.6,15.27,4.95,15.57c0.35,0.3,9.71,0.81,14.12-2.2l-9-19.9
			L1105.27,673.61z"/>
		
			<linearGradient id="SVGID_20_" gradientUnits="userSpaceOnUse" x1="1370.3013" y1="-1344.2737" x2="1405.7922" y2="-1320.1666" gradientTransform="matrix(0.723 -0.6909 0.6909 0.723 1028.6616 2590.155)">
			<stop  offset="0" style="stop-color:#FEBBBA"/>
			<stop  offset="1" style="stop-color:#FF928E"/>
		</linearGradient>
		<path fill="url(#SVGID_20_)" d="M1093.1,657.12c0,0-3.15,7.28,0.55,18.35c3.7,11.07,9.76,12.03,13.59,9.29
			c3.83-2.74,8.8-7.63,9.42-17.65C1117.27,657.09,1097.44,647.91,1093.1,657.12z"/>
		
			<linearGradient id="SVGID_21_" gradientUnits="userSpaceOnUse" x1="-1377.2223" y1="587.8186" x2="-1558.0237" y2="788.2724" gradientTransform="matrix(-1 0 0 1 -336.3629 0)">
			<stop  offset="0" style="stop-color:#09005D"/>
			<stop  offset="1" style="stop-color:#1A0F91"/>
		</linearGradient>
		<path fill="url(#SVGID_21_)" d="M1085.81,660.35c1.93,3.28,5.43,4.78,5.43,4.78l0,0c0-2.82,3.28-5.45,6.04-6.32
			c2.75-0.87,5.66-0.19,7.75,1.79c2.71,2.57,4.2,6.01,4.2,6.01l0.9-0.27c0,0-0.07-4.38,2.71-3.36c2.77,1.03,3.91,6.82,3.91,6.82
			s5.9,2.7,6.45-5.18c0.55-7.87-2.92-14.49-13.15-20.09c-3.61-1.99-7.37-2.54-10.86-2.03c-2.64,0.37-5.13,1.36-7.29,2.78
			c-2.19,1.44-3.94,3.32-5.24,5.5C1085.33,653.53,1085.22,656.78,1085.81,660.35z"/>
		
			<linearGradient id="SVGID_22_" gradientUnits="userSpaceOnUse" x1="1372.4281" y1="-1347.4053" x2="1407.9197" y2="-1323.2979" gradientTransform="matrix(0.723 -0.6909 0.6909 0.723 1028.6616 2590.155)">
			<stop  offset="0" style="stop-color:#FEBBBA"/>
			<stop  offset="1" style="stop-color:#FF928E"/>
		</linearGradient>
		<path fill="url(#SVGID_22_)" d="M1111.48,666.64c0,0-3.48-7.68,1.4-7.96c4.88-0.28,2.89,7.4,1.92,10.21L1111.48,666.64z"/>
		
			<linearGradient id="SVGID_23_" gradientUnits="userSpaceOnUse" x1="255.8259" y1="754.3724" x2="336.3514" y2="754.3724" gradientTransform="matrix(1 0 0 1 888.874 0)">
			<stop  offset="0" style="stop-color:#FEBBBA"/>
			<stop  offset="1" style="stop-color:#FF928E"/>
		</linearGradient>
		<path fill="url(#SVGID_23_)" d="M1094.51,762.44l11.37-12.37l13.13,3.54c0,0,15.31,2.37,24.06,0c8.76-2.37,8.76-2.37,8.76-2.37
			l19.79-6.16l3.11,8.79c0.79,2.23,0,4.71-1.93,6.08c-1.71,1.22-3.72,2.55-5,3.11c-2.61,1.14-60.05,0.36-60.05,0.36L1094.51,762.44z
			"/>
		<g>
			
				<linearGradient id="SVGID_24_" gradientUnits="userSpaceOnUse" x1="187.2311" y1="864.5529" x2="145.1058" y2="876.0983" gradientTransform="matrix(0.9988 -0.0494 0.0494 0.9988 911.292 -100.8238)">
				<stop  offset="0" style="stop-color:#09005D"/>
				<stop  offset="1" style="stop-color:#1A0F91"/>
			</linearGradient>
			<path fill="url(#SVGID_24_)" d="M1132.14,767.33c-0.04,0-0.08,0-0.12,0l-52.28-0.06c-1.29,0-2.34-1.05-2.34-2.34
				c0-1.29,1.05-2.36,2.34-2.34l52.28,0.06c1.29,0,2.34,1.05,2.34,2.34C1134.36,766.25,1133.37,767.27,1132.14,767.33z"/>
			
				<linearGradient id="SVGID_25_" gradientUnits="userSpaceOnUse" x1="195.1187" y1="726.229" x2="165.2289" y2="757.8207" gradientTransform="matrix(1 0 0 1 888.874 0)">
				<stop  offset="0" style="stop-color:#09005D"/>
				<stop  offset="1" style="stop-color:#1A0F91"/>
			</linearGradient>
			<path fill="url(#SVGID_25_)" d="M1032.73,719.86h43.54c3.21,0,6.14,1.85,7.51,4.76l20.13,42.68h-54.11
				c-2.07,0-3.93-1.26-4.69-3.19l-15.61-39.5C1028.6,722.34,1030.28,719.86,1032.73,719.86z"/>
		</g>
		<g opacity="0.7">
			<linearGradient id="SVGID_26_" gradientUnits="userSpaceOnUse" x1="1107.9954" y1="676.4612" x2="1199.6471" y2="676.4612">
				<stop  offset="0" style="stop-color:#DAE3FE"/>
				<stop  offset="1" style="stop-color:#E9EFFD"/>
			</linearGradient>
			<path fill="url(#SVGID_26_)" d="M1199.33,709.55c-0.1,0-0.2-0.05-0.26-0.14c-6.33-9.35-17.45-12.96-29.21-16.79
				c-13.29-4.32-27.03-8.79-33.4-22.24c-6.05-12.76-13.39-19.26-18.48-22.45c-5.51-3.46-9.65-3.92-9.69-3.92
				c-0.18-0.02-0.3-0.17-0.29-0.35c0.02-0.18,0.17-0.3,0.35-0.29c0.17,0.02,4.3,0.46,9.92,3.99c5.17,3.24,12.63,9.82,18.75,22.75
				c6.26,13.2,19.86,17.63,33.02,21.9c11.35,3.69,23.09,7.51,29.54,17.03c0.1,0.15,0.06,0.34-0.09,0.44
				C1199.45,709.53,1199.39,709.55,1199.33,709.55z"/>
			<linearGradient id="SVGID_27_" gradientUnits="userSpaceOnUse" x1="1194.2566" y1="757.6068" x2="1211.6057" y2="757.6068">
				<stop  offset="0" style="stop-color:#DAE3FE"/>
				<stop  offset="1" style="stop-color:#E9EFFD"/>
			</linearGradient>
			<path fill="url(#SVGID_27_)" d="M1194.58,773.78c-0.13,0-0.25-0.08-0.3-0.21c-0.06-0.17,0.03-0.35,0.19-0.41
				c19.68-6.96,16.29-31.11,16.26-31.36c-0.03-0.17,0.09-0.34,0.27-0.36c0.17-0.03,0.34,0.09,0.36,0.27
				c0.04,0.25,3.49,24.92-16.68,32.05C1194.65,773.77,1194.61,773.78,1194.58,773.78z"/>
		</g>
	</g>
</g>
</svg>
