<svg xmlns="http://www.w3.org/2000/svg" viewBox="0 0 1920 1281"><defs><style>.cls-1{fill:#e96160;}.cls-2{fill:#eaf3fb;}.cls-3{opacity:0.8;}.cls-4{fill:#d6e3f4;}.cls-5{fill:#b0c0e3;}.cls-6{fill:#9dd199;}.cls-7{fill:#faab77;}.cls-8{fill:#7694cc;}.cls-9{fill:#173257;}.cls-10{fill:#234f9d;}.cls-11{fill:#1e3966;}.cls-12{fill:#6581c0;}.cls-13{fill:#f79454;}.cls-14{fill:#2b3a68;}.cls-15{fill:#f79134;}.cls-16{fill:#f47621;}.cls-17{fill:#92aeda;}.cls-18,.cls-19{fill:#5a84c3;}.cls-19{opacity:0.4;}.cls-20{fill:#6073b7;}.cls-21{fill:#e8f2fb;}.cls-22{fill:#f3753e;}.cls-23{fill:#e6eef9;}.cls-24{fill:#163e6b;}.cls-25{fill:#18467f;}.cls-26{fill:#f89e63;}.cls-27{fill:#1a3763;}.cls-28{fill:#0a4e89;}.cls-29{opacity:0.5;}.cls-30{fill:#b0cdeb;}.cls-31{fill:#f79351;}.cls-32{fill:#fff;}.cls-33{fill:#1b4584;}.cls-34{fill:#c33d35;}.cls-35{fill:#f5904e;}.cls-36{opacity:0.7;}</style></defs><g id="Layer_3" data-name="Layer 3"><rect class="cls-1" width="1920" height="1281"/></g><g id="Layer_1" data-name="Layer 1"><path class="cls-2" d="M1594.1,1018.46c-87.55,0-1271.23-2.55-1271.23-2.69-.49-1.15-150.26-184.72,38.33-376.65,93.45-95.09-85.81-218.3,0-324.08,147-181.2,292.45-79.15,413.62-130.11,21.41-9,42.89-23.48,64.39-45.7a239.72,239.72,0,0,1,39.58-32.85q3.27-2.17,6.6-4.25a264.51,264.51,0,0,1,26.4-14.33q9.15-4.32,18.65-8h0a300.5,300.5,0,0,1,30.9-10.06,349.55,349.55,0,0,1,46.1-9.05c6.85-.89,13.76-1.58,20.72-2.11,135.39-10.18,287.76,47.07,366.38,130.74,15.83,16.85,87.82,104,31.08,223.87-35.83,75.66,114.26,147.92,167.59,234.31C1728.82,867.18,1595.33,1015.6,1594.1,1018.46Z"/><g class="cls-3"><path class="cls-4" d="M1287.76,507.76a173.37,173.37,0,0,1-13.2,28.18,172.16,172.16,0,0,1-320.29-75.27,169.41,169.41,0,0,1,.22-26.26,173.44,173.44,0,0,1,26-77.33l.22-.35a172.45,172.45,0,0,1,98.11-73.27c4.2-1.21,8.46-2.25,12.75-3.13a171.17,171.17,0,0,1,93.29,6.88q6.17,2.25,12,4.9a170.84,170.84,0,0,1,69.76,57.6h0a172.61,172.61,0,0,1,27.53,62.46c1,4.81,1.91,9.67,2.55,14.58a170.88,170.88,0,0,1,.9,35.93A172.64,172.64,0,0,1,1287.76,507.76Z"/><path class="cls-5" d="M1097.38,356.58c-10.17,7.88-7.47,28.95-25.07,17.07s-28.66-18.33-33.64-8,10.61,16,6.5,27.34-12.46,12.49-21.26,3.21-9.07-18.2-23.33-17.91-20.36-5.57-19.66-16.28a15.14,15.14,0,0,0-.47-5l.22-.35a172.45,172.45,0,0,1,98.11-73.27c4.2-1.21,8.46-2.25,12.75-3.13,5,2,10.31,6.12,13.14,14.35,6.21,18.09,16.28,13.83,7.73,29s-5,18.88,4.3,21.66,20.1,6.7,18.63,14.08S1107.56,348.71,1097.38,356.58Z"/><path class="cls-5" d="M1287.76,507.76a173.37,173.37,0,0,1-13.2,28.18,171.12,171.12,0,0,1-48.09,52.77,19.63,19.63,0,0,1-12.81-5c-17.23-15.4,5.61-31.76,17.64-39.72s-10.31-10.6-21.57-26.11,15.11-36.53-1.83-37.66-37.56-2.24-41-20.39,14.38-14.41,11.26-29.7,11.62-18.16,27.39-13.8,17.71-7.26,37.26-2,10.35,29.34,31.91,35.35,18.86,10.51,18.86,10.51a10.53,10.53,0,0,1,4,2.51A172.64,172.64,0,0,1,1287.76,507.76Z"/><path class="cls-5" d="M1296.72,426.75c-20.53,2.15-19.14-23.48-36.57-22-17.58,1.53-10.06-11-18.76-23.87s-38-5.91-32.08-19,22.35-2.84,30-12.23,23.91-.44,23.91-.44a12.09,12.09,0,0,1,3.39.43h0a172.61,172.61,0,0,1,27.53,62.46C1295.22,417,1296.08,421.84,1296.72,426.75Z"/><path class="cls-5" d="M1166.62,326.94s13.94-9.87.83-19-14.69-4-25.55-9.29-18.47,1.82-13.47,14.45,5.2,33.44,16.41,26.46S1157.27,324.61,1166.62,326.94Z"/></g><path class="cls-6" d="M362,1016.26h60c3.21-2.73-2.23-8.93-7.91-9.34a35.12,35.12,0,0,0-9.17,1.08c-.82-11-5.54-60.29-23.32-58.31-20,2.22,0,21.72,5.65,33.27,4.19,8.55,8.61,20.81,10.62,26.6-1.62.35-3.3.7-5,1-2.64-8.13-12.5-35.5-25-33.9-14.72,1.87-8.8,12.84,1.63,19.35,7.65,4.79,17.05,11.59,21.52,14.88a63,63,0,0,1-11.74.94C368.93,1011.6,363.91,1014.63,362,1016.26Z"/><path class="cls-6" d="M1317.25,1016.26H1261.5c-3-2.54,2.06-8.29,7.35-8.68a32.79,32.79,0,0,1,8.51,1c.76-10.19,5.14-56,21.66-54.16,18.56,2.06,0,20.17-5.25,30.9a255.54,255.54,0,0,0-9.87,24.71c1.51.32,3.07.64,4.67.94,2.46-7.56,11.61-33,23.26-31.49,13.67,1.73,8.17,11.92-1.52,18-7.11,4.45-15.83,10.77-20,13.82a59.19,59.19,0,0,0,10.9.88C1310.78,1011.93,1315.44,1014.75,1317.25,1016.26Z"/><path class="cls-7" d="M1357.07,650.79s1.33-13.2-5.58-12.74-8.73,3.61-8,6.15,7.49,10.93,7.49,10.93Z"/><path class="cls-8" d="M1464.61,677.24s-7.64,9-24.07,19.34c-1.56,1-3.18,2-4.9,3a182,182,0,0,1-22.51,11.07c-1,.4-2.07.83-3.32,1.28-9.85,3.55-28,8.59-39.2,9.05-1,0-1.9,0-2.76,0-17.09-.69-19.17-67-19.17-67s1.9-6.64,10.68-5c0,0,13.33,37.46,18.11,40.51,4.24,2.72,28.64-34.26,49.63-36.85C1441.24,650.89,1464.61,677.24,1464.61,677.24Z"/><path class="cls-9" d="M1418.7,1000.66s1.27,14.6-1.82,16.12l-39.5-.08s0-4.56,6.35-5.57,17.49-4.73,19.37-13S1418.7,1000.66,1418.7,1000.66Z"/><path class="cls-10" d="M1389.71,824c.19,9.55.65,19.39,1.55,28.24,4.26,42,5.76,92.74,6.38,102.52,1.06,17,4.41,44.11,4.41,44.11s6.66,6.32,19.63,3.3c0,0,10.74-39.07,13.14-80.21,0-.68.08-1.36.11-2,.28-5.43.57-11.66.87-18.36,2-44.92,4.12-111.66,4.12-111.66l-49.56-11.63S1389.22,800.16,1389.71,824Z"/><path class="cls-11" d="M1389.71,824c12.56,21.67,36.5,61.6,46.09,77.56,2-44.92,4.12-111.66,4.12-111.66l-49.56-11.63S1389.22,800.16,1389.71,824Z"/><path class="cls-12" d="M1409.81,711.9c-9.85,3.55-28,8.59-39.2,9.05,1.72-.33,14.22-2.8,18.85-8.38,5-6,13.32-22.3,20-15.65C1412.56,700.05,1411.64,706.24,1409.81,711.9Z"/><path class="cls-7" d="M1493.09,816.9s3.07,12.06,2.57,14.74-3.51,11.76-5.38,14-2-9.79-3.2-11.69-.57,4.5-1.57,5-2.66-4.84-3.4-6.74,2.66-8.51,3-13.26S1493.09,816.9,1493.09,816.9Z"/><path class="cls-9" d="M1517.09,984.07s7,6.42,5.66,11-7.72,7.6-8.57,13.17-4.29,8.61-7.38,8.61h-14.71s-2.27-3.92,3.22-5.1,7.55-7.73,7.21-13.81a108.09,108.09,0,0,1,.51-14.18l11.66-2.7Z"/><path class="cls-10" d="M1398.17,790.88s46.4,99.27,71.09,142.83,32.4,55.71,32.4,55.71,14.15-5.57,15.43-9.37c0,0-9.44-84.09-26-104.59-9.35-11.58-20.32-46.34-20.83-58.49s-11.36-41.17-11.36-41.17Z"/><path class="cls-8" d="M1389.53,785.72s15.1,16.25,40.78,21.16c11.26,2.16,34.13,4.25,39.8-3.78,1.33-1.88,1.35-4.67,1.05-9-.76-11.32-3.61-33.19,9.24-77.15a75.09,75.09,0,0,0,2.47-11.75c2.81-22.49,2.5-39.47-17-48.54-29.24-13.59-41.24-2.41-41.24-2.41s-15.55,7.27-22.65,28.44C1387.76,725,1389.53,785.72,1389.53,785.72Z"/><path class="cls-7" d="M1448.31,652.9a21.69,21.69,0,0,1-21.84,1.43c-.64-.31-.56-4.68-.4-9s.56-8.34.56-8.34l10.4-6.83,9.93-6.51C1445.77,646.08,1450.53,651.32,1448.31,652.9Z"/><path class="cls-13" d="M1445.21,632.93s-6.75,10.13-19.14,12.43c.16-4.21.61-8.85.61-8.85l10.35-6.32Z"/><path class="cls-7" d="M1417.31,634.39s25.17,9.39,30.77-6.12,12.62-24.74-3.21-31.39-21.11-1.85-24.26,2.87S1410.91,631.54,1417.31,634.39Z"/><path class="cls-14" d="M1463.76,598.62c.29-.22.87-.33,2.1-.16a5.07,5.07,0,0,0-2.14-1.08c.08-1.74-.23-4.9-3-6.2a3.72,3.72,0,0,1,1.24,3c-2.68-4.12-9.38-8-29.62-10.42-26.68-3.11-21.35,15.42-18.34,18.1s12.65-1.13,18.89.62,5.63,11.15,7.53,12.83,1.5-.71,4.66-1.45,2.5,4.14,1,7.1,1.72,7.89,1.72,7.89l4.9-3.55c4.89-3.55,12.34-21.22,11.28-25.51C1463.94,599.39,1463.85,599,1463.76,598.62Z"/><path class="cls-12" d="M1471.16,794.08c-.76-11.32-3.61-33.19,9.24-77.15a75.09,75.09,0,0,0,2.47-11.75h0c-9.55-3.14-26.94,3.86-26.94,3.86S1451.84,767.14,1471.16,794.08Z"/><path class="cls-8" d="M1471.12,659.58s11.75,4.27,19.24,35.37c5,20.55,14.07,50.76,15.1,60.25S1495,820.27,1495,820.27s-1.62,1.18-5.57.39a9.2,9.2,0,0,1-5.55-3.32s-2.74-37-2-54.53c.29-7.27-33.64-53.22-52-59.14C1422.75,701.35,1471.12,659.58,1471.12,659.58Z"/><path class="cls-5" d="M1306.8,619.31a391.18,391.18,0,0,1,73.14,6.25l4.1-10.31,4.48-11.31s-39.33-16.93-63-40.51Z"/><path class="cls-15" d="M1326.08,562.88l-19.5,57.55h0a5.18,5.18,0,0,1-3.41-6.71l17.16-48.35a4.27,4.27,0,0,1,5.75-2.49Z"/><path class="cls-15" d="M1344.69,662.15h0a7.06,7.06,0,0,0,8.27-5.52l6.71-33.58a7,7,0,0,0-5.51-8.27h0a7,7,0,0,0-8.27,5.51l-6.72,33.59A7.06,7.06,0,0,0,1344.69,662.15Z"/><path class="cls-8" d="M1306.8,619.31a391.18,391.18,0,0,1,73.14,6.25l4.1-10.31C1347.22,607.73,1306.8,619.31,1306.8,619.31Z"/><path class="cls-15" d="M1369.11,623.49l10.61,1.86c-.16,0,9.85,1.95,13.14-6.93a7.27,7.27,0,0,0,.63-1.91c2.55-11.07-3.53-13.11-3.53-13.11l-13.65-5.32L1372,613.44v0Z"/><path class="cls-16" d="M1369.11,623.49l10.61,1.86c-.16,0,9.85,1.95,13.14-6.93-6-4.36-20.89-5-20.89-5v0Z"/><path class="cls-7" d="M1345.59,629.62s5.19,2.07,4.24,4.36-7.55,5.43-8.59,3.62S1342.33,627.7,1345.59,629.62Z"/><path class="cls-7" d="M1357.17,648.71a72.79,72.79,0,0,0,1-7.75c.06-2.43.35-4.43-.23-4.5s-1,.38-1.22,1.17-1.14,5.65-1.14,5.65l.46,4.69Z"/><path class="cls-8" d="M843.79,645.25l-29.4,349.64s-3.08,21.2,12.68,21.24c25.92.06,129,0,129,0s-19.51-4.42-19.27-14.34c.28-11.7,34.37-359.85,34.37-359.85Z"/><path class="cls-17" d="M965.8,1009.92c-5.1,0-104.91.19-130.16-.14-11-.14-12.93-9.78-13-16a31.69,31.69,0,0,1,.34-5.21l.76-9.08,1.95-23.17,1.72-20.46,2.21-26.3,1.87-22.19L852.36,638.9l127.4-3.31s-14.36,145.7-24.52,251.76c-1.13,11.81-2.21,23.14-3.21,33.72q-.48,5.07-.93,9.89c-1,10-1.81,19.25-2.56,27.39q-.59,6.43-1.08,11.92c-1.3,14.3-2.06,23.44-2.07,25.17a14.75,14.75,0,0,0,.25,2.83C947.73,1009.42,963.88,1009.92,965.8,1009.92Z"/><polygon class="cls-5" points="534.41 454.98 606.04 742.7 615.84 782.1 649.21 916.11 1269 916.11 1146.03 454.98 534.41 454.98"/><polygon class="cls-17" points="534.41 454.98 524.48 458.29 636.01 926.12 649.21 916.11 534.41 454.98"/><polygon class="cls-8" points="636.01 926.12 1251.98 926.12 1268.99 916.11 649.21 916.11 636.01 926.12"/><rect class="cls-5" x="852.32" y="1009.92" width="133.37" height="6.34" transform="translate(1838.01 2026.18) rotate(180)"/><polygon class="cls-18" points="951.78 926.12 951.1 930.96 825.67 956.3 827.39 935.84 828.21 926.12 951.78 926.12"/><path class="cls-19" d="M965.8,1009.92c-5.1,0-104.91.19-130.16-.14-11-.14-12.93-9.78-13-16l124.84-23.49c-1.3,14.3-2.06,23.44-2.07,25.17a14.75,14.75,0,0,0,.25,2.83C947.73,1009.42,963.88,1009.92,965.8,1009.92Z"/><polygon class="cls-5" points="534.41 454.98 1146.03 454.98 1245.27 825.59 626.67 825.59 534.41 454.98"/><polygon class="cls-8" points="1216.42 809.52 643.75 809.52 623.29 728 615.37 696.46 612.15 683.6 591.11 599.82 590.02 595.46 578.9 551.17 573.93 531.36 569.69 514.46 559.74 474.84 1124.15 474.84 1135.08 514.46 1139.73 531.36 1145.2 551.17 1181.18 681.71 1181.18 681.72 1184.23 692.77 1185.65 697.91 1210.5 788.03 1216.42 809.52"/><polygon class="cls-20" points="1135.08 514.46 569.69 514.46 559.74 474.83 1124.16 474.83 1135.08 514.46"/><path class="cls-21" d="M583.09,492.74a3.75,3.75,0,0,1,3.72-4.95,6.77,6.77,0,0,1,6.19,4.95,3.75,3.75,0,0,1-3.72,5A6.78,6.78,0,0,1,583.09,492.74Z"/><path class="cls-21" d="M599.55,492.74a3.74,3.74,0,0,1,3.72-4.95,6.77,6.77,0,0,1,6.19,4.95,3.75,3.75,0,0,1-3.72,5A6.76,6.76,0,0,1,599.55,492.74Z"/><path class="cls-21" d="M617.27,492.74a3.75,3.75,0,0,1,3.72-4.95,6.77,6.77,0,0,1,6.19,4.95,3.75,3.75,0,0,1-3.72,5A6.78,6.78,0,0,1,617.27,492.74Z"/><path class="cls-22" d="M1011.88,244.47c23.15-27.17,58.84-81.76,82.87-109.72a8.86,8.86,0,0,0-6.75-14.63h-43.73l41.24-93.27a3.65,3.65,0,0,0-6.27-3.66L979.51,156.66a5.53,5.53,0,0,0,5.1,8.79l49.5-6.1-29.45,80.9A4.25,4.25,0,0,0,1011.88,244.47Z"/><path class="cls-5" d="M806,410c5.21-26.71,8.49-76.32,14-103.87a6.76,6.76,0,0,0-10-7.2l-29,16.36-7.49-77.37a2.78,2.78,0,0,0-5.53-.09l-16.31,126a4.2,4.2,0,0,0,6.67,3.92l30.59-22.56,10.71,64.75A3.24,3.24,0,0,0,806,410Z"/><path class="cls-23" d="M1241.44,817.41l-497.6,41.93c-37.79,3.18-65.13-35.34-49.66-70L905,317.58c16-35.8,65.16-39.94,86.92-7.33l286.78,429.89C1299.73,771.68,1279.22,814.23,1241.44,817.41Z"/><path class="cls-22" d="M1243,836.23l-497.6,41.93a68.7,68.7,0,0,1-68.49-96.48L887.75,309.87a68.7,68.7,0,0,1,119.87-10.1L1294.4,729.65A68.69,68.69,0,0,1,1243,836.23ZM947.88,307.08a30.54,30.54,0,0,0-25.64,18.2L711.42,797.09a30.92,30.92,0,0,0,30.83,43.42l497.6-41.92a30.92,30.92,0,0,0,23.13-48L976.19,320.74A30.52,30.52,0,0,0,947.88,307.08Z"/><path class="cls-22" d="M936.22,745.23a45.56,45.56,0,0,1,1.93-18.07,41.72,41.72,0,0,1,8.52-15A44.89,44.89,0,0,1,961,701.6a55.92,55.92,0,0,1,19.58-5,57,57,0,0,1,20.29,1.67,44.43,44.43,0,0,1,16,8,41.77,41.77,0,0,1,10.9,13.32,45.69,45.69,0,0,1,4.93,17.49,44.49,44.49,0,0,1-2,17.93,42,42,0,0,1-8.53,14.81,44.33,44.33,0,0,1-14.44,10.61,57.14,57.14,0,0,1-19.73,5,55.7,55.7,0,0,1-20.14-1.68A44.75,44.75,0,0,1,952,775.75a41.87,41.87,0,0,1-10.88-13.17A44.33,44.33,0,0,1,936.22,745.23Zm76.93-90-71.68,6-30.79-244,92-7.75Z"/><path class="cls-7" d="M627.22,670.18s1.56-3.51,2.57-5.18,5.33-6.53,6.07-5.42,3.67,8.52,2.11,10.6.1,5.69-7.67,7.88Z"/><path class="cls-16" d="M540.92,648s39.76,33.18,55.26,30.11c12.12-2.4,31.28-8.48,31.28-8.48s5.06,4.81,3.63,10.58c0,0-24.42,23-41.81,23.12-27.19.23-40-13.48-40-13.48Z"/><path class="cls-24" d="M471.2,998s1.16,18.62,4.76,18.89c.48,0,18.27,0,18.27,0l22.7-.13s-.15-5.47-6.78-6.63-17.75-5.82-21.77-14.59C484.15,986.38,471.2,998,471.2,998Z"/><path class="cls-10" d="M469.89,999.34s6.91,2.3,12.3,2.3a45.27,45.27,0,0,0,11.47-1.63s1.3-12.57,8.45-40.26c3.75-14.52,9.11-33.18,16.72-56.37,21.07-64.09,27.47-101.58,28.06-105.14,0-.18,0-.27,0-.27l-.07,0L482.11,769.5s8,88.33-2.21,122.24A142.81,142.81,0,0,0,476.19,908C469.74,944.81,469.89,999.34,469.89,999.34Z"/><path class="cls-11" d="M502.11,959.75c3.75-14.52,9.11-33.18,16.72-56.37,21.07-64.09,27.47-101.58,28.06-105.14,0-.1,0-.2,0-.31L482.11,769.5s8,88.33-2.21,122.24C478.47,896.48,502.11,959.75,502.11,959.75Z"/><path class="cls-25" d="M521.78,998s1.15,18.62,4.76,18.89c.47,0,18.26,0,18.26,0l22.71-.13s-.15-5.47-6.79-6.63S543,1004.38,539,995.61C534.73,986.38,521.78,998,521.78,998Z"/><path class="cls-10" d="M558.49,771.58a920.43,920.43,0,0,1-9.06,127.52c-9.9,70.28-6.55,100.12-6.55,100.12s-6.8,2.2-9.55,2.42a43.29,43.29,0,0,1-14.16-1.64S505,929.7,509.05,894.52s-19.41-120.71-19.41-120.71Z"/><path class="cls-7" d="M512.58,637.63l12.64,8.29,11.51-3.25c2.11-3,2.66-8.79,2.69-13.81a86.51,86.51,0,0,0-.45-9.19l-17.05-7.53-6.37-2.8c0,.1.5,5.22.57,6C517.31,628.6,512.58,637.63,512.58,637.63Z"/><path class="cls-15" d="M558.78,787.5c-15.73,15.19-75.27,12.63-78.94-4.11s4-142.47,30.87-150.37c5.58-1.64,35.4,8,35.4,8a188.41,188.41,0,0,1,7.74,27.82c.6,3,2.34,35.16,3.64,65.22.61,14.06,1.12,27.67,1.38,37.64C559.11,781,559.12,787.16,558.78,787.5Z"/><path class="cls-26" d="M517.39,615.55c3.46,5.85,15.6,11,22,13.31a86.51,86.51,0,0,0-.45-9.19l-17.05-7.53C518.15,612.09,515.85,612.94,517.39,615.55Z"/><path class="cls-7" d="M545.4,618.63s-27.47,8.57-32.55-8.62-12-27.67,5.29-33.87,22.69-.65,25.78,4.68S552.42,616,545.4,618.63Z"/><path class="cls-27" d="M542.84,579.16s-1.75,20-5.89,19.14-8.69-2.72-8.08,3.31-4,16.37-10,16.34c-12.8-.05-26.7-32.89-23.2-39.11C505.79,560.87,557.45,557.24,542.84,579.16Z"/><path class="cls-16" d="M538.8,633.45c-.35-.15-20.45-9.16-22.81-8.39s-5.28,8-5.28,8l35.4,8S543.32,635.36,538.8,633.45Z"/><path class="cls-28" d="M664,730.83,551.26,836.92c-2.2,2.08-5,2.75-6.18,1.48l-3.81-4c-1.19-1.27-.36-4,1.84-6.09L655.79,722.18c2.21-2.08,5-2.75,6.19-1.48l3.81,4C667,726,666.15,728.75,664,730.83Z"/><path class="cls-8" d="M600.71,790.37l-49.45,46.55c-2.2,2.08-5,2.75-6.18,1.48l-3.81-4c-1.19-1.27-.36-4,1.84-6.09l49.45-46.56Z"/><path class="cls-28" d="M638.05,690.78A88.32,88.32,0,1,0,784.43,602c-.45-.45-.91-.9-1.38-1.34a88.33,88.33,0,0,0-145,90.1Zm25.24-81.52a81.36,81.36,0,1,1,3.5,115A81.25,81.25,0,0,1,663.29,609.26Z"/><g class="cls-29"><path class="cls-30" d="M781.78,720.74a81.35,81.35,0,1,1-3.51-115A81,81,0,0,1,781.78,720.74Z"/></g><path class="cls-16" d="M558.87,771.7C496.78,727.46,502,668.42,502,668.42c22.69,12.8,45.21,41.1,55.54,65.64C558.1,748.12,558.61,761.73,558.87,771.7Z"/><path class="cls-7" d="M620.15,751.55c4.38-1,7.32-4.32,7.93-4.9,0,0,1.87.13-.31,4.11-.18.34-.58,1.19-.89,1.8a.39.39,0,0,0,.33.55c2.53.19,5.07-.8,9.93.21.67.14.87,1.75.84,2.43a6.21,6.21,0,0,1-1.3,4.24c-.79,1-3,2.15-7.85,4.11-1.86.75-7.16.19-12.14-1.52l-4-1.84,1.23-7.39,1,.21C616.53,753.89,618.5,752,620.15,751.55Z"/><path class="cls-15" d="M521.22,641s-55.79,10.62,16.41,91.41c11.55,12.92,73.93,29.74,73.93,29.74s6.33-5.38,3.14-9.74c0,0-43-31.19-52.41-36.15-4.25-2.23-16.5-49.79-23.43-61.24A31.26,31.26,0,0,0,521.22,641Z"/><path class="cls-7" d="M628.74,671.16a28.75,28.75,0,0,0,2.18-5.33c.35-1.84,2.65-7.21,3.6-8.15.38-.38,1.63.11,1.77,1.74a9.43,9.43,0,0,1-.89,3.53c-1,2.49-.84,5.88-1.18,7C633.35,672.77,628.74,671.16,628.74,671.16Z"/><path class="cls-7" d="M650.94,532.74a3.36,3.36,0,0,0-.6,3.6v0c.86,2.4,3.73,5.08,7.06,7.75.43.35.81.66,1.14.95l.25.23.2.17c3.1,2.87,1.93,3.52,7.51,9.34,6.36,6.62,10.74,6.74,12,6.14,1.06-.51-1.08-4-3.46-8l-.34-.57-1-1.59c-2.78-4.75-2.06-7-1.4-14,.54-5.74,8.95-32.09,8.95-32.09l-12.2-2.1s-3.68,21-7.72,24.21c-2.17,1.72-4.59,1.74-6.67,3l-.43.27A15.67,15.67,0,0,0,650.94,532.74Z"/><path class="cls-11" d="M650.94,532.74a3.36,3.36,0,0,0-.6,3.6v0c1.06,2.39,3.85,5.06,7.07,7.73.42.35.8.67,1.13,1l.25.23.2.17c3.1,2.87,1.93,3.52,7.51,9.34,6.36,6.62,10.74,6.74,12,6.14,1.06-.51-1.08-4-3.46-8a27,27,0,0,1-11.34-8.36c-3.69-4.71-6.2-10.72-8.71-14.41l-.71-.13A15.67,15.67,0,0,0,650.94,532.74Z"/><path class="cls-7" d="M749.28,525.16c.75,3.76,6.12,3.14,12.11,1.67s4.57.28,13.11-.66,11.12-4.12,11.38-5.39-4-1.53-8.51-2l-1.71-.2c-5.1-.65-8.84-3.94-13.48-6.65-4.39-2.56-10.94-13-10.94-13l-11.7.93s6.13,9.32,8.51,13.38c1.39,2.39,1.32,5.54,1.14,8A15,15,0,0,0,749.28,525.16Z"/><path class="cls-11" d="M761.39,526.83c6-1.46,4.57.28,13.11-.66s11.12-4.12,11.38-5.39-4-1.53-8.51-2l0,.09a24,24,0,0,1-12.22,3.79c-5.79.14-11.92-1.52-15.92-1.46a15,15,0,0,0,.09,4C750,528.92,755.4,528.3,761.39,526.83Z"/><path class="cls-11" d="M704.46,450.32l-11,29.43-14.29,38.43a23.18,23.18,0,0,1-7.59-.7,33.07,33.07,0,0,1-7.33-3.57s4-41.27,11.38-64.95c1.9-6.08,4-11,6.37-13.77C693.52,421.64,704.46,450.32,704.46,450.32Z"/><path class="cls-10" d="M693.36,403.57c-6.23-2-22.48,0-40.1,3.14a12,12,0,0,1-12.34-5.57h0l-44.35-3.48s-14.64,32.45-6.64,53.13c1.18,3,3.76,4.93,7.75,5h0s26.8,0,35.37,0c22.06,0,46.68-15.15,49.87-15.78,5.21-1,7.29,9.39,12.5,20.34s49,48.5,49,48.5,6.73.06,9.51-1a9.44,9.44,0,0,0,4.09-2.57S709.52,408.79,693.36,403.57Z"/><path class="cls-11" d="M636.25,270.9a15.68,15.68,0,0,0-8.47-2.2,23.41,23.41,0,0,1-4.09-.25C606.77,266,596.57,290.54,596,298c-1.1,13.64-8.32,15.72-18.48,24.25-20.37,17.12-14.4,37-3.27,44.42,6.68,4.44,18.46,0,18.46,0,.16.12,32.21-17.9,48-26.59C664.36,336.7,645.76,276.57,636.25,270.9Z"/><path class="cls-7" d="M627.45,332.66c.07,0-7.77,2.71-13,.39-4.94-2.18-8.67-10.3-8.6-10.3,2.25-.1,4.71-2.06,6.61-14.93l1,.34L629.47,314s-1.17,5.15-1.92,10.06C626.91,328.13,626.57,332.07,627.45,332.66Z"/><path class="cls-31" d="M629.47,314s-.64,2.78-1.58,8c-9.23-1.66-13.18-8.77-14.48-13.76Z"/><path class="cls-7" d="M631.86,319.06s-22-2.95-19.92-16.61.59-23.24,14.71-21.93,16.05,6.94,16.48,11.66S637.63,319.48,631.86,319.06Z"/><path class="cls-11" d="M642.33,284.69s-14.07,12.12-23.64,13.1-13.19-2.1-13.19-2.1a37.39,37.39,0,0,0,9-12.24,6.71,6.71,0,0,1,5.54-4C626.92,278.9,639.87,278.63,642.33,284.69Z"/><path class="cls-11" d="M633.54,283.6s4.7,4.56,6.18,7.93,1.86,11.05.72,14.14c0,0,7.33-14.25,3.19-21.18C639.23,277.14,633.54,283.6,633.54,283.6Z"/><path class="cls-15" d="M645.94,365c-.68,44.49-.19,35.19-5.06,39.41-1.17,1-4.47,1.62-8.81,1.91-13.64.9-37.62-1.36-38.53-3.88-3.14-8.72-.92-11.43-3.54-24.79-.27-1.42-.61-2.95-1-4.63-2.18-9.17-4.31-12.29,3.46-27,7-13.35,14.36-24.18,15-23.79,18.58,11,20.08,1.77,20.08,1.77S646.27,343.34,645.94,365Z"/><path class="cls-10" d="M693.51,479.75l-14.29,38.43a23.18,23.18,0,0,1-7.59-.7,33.07,33.07,0,0,1-7.33-3.57s4-41.27,11.38-64.95Z"/><path class="cls-15" d="M627.55,324s19.11,3.24,21.35,11.48,9.62,58.19,9.62,58.19-5.39,5.26-9.88.77-14.11-46.75-14.11-46.75Z"/><path class="cls-16" d="M632.07,406.35c-13.64.9-37.62-1.36-38.53-3.88-3.14-8.72-.92-11.43-3.54-24.79l6.59-18.52s-1.1,20.63,5,26.06,24.91,10.48,27.87,15A16.52,16.52,0,0,1,632.07,406.35Z"/><path class="cls-7" d="M616.45,397.66s13.45-3,15.63-1.79,7.47,5.54,8.14,7.06-4.84-1.15-6.63-1.63c-1.15-.31-4.2.74-5.71,1.25-6.35,2.11-10.25,1-10.25,1Z"/><path class="cls-15" d="M607.46,322.23s-18.07,1.11-24.33,9.83c-8.81,12.28-26.29,64.61-16.28,71.6,11.27,7.86,51.3,2.07,51.3,2.07s1.34-6.23-.51-9.24-32-7.89-33.37-9.28,17.39-27.1,17.39-31.27S607.46,322.23,607.46,322.23Z"/><path class="cls-7" d="M632.73,399.61s2.81,3.64,3.74,4.08A2.75,2.75,0,0,0,638,404l-1.9-3.42Z"/><path class="cls-7" d="M632.08,395.87l8.19,4a1.48,1.48,0,0,1-1.36.53,19.71,19.71,0,0,1-3.55-1Z"/><polygon class="cls-11" points="702.08 405.25 616.44 405.22 616.44 407.11 701.31 407.14 702.08 405.25"/><polygon class="cls-11" points="636.47 407.12 701.31 407.14 720.84 358.64 656.09 358.62 636.47 407.12"/><path class="cls-32" d="M685,382.88a2.25,2.25,0,0,0-2.2-3.09,4.42,4.42,0,0,0-4,3.09A2.25,2.25,0,0,0,681,386,4.42,4.42,0,0,0,685,382.88Z"/><path class="cls-27" d="M1123.82,590.05c-8.74-2.91-14.79.76-14.79.76-25.15,1-26.08,26.81-23.13,36.41,4.15,13.47-10.53,24.1,5.75,29.55,18.88,6.33,34.72-1.18,33.64,2.08C1185,663.55,1143.69,596.64,1123.82,590.05Z"/><path class="cls-15" d="M1097.73,715.44a65.89,65.89,0,0,1-6.73,10.17c-5.22,6.54-32.64-9-30.28-10.17s16.14-40.88,19.42-45.87,14.47-7.58,14.47-7.58Z"/><path class="cls-33" d="M1190.27,983.2s7.57,6.91,6.1,11.82-8.31,8.18-9.23,14.17-4.62,9.28-7.94,9.28h-15.85s-2.44-4.23,3.47-5.5,8.13-8.32,7.76-14.86a114.65,114.65,0,0,1,.56-15.27l12.55-2.91Z"/><path class="cls-9" d="M1126.21,986.13s2.72,29.27-.6,30.9l-42.53-.09s0-4.9,6.83-6,18.83-5.09,20.86-14S1126.21,986.13,1126.21,986.13Z"/><path class="cls-15" d="M1158.92,695.7a167.81,167.81,0,0,1,0,19.66c-.42,7.1-7.61,16.62-8.63,19-2.56,5.9-5.44,6.87-5.44,6.87l-22.33,5.47-7.85,1.92-24.76-7.39s-11.28-31.48-6.75-49.2a136.08,136.08,0,0,1,11.45-30s16.82-3.78,46.51-1.68Z"/><path class="cls-16" d="M1161.05,715.61c-.42,7.1-9.74,16.37-10.76,18.73-2.56,5.9-5.44,6.87-5.44,6.87l-22.33,5.47-4-11.56s32.62-8.57,27.38-38.76Z"/><path class="cls-11" d="M1091.48,746s-12.26,38.17-13,51.16,23.43,184.58,24.41,190.57c.92,5.64,7.92,9.24,7.92,9.24a10.63,10.63,0,0,0,7.83.6c6.38-1.8,8.4-4,8.4-4s9.54-122.37,3.63-166.09a693.06,693.06,0,0,1-6-81.52Z"/><path class="cls-10" d="M1143.43,744.84s18.7,25.1,20.45,42.06,2.73,76.55,6.45,93.09,17.36,48.36,17.36,99.94a10.32,10.32,0,0,1-5.8,4.53,49.26,49.26,0,0,1-5.1,1.41,8,8,0,0,1-9-4.26c-9.22-18.57-38.61-78.49-40.12-90.93-1.07-8.8-10.35-67.06-30.59-101.24-4.86-8.21,3-40.84,3-40.84Z"/><path class="cls-11" d="M1089.53,740.09s4.92,3.9,14.7,4.09c11.68.24,40.62-3,40.62-3a24.14,24.14,0,0,1,1.23,7.39s-35.35,8.92-55.83,1.3C1090.25,749.89,1087.61,744.92,1089.53,740.09Z"/><path class="cls-32" d="M1101.42,754.25c-2.93,0-5.33-2.71-5.33-6s2.4-6,5.33-6,5.33,2.71,5.33,6S1104.36,754.25,1101.42,754.25Zm0-10.3c-2,0-3.56,1.91-3.56,4.26s1.6,4.27,3.56,4.27,3.57-1.91,3.57-4.27S1103.39,744,1101.42,744Z"/><polygon class="cls-34" points="1126.96 765.22 1073.83 765.72 1047.69 704.28 1100.82 703.78 1126.96 765.22"/><path class="cls-7" d="M1120,737.46l-3.89-4.79s-2.64-2.35-4.55-2.75-6-2.73-6.34-2.07,3.1,5.34,3.1,5.34l.18,0c-4,3-14.14.35-15.39,1.59-1.51,1.49,2.09,4.71,4,6.52s7.45,4.83,11.76,3.49c3.15-1,8.1-2,8.1-2Z"/><path class="cls-7" d="M1051.69,715.09s3.34-3.8,5.46-2-.55,10.78-2.58,9.87S1050.52,716.2,1051.69,715.09Z"/><path class="cls-15" d="M1141.12,660.31s15.2,1.68,26.12,21.51c8.6,15.64,23.32,44.47,17.77,52.61-2.44,3.57-25.8,16.29-70.87,9,0,0,.71-5.69,4.35-8.33,0,0,37.92-12.17,37.86-14.59-.13-4.59-5.13-8.54-26.31-29.73C1124.28,685,1141.12,660.31,1141.12,660.31Z"/><path class="cls-7" d="M1129.41,661.12c.52-.71-.15-2.94-1-7.1a78,78,0,0,1-2-16.16l-1.12.19-18.85,3.17s.43,5,.44,9.79a.49.49,0,0,1,0,.12c0,4.12-1.12,10.35.27,11.17C1114.31,666.48,1127.4,663.81,1129.41,661.12Z"/><path class="cls-35" d="M1106.44,641.22s.38,7.11.39,11.86c10.55-.26,16.18-10.5,18.46-15Z"/><path class="cls-7" d="M1105.31,649.7s24.7-3.52,22.28-18.88-.88-26.15-16.76-24.55-18,7.94-18.44,13.26S1098.82,650.22,1105.31,649.7Z"/><path class="cls-27" d="M1099.55,607.68s9.61,16.94,20.39,18,14.83-2.47,14.83-2.47a29.76,29.76,0,0,1-12.35-15.8S1103.27,598.3,1099.55,607.68Z"/><path class="cls-27" d="M1101.45,608.88s-4.7,2.67-6.18,6.64a25.12,25.12,0,0,0-1.09,14.63s-7-11.43-2.42-19.27C1096.65,602.57,1101.45,608.88,1101.45,608.88Z"/><rect class="cls-11" x="274.43" y="1016.26" width="1373.13" height="4.41" rx="2.21"/></g><g id="Layer_2" data-name="Layer 2"><rect class="cls-36" width="1920" height="1281"/></g></svg>