<svg xmlns="http://www.w3.org/2000/svg" viewBox="0 0 1920 1281"><defs><style>.cls-1{fill:#e96160;}.cls-2{fill:#eaf3fb;}.cls-3{opacity:0.5;}.cls-4{fill:#b0c0e3;}.cls-5{fill:#72b571;}.cls-6{fill:#9dd199;}.cls-7{fill:#bcceea;}.cls-8{fill:#d2def2;}.cls-9{fill:#c1d2ec;}.cls-10{fill:#85a1d3;}.cls-11{fill:#7b88c4;}.cls-12{fill:#8698cd;}.cls-13{fill:#8d98cc;}.cls-14{fill:#555ca9;}.cls-15{fill:#5f6bb2;}.cls-16{fill:#2b3a68;}.cls-17{fill:#faab77;}.cls-18{fill:#254790;}.cls-19{fill:#1e3966;}.cls-20{fill:#f79454;}.cls-21{fill:#7079ba;}.cls-22{fill:#f79134;}.cls-23{fill:#424ea1;}.cls-24{fill:#fff;}.cls-25{fill:#f47421;}.cls-26{fill:#7694cc;}.cls-27{fill:#203c75;}.cls-28{fill:#f3753e;}.cls-29{fill:#f58c7a;}.cls-30{fill:#b5bfe1;}.cls-31{fill:#f47621;}.cls-32{fill:#f5812a;}.cls-33{fill:#6b7bbc;}.cls-34{fill:#a7b1da;}.cls-35{fill:#f18121;}.cls-36{fill:#10294b;}.cls-37{fill:#f79351;}.cls-38{fill:#124d83;}.cls-39{fill:#f89e63;}.cls-40{fill:#1a3763;}.cls-41{fill:#6871b5;}.cls-42{opacity:0.7;}</style></defs><g id="Layer_3" data-name="Layer 3"><rect class="cls-1" width="1920" height="1281"/></g><g id="Layer_1" data-name="Layer 1"><path class="cls-2" d="M1675.85,1013.24c-90.38,0-1406.94.33-1407.7-2l-.13-.3a1.68,1.68,0,0,1-.12-.43C267.39,1009.3,65,678.31,379.62,447.89c123.08-90.16-7.7-149.67,90.17-250C582.28,82.51,705,210.1,830.12,157.8c22.1-9.23,44.27-24.09,66.47-46.89,51.49-52.83,122.13-77.27,195.06-82.75,139.76-10.45,297,48.3,378.21,134.18,16.34,17.29,90.65,106.76,32.08,229.74-37,77.65,118,151.81,173,240.48C1814.92,858,1677.12,1010.31,1675.85,1013.24Z"/><g class="cls-3"><g class="cls-3"><path class="cls-4" d="M680,393.34s-10.25-85.88-54.26-137.13c-5.85-6.81-17-2.47-16.85,6.5,0,.15,0,.3,0,.46C609.48,278.49,658.75,343.11,680,393.34Z"/></g><g class="cls-3"><path class="cls-4" d="M685.36,417.93S641.51,310.59,566.61,263.11a10.2,10.2,0,0,0-13.82,2.62c-2,2.9-2.89,7.43-.65,14.51C558.11,299.12,641.64,362.67,685.36,417.93Z"/></g></g><path class="cls-5" d="M1231.58,390.64s-39.27-24.18-19.25-53.95c0,0,15.79-18.14,32.07-22.3,0,0-10.47,45.2-1.93,46.63s8-51.21,8-51.21,43.18-18.61,59.73-16.32c0,0-28.1,43.4-19.48,42.68s40-44.51,40-44.51,43.75-6.25,49.65,19.77-5.89,38.41-12.38,39.75-47.75-.9-46.9,4.5,28.37,15.14,44.11,11c0,0-18.9,41.63-41.33,38.55s-28.81-17.3-42.7-18.95-24.23,1.69-17.42,5.73,30.5,2.49,41.36,12.52,19.73,16.31-1.35,19.73-58.49-.81-65.32-17.2Z"/><path class="cls-5" d="M1360.18,318.65s-114,31.78-128.6,72c0,0-.22,18.24-12.34,38.68l-.33,8s12.92-26.85,19.51-30.34C1238.42,407,1214.69,370.61,1360.18,318.65Z"/><path class="cls-5" d="M1219.24,429.32s-18.45,25.64-9.88,58.13l4.51-1s-2.87-35.52,7-52.92S1219.24,429.32,1219.24,429.32Z"/><path class="cls-6" d="M1072.7,389.67s-65.94,5.83-68.42-45.62c0,0,2.63-34.41,17.8-53.16,0,0,26.72,61,37.76,55.34s-34.66-65.84-34.66-65.84,33.76-58.46,54.78-70c0,0,4.85,74.06,14.16,65.85s7.84-85.53,7.84-85.53,45-44.69,74.12-19.8,26.16,49.27,19.83,56.39-55.75,39.9-50.14,45.39,45.64-6.9,60.18-25.21c0,0,13.93,64.15-14.52,79.83s-48,4.79-65.42,14.8-26.45,22.71-15.14,21.52,37.25-23.28,58.36-21,36.69,1.87,15.36,23.88-68,49.22-90,36.21Z"/><path class="cls-6" d="M1159.05,196.51S1055,330.91,1072.7,389.67c0,0,15.39,21.2,19,55.12l6.51,9.54s-8.14-42-3.55-51.65C1094.62,402.68,1036.08,381.09,1159.05,196.51Z"/><path class="cls-6" d="M1091.66,444.79s.74,45.34,38.47,75.41l4.33-5s-33.77-38.44-37.38-66.89S1091.66,444.79,1091.66,444.79Z"/><path class="cls-7" d="M453.08,896.57s-18.47-21.54-1.14-35.23c0,0,12.66-7.66,23-7,0,0-14.62,24.53-9.89,27s14.33-28.5,14.33-28.5,28.8-2.79,38.07,1.66c0,0-24.63,20.16-19.44,21.36s31.79-18.58,31.79-18.58,26.81,4.56,25.38,20.91-10.67,21.41-14.73,21-27.81-9.5-28.33-6.17,13.78,14.2,23.79,14.71c0,0-18.9,20.84-31.46,14.83S490.79,906.89,483,903.32s-14.51-3.57-11.28.08,17.4,7.19,21.88,15.11,8.5,13.27-4.5,11.31S454.94,918.36,454,907.46Z"/><path class="cls-7" d="M542,878.55s-72.82-2.8-88.9,18c0,0-3.55,10.66-14.5,20.36l-1.7,4.65s12.61-13.31,17.13-14.12C454,907.46,447,881.66,542,878.55Z"/><path class="cls-7" d="M438.58,916.93S423,928.49,421.86,949.14l2.84.25s5-21.35,14-29.7S438.58,916.93,438.58,916.93Z"/><path class="cls-4" d="M388.51,869.48S417.89,853,404.18,830.7c0,0-11-13.71-22.72-17.24,0,0,6.26,33.3,0,34.08s-4.31-37.61-4.31-37.61-30.95-14.88-43.09-13.71c0,0,19.19,32.52,12.92,31.73s-27.81-33.69-27.81-33.69-31.73-5.87-36.82,12.93,3.13,28.21,7.83,29.38,34.87.78,34.08,4.7-21.15,10.19-32.51,6.66c0,0,12.54,31,29,29.38s21.54-11.75,31.73-12.53,17.63,2,12.53,4.7-22.32.9-30.55,7.89-14.89,11.3.39,14.44S377.54,893,383,881.23Z"/><path class="cls-4" d="M296.84,813.07s82.27,26.64,91.67,56.41c0,0-.39,13.32,7.83,28.59V904s-8.62-20-13.32-22.72C383,881.23,401.43,855.37,296.84,813.07Z"/><path class="cls-4" d="M396.34,898.07s12.69,19.27,5.46,42.72l-3.27-.88s3.17-25.83-3.47-38.82S396.34,898.07,396.34,898.07Z"/><path class="cls-8" d="M435.25,846.79s-38.73-21.69-20.66-51.12c0,0,14.46-18.08,30-22.72,0,0-8.26,43.89,0,44.92s5.68-49.57,5.68-49.57S491,748.68,507,750.23c0,0-25.3,42.85-17,41.82s36.67-44.41,36.67-44.41,41.82-7.74,48.53,17-4.13,37.18-10.32,38.73-46,1-44.93,6.2,27.89,13.42,42.86,8.78c0,0-16.52,40.79-38.21,38.72s-28.4-15.49-41.83-16.52-23.23,2.58-16.52,6.2,29.43,1.18,40.28,10.4,19.62,14.9-.52,19-56.28,1.55-63.51-13.94Z"/><path class="cls-8" d="M556.08,772.43s-108.44,35.11-120.83,74.36c0,0,.51,17.55-10.33,37.69v7.75s11.36-26.34,17.56-30C442.48,862.28,418.21,828.2,556.08,772.43Z"/><path class="cls-8" d="M424.92,884.48s-16.72,25.4-7.19,56.31l4.3-1.16s-4.17-34,4.58-51.17S424.92,884.48,424.92,884.48Z"/><path class="cls-9" d="M433.94,1007.82A75.86,75.86,0,0,0,509.8,932H358.08A75.86,75.86,0,0,0,433.94,1007.82Z"/><path class="cls-9" d="M510.85,1011.68H357a9.36,9.36,0,0,1,9.36-9.36h135.1a9.36,9.36,0,0,1,9.36,9.36Z"/><rect class="cls-10" x="355.59" y="931.96" width="155.94" height="2.33"/><path class="cls-11" d="M951.41,582.84,917.46,986.48s-3.56,24.46,14.64,24.51c29.93.07,148.95,0,148.95,0s-22.52-5.1-22.25-16.55c.32-13.51,39.68-415.42,39.68-415.42Z"/><path class="cls-4" d="M1092.25,1003.65c-5.88,0-121.11.21-150.25-.16-12.7-.16-14.93-11.29-15-18.5a37,37,0,0,1,.38-6l.89-10.49,2.25-26.74,2-23.62L935,887.77l2.15-25.62L961.3,575.33l147.07-3.81s-16.58,168.19-28.3,290.63c-1.31,13.64-2.56,26.72-3.71,38.93q-.55,5.85-1.08,11.42c-1.09,11.58-2.08,22.22-2.94,31.61-.46,4.95-.88,9.55-1.26,13.77-1.5,16.51-2.37,27-2.39,29.06a17.76,17.76,0,0,0,.29,3.27C1071.4,1003.07,1090,1003.65,1092.25,1003.65Z"/><polygon class="cls-4" points="594.25 363.01 676.93 695.16 688.26 740.65 726.77 895.35 1442.27 895.35 1300.32 363.01 594.25 363.01"/><polygon class="cls-11" points="594.24 363.01 582.78 366.83 711.53 906.91 726.77 895.36 594.24 363.01"/><polygon class="cls-12" points="711.53 906.91 1422.64 906.91 1442.27 895.36 726.77 895.36 711.53 906.91"/><rect class="cls-4" x="961.25" y="1003.65" width="153.96" height="7.32" transform="translate(2076.47 2014.62) rotate(180)"/><polygon class="cls-13" points="1076.08 906.91 1075.28 912.5 930.49 941.75 932.47 918.13 933.42 906.91 1076.08 906.91"/><g class="cls-3"><path class="cls-13" d="M1092.25,1003.65c-5.88,0-121.11.21-150.25-.16-12.7-.16-14.93-11.29-15-18.5l144.11-27.11c-1.5,16.51-2.37,27-2.39,29.06a17.76,17.76,0,0,0,.29,3.27C1071.4,1003.07,1090,1003.65,1092.25,1003.65Z"/></g><polygon class="cls-13" points="594.24 363.01 1300.32 363.01 1414.88 790.85 700.75 790.85 594.24 363.01"/><polygon class="cls-14" points="1381.58 772.31 720.48 772.31 696.85 678.2 687.71 641.78 683.99 626.93 659.71 530.22 658.45 525.18 645.61 474.06 639.87 451.18 634.97 431.67 630.98 415.76 623.49 385.93 1275.07 385.93 1283.29 415.76 1287.67 431.67 1293.05 451.18 1299.36 474.06 1340.9 624.76 1340.9 624.76 1344.42 637.53 1346.06 643.46 1374.74 747.49 1381.58 772.31"/><polygon class="cls-15" points="1119.56 755.26 779.41 755.26 760.72 663.66 753.49 634.85 750.54 623.1 731.34 546.59 730.34 542.61 720.19 502.17 715.64 484.07 711.77 468.64 708.61 456.05 702.68 432.46 1035.52 432.46 1119.56 755.26"/><polygon class="cls-13" points="969.01 790.85 727.01 896.6 700.75 790.85 969.01 790.85"/><path class="cls-16" d="M1520.12,557.87c0-1,.77-11.22,16.4-11.76,0,0-7.68.92-9,4.3,0,0,5.23-4.18,9.5-2.83s6.76,8.81,6.79,11.27-2.35,10.37-5,11a8.42,8.42,0,0,1-3.28,0,35.06,35.06,0,0,1,2.1,3.75c6.24,12.8-.19,25.32-5.47,23.94-3.39-.89-4.35,4.89-4.35,4.89l-32.91-26.64S1506.93,550.83,1520.12,557.87Z"/><path class="cls-17" d="M1430.43,718c2.75,2.43,10-5.92,11.06-7a.58.58,0,0,1,.1-.16l-2.22-6.19s-9.58-.37-11.16,1.21S1427.41,715.4,1430.43,718Z"/><path class="cls-18" d="M1508.66,935.15l7,2.6s30.36-42.11,34.1-79.16c.67-6.61-.7-20.63-.18-23.63.24-1.4.53-3.08.87-5,1-5.66,2.35-13.4,3.9-22.21,3.57-20.27,8.2-46.19,11.79-65.25l-1.88-.6-20.38-6.58-4.21-13.37-15.18-4s-3.39,6.63-6.42,38c-.55,4.11-1.06,8.64-1.45,13.55a268.41,268.41,0,0,0,1.45,54.87c.69,5.45,3.58,26.85,3.25,33.47C1519.78,888.08,1508.66,935.15,1508.66,935.15Z"/><path class="cls-19" d="M1516.61,769.45l33,65.51c.24-1.4.53-3.08.87-5,1-5.66,2.35-13.4,3.9-22.21,3.57-20.27,8.2-46.19,11.79-65.25l-1.88-.6-20.38-6.58-4.21-13.37-15.18-4s-3.39,6.63-6.42,38C1517.51,760,1517,764.54,1516.61,769.45Z"/><path class="cls-18" d="M1531.11,726.35l.76-6.54c12.78,3.39,46.93-9.49,46.93-9.49s12.38,10.88,10.75,37c-.79,12.73-2.24,66.84-3.75,82.85-.55,5.8,3.22,20.73,4.73,24.76,14.86,39.59-2.29,88.35-2.29,88.35l-4.45-1.8s-28.14-102.05-31-112.86c-5.48-20.44-9.9-47-12.84-67.55C1539.49,761.06,1531.11,726.35,1531.11,726.35Z"/><path class="cls-17" d="M1521.41,650.45c22,1.21,17.15-31.55,15.81-31.38-2.69-1.4-7.52-8.22-10.31-19.63l-1,.44-15.85,7.45s1.68,5.16,2.93,10.1c1,3.86,1.66,7.59,1.08,8.64-1.25.5-2,.82-2,.82v0C1512,627.32,1515.55,650.13,1521.41,650.45Z"/><path class="cls-20" d="M1510.11,607.33s1.68,5.16,2.93,10.1c9.26-2.59,12.08-12.33,12.92-17.55Z"/><path class="cls-17" d="M1508.16,612.79s22.17-5.13,18.76-18.89-2.84-23.68-17.14-21-15.74,8.63-15.72,13.49S1502.3,613.77,1508.16,612.79Z"/><path class="cls-16" d="M1492.81,578.59c2.39-5,5.19-4.72,7-3.83,10.42-9.64,20.63-1.77,20.63-1.77a27.14,27.14,0,0,0,12.46,13.39s-3.41,3.48-13.28,3.41a16.26,16.26,0,0,1-8.8-3.32,53,53,0,0,0,11.56,8.62c-12.36-2.36-20.65-16.67-21.5-18.19-1,1.55-3,4.84-3.21,7.62-.23,3.77,1.07,11.11-1.1,11.38C1496.52,595.9,1489.24,586.07,1492.81,578.59Z"/><path class="cls-19" d="M1562.38,946.88h35.2s.85-5.36-1-9.43c-1.76-3.91-4.52-5.69-3.86-10.41a12.72,12.72,0,0,1-11,4.2c-.62,1-4,6.42-6.11,7.91C1573.34,940.81,1563.08,940.22,1562.38,946.88Z"/><path class="cls-19" d="M1486.78,946.88H1522s1.32-5.61-1-9.43c-2-3.39-1.27-5.31.25-8.11a13.74,13.74,0,0,1-5.93,1.12,12.45,12.45,0,0,1-5.24-1.84c-1.51,1.72-8,9.08-10,10.53C1497.75,940.81,1487.49,940.22,1486.78,946.88Z"/><path class="cls-13" d="M1579.45,668.73c-1.89-6.14-3.85-12-5.83-17.47a239.58,239.58,0,0,0-9.8-23.81c-4.62-9.51-25.29-8.91-25.29-8.91-4,14.35-14.92,23.29-14.92,23.29-5.84-3.43-10.18-15.47-10.18-15.47l-12.76,6.8h0c-.05,0-4,2.35-7.4,12.25-5.12,14.74-13.43,35.66-19.2,42.06-1.34,1.49-5.28,3.74-10,6.14h0c-.1.15-.18.23-.23.23a46.1,46.1,0,0,0,3.94,7.39c1.82,2.74,4.21,5.51,7,6.94,2.18-1,6.1-2.59,7.76-3.61,6-3.68,15-9,22-20.13l2,26.24,3.53,47.47c5.43,1.69,10.6,3,15.5,4a59,59,0,0,1,1.61-8.74c0,2.49,2.87,7.27,4.6,9.87,45.08,7.22,66.22-12.44,66.22-12.44C1596.14,733.46,1588.55,698.25,1579.45,668.73Z"/><path class="cls-21" d="M1534,615.89s3.75.25,4.55,2.65c0,0-4.89,19.7-14.91,23.29Z"/><path class="cls-21" d="M1523.61,641.83s-9.58-17.28-9.54-19.62c0,0-3.64,3.23-3.4,5.62C1510.67,627.83,1518.73,640.75,1523.61,641.83Z"/><path class="cls-21" d="M1549.28,634.82c-.27.93-19.81,47.64-37.34,64.85-7.67,7.54,16.78,5.36,17,4S1549.28,634.82,1549.28,634.82Z"/><path class="cls-21" d="M1507.05,712.16l1.67,26.35c53.46-12.42,49-97.55,49-97.55l-26.84,55.42-23.56,15.4S1507.2,711.91,1507.05,712.16Z"/><path class="cls-4" d="M1463.72,693.77c0,.05,0,.08.07.08l0-.1C1463.7,693.67,1463.69,693.67,1463.72,693.77Z"/><path class="cls-22" d="M1490.16,657.48l10.64,47.44c1.7,7.56-4,13.68-12.78,13.68H1232.44c-8.75,0-17.22-6.12-18.92-13.68l-10.64-47.44a6.45,6.45,0,0,1-.15-.86c-1.1-7.16,4.51-12.81,12.93-12.81h255.58c8.42,0,16.57,5.65,18.68,12.81C1490,656.91,1490.09,657.19,1490.16,657.48Z"/><polygon class="cls-2" points="1233.01 697.22 1230.5 697.22 1223.88 667.7 1226.39 667.7 1233.01 697.22"/><polygon class="cls-2" points="1250.28 679.88 1232.32 679.88 1230.45 671.53 1248.41 671.53 1250.28 679.88"/><polygon class="cls-2" points="1258.65 691.86 1235.01 691.86 1233.13 683.5 1256.78 683.5 1258.65 691.86"/><polygon class="cls-2" points="1290.46 697.22 1287.96 697.22 1281.33 667.7 1283.84 667.7 1290.46 697.22"/><polygon class="cls-2" points="1294.3 679.88 1276.34 679.88 1274.46 671.53 1292.42 671.53 1294.3 679.88"/><polygon class="cls-2" points="1299.83 691.86 1276.18 691.86 1274.31 683.5 1297.95 683.5 1299.83 691.86"/><polygon class="cls-2" points="1347.92 697.22 1345.41 697.22 1338.79 667.7 1341.3 667.7 1347.92 697.22"/><polygon class="cls-2" points="1338.31 679.88 1320.35 679.88 1318.47 671.53 1336.44 671.53 1338.31 679.88"/><polygon class="cls-2" points="1341 691.86 1317.35 691.86 1315.48 683.5 1339.12 683.5 1341 691.86"/><polygon class="cls-2" points="1384.68 670.09 1355.16 670.09 1354.6 667.58 1384.12 667.58 1384.68 670.09"/><polygon class="cls-2" points="1367.88 672.44 1371.91 690.4 1363.55 690.4 1359.52 672.44 1367.88 672.44"/><polygon class="cls-2" points="1379.85 672.44 1385.15 696.08 1376.8 696.08 1371.5 672.44 1379.85 672.44"/><polygon class="cls-2" points="1431.14 683.71 1401.62 683.71 1401.06 681.2 1430.58 681.2 1431.14 683.71"/><polygon class="cls-2" points="1411.51 673.48 1415.54 691.44 1407.19 691.44 1403.16 673.48 1411.51 673.48"/><polygon class="cls-2" points="1422.85 670.63 1428.15 694.28 1419.8 694.28 1414.49 670.63 1422.85 670.63"/><polygon class="cls-2" points="1477.62 697.44 1448.11 697.44 1447.54 694.93 1477.06 694.93 1477.62 697.44"/><polygon class="cls-2" points="1455.33 674.41 1459.36 692.37 1451.01 692.37 1446.98 674.41 1455.33 674.41"/><polygon class="cls-2" points="1466.03 668.73 1471.33 692.37 1462.98 692.37 1457.67 668.73 1466.03 668.73"/><path class="cls-17" d="M1464.49,714.36c2.91,0,7.5-.22,10.16-1.24,0,0-8.49-.12-6.68-2.8.33-.49,4.55-.12,9.26-.12,1.93,0,6.71,2.65,6.46,2.77,3.41-.45,6.52-1.11,7.52-1.33a1.84,1.84,0,0,0,.37-.1l3,8.78s-.64.16-1.75.37a119.89,119.89,0,0,0-14,4.28,14,14,0,0,1-15.76-3.38c-1.61-1.68-2.88-3.91-2.8-5.53C1460.37,714.28,1462.71,714.37,1464.49,714.36Z"/><path class="cls-17" d="M1485,715l1.85,6.77,6-1.11c1.11-.21,1.75-.37,1.75-.37,3-.58,6.5-1.37,10.36-2.22h.06c6.61-1.59,14-3.49,20.26-5.61l1.64-.59c3.69-1.36-3.44-20.09-6.67-17.77-.85.62-1.77,1.26-2.73,1.92-5.35,3.64-12.17,7.69-18.22,11.1-3,1.69-5.76,3.23-8.09,4.49C1487.45,713.71,1485,715,1485,715Z"/><path class="cls-13" d="M1517.52,696.05s-.39,12.79,11.58,19c13.84-5,21.25-25.63,27-39.81.8-2,1.54-3.92,2.28-5.82a145.5,145.5,0,0,0,6-20.1c.79-3.6-14.6-21.74-16.56-17.46-3,6.82-6.18,15.66-9.15,24.44-1.64,4.82-3.23,9.63-4.81,14.07-.9,2.7-1.8,5.24-2.65,7.56a72.74,72.74,0,0,1-4.44,10.32c-.85,1.48-3.28,3.55-6.51,5.87C1519.4,694.75,1518.48,695.39,1517.52,696.05Z"/><polygon class="cls-23" points="1283.29 415.76 630.98 415.76 623.49 385.93 1275.07 385.93 1283.29 415.76"/><path class="cls-2" d="M664,401.11c.85,2.68-.84,4.86-3.78,4.88a7.48,7.48,0,0,1-6.85-4.8c-.85-2.67.84-4.86,3.77-4.88A7.5,7.5,0,0,1,664,401.11Z"/><path class="cls-2" d="M686,401c.85,2.67-.85,4.86-3.78,4.88a7.5,7.5,0,0,1-6.86-4.8c-.85-2.68.85-4.86,3.78-4.88A7.5,7.5,0,0,1,686,401Z"/><path class="cls-2" d="M708,400.81c.85,2.67-.84,4.86-3.77,4.88a7.5,7.5,0,0,1-6.86-4.81c-.85-2.67.84-4.85,3.78-4.87A7.48,7.48,0,0,1,708,400.81Z"/><path class="cls-22" d="M715.64,484.07s76.79.3,132.46,43,47.66,81,93.86,90.58c75.71,15.73,28.71-65.07,127-56.66l50.58,194.29H779.41L753.49,634.85Z"/><path class="cls-24" d="M959.48,620.38a87.77,87.77,0,0,1-17.66-2.06c-25.5-5.3-34.91-19.6-46.81-37.71-9.86-15-22.14-33.69-47.33-53-15.82-12.13-43.72-28.46-86.83-37.37a254.4,254.4,0,0,0-45.21-5.46v-1.41a256.55,256.55,0,0,1,45.49,5.5c23.93,4.95,58.52,15.49,87.39,37.62,25.38,19.46,37.73,38.25,47.65,53.35,12.18,18.53,21,31.93,45.92,37.11,35.5,7.38,43.53-6.58,52.83-22.73,10.36-18,22.1-38.4,74.11-34l-.12,1.4c-51.13-4.37-62.63,15.61-72.78,33.25-4.7,8.17-9.14,15.89-17,20.66C973.8,618.79,967.39,620.38,959.48,620.38Z"/><path class="cls-25" d="M733.57,555.07l19.52,77.78,26.32,122.41h340.15l-17.15-63.56s-50.35-28.07-118.64-3.6S839.9,690,835,635C829.54,572.93,772.54,543,733.57,555.07Z"/><path class="cls-24" d="M819.51,591.87c-19.55-30.23-55.6-45.43-85.73-36.13l-.41-1.34c30.71-9.48,67.44,6,87.32,36.71Z"/><rect class="cls-24" x="935.69" y="612.11" width="11.11" height="11.11" transform="translate(68.46 -93.46) rotate(5.9)"/><rect class="cls-24" x="946.93" y="523.81" width="1.84" height="190.19" transform="translate(149.13 1421.09) rotate(-78.27)"/><path class="cls-24" d="M851.56,599.24a3.19,3.19,0,1,1,2.85,3.5A3.19,3.19,0,0,1,851.56,599.24Z"/><path class="cls-24" d="M1037.78,637.91a3.19,3.19,0,1,1,2.85,3.5A3.18,3.18,0,0,1,1037.78,637.91Z"/><rect class="cls-24" x="804.86" y="498.51" width="11.11" height="11.11" transform="translate(566.53 -418.64) rotate(43.31)"/><rect class="cls-24" x="808.3" y="458.03" width="1.84" height="89.14" transform="translate(-117.95 721.21) rotate(-45.11)"/><path class="cls-24" d="M775.16,469.13a3.19,3.19,0,1,1,.47,4.49A3.19,3.19,0,0,1,775.16,469.13Z"/><path class="cls-24" d="M838.32,532a3.19,3.19,0,1,1,.46,4.48A3.18,3.18,0,0,1,838.32,532Z"/><rect class="cls-24" x="1017.82" y="560.48" width="11.11" height="11.11" transform="translate(102.42 1286.84) rotate(-67)"/><rect class="cls-24" x="995.15" y="564.99" width="56.85" height="1.84" transform="translate(82.97 1261.06) rotate(-65.4)"/><path class="cls-24" d="M1010.73,594.79a3.19,3.19,0,1,1,4-2A3.2,3.2,0,0,1,1010.73,594.79Z"/><path class="cls-24" d="M1034.38,543.09a3.19,3.19,0,1,1,4-2A3.2,3.2,0,0,1,1034.38,543.09Z"/><path class="cls-8" d="M1080.55,450.38l17.28,71.46c.74,3-2.14,5.53-6.44,5.53H913.56c-4.3,0-8.39-2.48-9.13-5.53l-17.29-71.46c-.74-3.05,2.15-5.53,6.45-5.53h177.83C1075.72,444.85,1079.81,447.33,1080.55,450.38Z"/><polygon class="cls-18" points="932.22 492.18 913.29 492.18 908.72 473.25 927.64 473.25 932.22 492.18"/><polygon class="cls-18" points="943.97 501.64 925.05 501.64 920.47 482.72 939.39 482.72 943.97 501.64"/><polygon class="cls-18" points="976.41 492.18 957.48 492.18 952.9 473.25 971.83 473.25 976.41 492.18"/><polygon class="cls-26" points="988.16 501.64 969.23 501.64 964.65 482.72 983.58 482.72 988.16 501.64"/><path class="cls-27" d="M989.16,502.45H968.62l-5-20.54h20.54Zm-19.31-1.61h17.31L983,483.53H965.66Z"/><polygon class="cls-26" points="1020.59 492.18 1001.67 492.18 997.09 473.25 1016.01 473.25 1020.59 492.18"/><path class="cls-18" d="M1021.6,493h-20.55l-5-20.54h20.55Zm-19.32-1.62h17.31l-4.19-17.31H998.09Z"/><polygon class="cls-26" points="1032.35 501.64 1013.42 501.64 1008.84 482.72 1027.77 482.72 1032.35 501.64"/><path class="cls-18" d="M1033.35,502.45h-20.54l-5-20.54h20.54ZM1014,500.84h17.31l-4.19-17.31h-17.31Z"/><polygon class="cls-18" points="1021.59 492.95 1010.45 492.95 1007.77 481.9 1018.92 481.9 1021.59 492.95"/><polygon class="cls-18" points="1064.78 492.18 1045.85 492.18 1041.27 473.25 1060.2 473.25 1064.78 492.18"/><polygon class="cls-18" points="1076.53 501.64 1057.61 501.64 1053.03 482.72 1071.95 482.72 1076.53 501.64"/><polygon class="cls-26" points="1064.24 491.72 1055.57 491.72 1053.49 483.13 1062.16 483.13 1064.24 491.72"/><path class="cls-23" d="M588.55,676H523c-8.74,0-17.39-7.08-19.33-15.82L454.37,437.57c-1.93-8.74,3.58-15.83,12.32-15.83h65.54c8.74,0,17.39,7.09,19.33,15.83l49.3,222.62C602.8,668.93,597.28,676,588.55,676Z"/><rect class="cls-4" x="462" y="471.8" width="97.18" height="0.42"/><rect class="cls-4" x="473.62" y="524.26" width="97.18" height="0.42"/><rect class="cls-4" x="485.24" y="576.72" width="97.18" height="0.42"/><path class="cls-24" d="M521.45,456.33c.13-1.12-4.9-20.42-4.9-20.42l17.82,14.43-8.75-.32Z"/><path class="cls-8" d="M575.14,653.2H540.62L533,618.74h34.52Zm-33-1.91h30.58L566,620.66H535.38Z"/><polygon class="cls-28" points="550.34 633.61 517.79 633.61 510.58 601.05 543.13 601.05 550.34 633.61"/><rect class="cls-28" x="533.44" y="634.58" width="41.25" height="2.78" transform="translate(-288.13 682.47) rotate(-52.1)"/><path class="cls-8" d="M477.63,456.33c.13-1.12-4.9-20.42-4.9-20.42l17.82,14.43L481.8,450Z"/><polygon class="cls-8" points="484.53 494.57 481.91 494.57 480.87 489.89 498.68 489.89 499.67 494.39 497.05 494.39 496.63 492.51 484.08 492.51 484.53 494.57"/><polygon class="cls-8" points="494.65 506 492.03 506 488.75 491.2 491.38 491.2 494.65 506"/><polygon class="cls-8" points="497.02 506.94 490.08 506.94 489.5 504.32 496.44 504.32 497.02 506.94"/><polygon class="cls-8" points="532.52 508.58 530.15 506.87 542.66 487.19 545.03 488.9 532.52 508.58"/><path class="cls-8" d="M502.47,554.43a12,12,0,0,1-11.09-9.08c-1.11-5,2.06-9.08,7.07-9.08a12,12,0,0,1,11.09,9.08C510.65,550.36,507.48,554.43,502.47,554.43ZM499,538.67c-3.69,0-6,3-5.21,6.68a8.82,8.82,0,0,0,8.17,6.68c3.68,0,6-3,5.2-6.68A8.83,8.83,0,0,0,499,538.67Z"/><path class="cls-8" d="M519.75,562.32a1.52,1.52,0,0,1-1-.37l-12.07-10.17a1.25,1.25,0,0,1-.35-1.69,1.21,1.21,0,0,1,1.71,0l12.07,10.16a1.26,1.26,0,0,1,.35,1.7A1,1,0,0,1,519.75,562.32Z"/><polygon class="cls-8" points="545.91 535.44 550.4 543.66 559.05 543.66 553.18 548.75 557.67 556.97 549.55 551.89 543.68 556.97 544.53 548.75 536.41 543.66 545.06 543.66 545.91 535.44"/><path class="cls-29" d="M1381.37,463.42s.24,13-1.71,12.72-4.58-10.86-4.6-10.71.88,11.18-1.57,11.73-4.93-11.66-4.93-11.66,1.65,10.48-.08,10.76-4.42-9.89-5.13-9.92,2.28,8.72.18,9.16-6.77-11.85-5.18-13.42,4.05.11,4.05.11,3-2.26,5.39-1c0,0,5.48-1.09,7.13,1.34A4.33,4.33,0,0,1,1381.37,463.42Z"/><path class="cls-8" d="M1416.75,413.77l44.47,160.35c1.91,6.86-2.43,12.42-9.69,12.42H1151.35c-7.25,0-14.68-5.56-16.58-12.42L1090.3,413.77c-1.91-6.87,2.43-12.43,9.69-12.43h300.18C1407.42,401.34,1414.85,406.9,1416.75,413.77Z"/><polygon class="cls-30" points="1183.31 486.11 1144.54 486.11 1133.79 447.34 1172.55 447.34 1183.31 486.11"/><polygon class="cls-14" points="1171.18 476.62 1151.4 476.62 1145.91 456.84 1165.69 456.84 1171.18 476.62"/><rect class="cls-28" x="1134.63" y="465.2" width="47.83" height="3.04" transform="translate(101.74 1132.47) rotate(-54.15)"/><polygon class="cls-28" points="1155.71 465.1 1116.95 465.1 1106.19 426.33 1144.96 426.33 1155.71 465.1"/><polygon class="cls-28" points="1177.73 531.85 1146.57 531.85 1137.93 500.69 1169.09 500.69 1177.73 531.85"/><polygon class="cls-31" points="1208.61 531.85 1177.45 531.85 1168.8 500.69 1199.97 500.69 1208.61 531.85"/><polygon class="cls-32" points="1239.78 531.85 1208.61 531.85 1199.97 500.69 1231.13 500.69 1239.78 531.85"/><polygon class="cls-26" points="1270.95 531.85 1239.78 531.85 1231.13 500.69 1262.3 500.69 1270.95 531.85"/><polygon class="cls-13" points="1302.11 531.85 1270.95 531.85 1262.3 500.69 1293.47 500.69 1302.11 531.85"/><polygon class="cls-33" points="1333.28 531.85 1302.11 531.85 1293.47 500.69 1324.63 500.69 1333.28 531.85"/><polygon class="cls-14" points="1364.44 531.85 1333.28 531.85 1324.63 500.69 1355.8 500.69 1364.44 531.85"/><polygon class="cls-18" points="1395.61 531.85 1364.44 531.85 1355.8 500.69 1386.97 500.69 1395.61 531.85"/><polygon class="cls-34" points="1186.38 563.02 1155.21 563.02 1146.57 531.85 1177.73 531.85 1186.38 563.02"/><polygon class="cls-13" points="1217.26 563.02 1186.09 563.02 1177.45 531.85 1208.61 531.85 1217.26 563.02"/><polygon class="cls-14" points="1248.42 563.02 1217.26 563.02 1208.61 531.85 1239.78 531.85 1248.42 563.02"/><polygon class="cls-18" points="1279.59 563.02 1248.42 563.02 1239.78 531.85 1270.95 531.85 1279.59 563.02"/><path class="cls-32" d="M1397.14,439.7H1233.88a5.81,5.81,0,0,1-5.21-4.08h0a3,3,0,0,1,2.95-4.08h163.26a5.8,5.8,0,0,1,5.21,4.08h0A3,3,0,0,1,1397.14,439.7Z"/><path class="cls-26" d="M1402.85,460.3H1239.6a5.79,5.79,0,0,1-5.21-4.08h0a3,3,0,0,1,2.94-4.08h163.26a5.8,5.8,0,0,1,5.21,4.08h0A3,3,0,0,1,1402.85,460.3Z"/><path class="cls-14" d="M1408.57,480.9H1245.31a5.8,5.8,0,0,1-5.21-4.08h0a3,3,0,0,1,3-4.08H1406.3a5.78,5.78,0,0,1,5.21,4.08h0A3,3,0,0,1,1408.57,480.9Z"/><path class="cls-14" d="M1206.13,429.62H1211a4.93,4.93,0,0,1,5.07,3.51,2.43,2.43,0,0,1-1.7,3.34l4.13,4.18h-2.28l-3.81-3.84h-2.39l1.06,3.84h-1.93Zm6.29,5.47c1.38,0,2.06-.73,1.75-1.88a2.62,2.62,0,0,0-2.8-1.82h-2.82l1,3.7Z"/><path class="cls-14" d="M1211.8,456c-.86-3.09.78-5.71,4.1-5.71a7.61,7.61,0,0,1,4.65,1.5l-.82,1.46a5.61,5.61,0,0,0-3.41-1.18c-2,0-3.09,1.78-2.49,3.93a5.19,5.19,0,0,0,4.84,3.93,3.55,3.55,0,0,0,2.43-.83l-.57-2.06h-2.82l-.47-1.69h4.7l1.28,4.63a5.33,5.33,0,0,1-4.12,1.72A7.71,7.71,0,0,1,1211.8,456Z"/><path class="cls-14" d="M1218,472.28h5a5.06,5.06,0,0,1,3.15,1,3.54,3.54,0,0,1,1.26,1.86,2,2,0,0,1-.9,2.46,3.88,3.88,0,0,1,2.94,2.71c.55,2-.78,3-3.24,3H1221Zm5.84,4.65c1.25,0,1.94-.49,1.66-1.53a2.18,2.18,0,0,0-2.33-1.4h-2.79l.81,2.93Zm1.86,4.66c1.32,0,2-.52,1.7-1.54s-1.15-1.48-2.68-1.48h-3.07l.84,3Z"/><path class="cls-17" d="M794.6,433.24a3.05,3.05,0,0,0-.55,3.28v0c.79,2.18,3.4,4.62,6.44,7.06.39.32.73.6,1,.87l.24.2.18.16c2.83,2.62,1.76,3.21,6.85,8.51,5.8,6,9.79,6.14,10.93,5.59,1-.46-1-3.67-3.16-7.26l-.31-.53c-.29-.48-.58-1-.86-1.44-2.54-4.33-1.89-6.36-1.28-12.81.48-5.24,8.14-29.26,8.14-29.26l-11.11-1.91s-3.35,19.13-7,22.07c-2,1.57-4.18,1.59-6.08,2.75l-.39.25A14.66,14.66,0,0,0,794.6,433.24Z"/><path class="cls-19" d="M794.6,433.24a3.05,3.05,0,0,0-.55,3.28v0c1,2.18,3.52,4.61,6.45,7,.38.32.72.61,1,.89l.24.2.18.16c2.83,2.62,1.76,3.21,6.85,8.51,5.8,6,9.79,6.14,10.93,5.59,1-.46-1-3.67-3.16-7.26a24.92,24.92,0,0,1-10.34-7.62c-3.36-4.3-5.65-9.77-7.94-13.13l-.65-.13A14.66,14.66,0,0,0,794.6,433.24Z"/><path class="cls-17" d="M884.24,426.3c.68,3.43,5.58,2.85,11,1.52s4.17.25,11.94-.61,10.14-3.76,10.38-4.92-3.64-1.39-7.76-1.86l-1.56-.19c-4.65-.58-8.06-3.58-12.29-6.05-4-2.34-10-11.85-10-11.85l-10.66.84s5.59,8.5,7.76,12.2c1.27,2.17,1.2,5.05,1,7.27A13.14,13.14,0,0,0,884.24,426.3Z"/><path class="cls-19" d="M895.28,427.82c5.47-1.34,4.17.25,11.94-.61s10.14-3.76,10.38-4.92-3.64-1.39-7.76-1.86l0,.08A21.85,21.85,0,0,1,898.67,424c-5.28.13-10.87-1.38-14.51-1.32a13.14,13.14,0,0,0,.08,3.65C884.92,429.73,889.82,429.15,895.28,427.82Z"/><path class="cls-35" d="M843.36,358.09l-10,26.83-13,35a21,21,0,0,1-6.91-.64,30,30,0,0,1-6.69-3.25s3.61-37.62,10.36-59.21c1.72-5.54,3.66-10,5.8-12.55C833.38,332,843.36,358.09,843.36,358.09Z"/><path class="cls-22" d="M833.22,315.48c-5.67-1.83-20.48,0-36.55,2.88a10.9,10.9,0,0,1-11.25-5.08h0L745,310.12s-13.34,29.58-6,48.43c1.08,2.77,3.43,4.5,7.07,4.56h0l32.24,0c20.1,0,42.55-13.82,45.45-14.4,4.75-.95,6.65,8.55,11.4,18.53s44.67,44.19,44.67,44.19,6.14.06,8.67-.89a8.54,8.54,0,0,0,3.73-2.35S848,320.23,833.22,315.48Z"/><path class="cls-36" d="M781.13,194.57a14.32,14.32,0,0,0-7.72-2,21.12,21.12,0,0,1-3.73-.23c-15.43-2.26-24.72,20.15-25.26,26.92-1,12.44-7.58,14.33-16.84,22.12-18.56,15.61-13.12,33.75-3,40.49,6.09,4,16.83,0,16.83,0s29.35-16.33,43.75-24.25C806.77,254.54,789.8,199.73,781.13,194.57Z"/><path class="cls-17" d="M773.12,250.86c.06,0-7.08,2.48-11.86.36-4.5-2-7.9-9.38-7.83-9.38,2-.1,4.29-1.88,6-13.61l.87.31L775,233.81s-1.06,4.69-1.75,9.17C772.63,246.73,772.32,250.33,773.12,250.86Z"/><path class="cls-37" d="M775,233.81s-.59,2.53-1.44,7.27c-8.41-1.52-12-8-13.2-12.54Z"/><path class="cls-17" d="M777.14,238.47s-20-2.69-18.17-15.14.54-21.18,13.41-20,14.63,6.31,15,10.62S782.4,238.85,777.14,238.47Z"/><path class="cls-36" d="M786.67,207.14s-12.82,11.05-21.54,11.94-12-1.91-12-1.91A34.14,34.14,0,0,0,761.34,206a6.12,6.12,0,0,1,5-3.61C772.62,201.86,784.43,201.61,786.67,207.14Z"/><path class="cls-36" d="M778.66,206.15s4.29,4.14,5.64,7.22,1.69,10.07.65,12.89c0,0,6.69-13,2.9-19.31C783.84,200.25,778.66,206.15,778.66,206.15Z"/><path class="cls-13" d="M790,280.37c-.61,40.55-.17,32.07-4.6,35.92-1.07.93-4.08,1.48-8,1.74-12.43.83-34.29-1.22-35.12-3.52-2.87-7.95-.85-10.42-3.24-22.59-.25-1.3-.56-2.7-.92-4.22-2-8.36-3.94-11.21,3.14-24.64,6.42-12.17,13.09-22,13.69-21.68,16.93,10.05,18.3,1.6,18.3,1.6S790.29,260.59,790,280.37Z"/><path class="cls-22" d="M833.39,384.92l-13,35a21,21,0,0,1-6.91-.64,30,30,0,0,1-6.69-3.25s3.61-37.62,10.36-59.21Z"/><path class="cls-13" d="M773.21,243s17.42,3,19.47,10.45,8.78,53,8.78,53-4.91,4.8-9,.71-12.88-42.61-12.88-42.61Z"/><path class="cls-21" d="M777.36,318c-12.43.83-34.29-1.22-35.12-3.52-2.87-7.95-.85-10.42-3.24-22.59L745,275s-1,18.81,4.55,23.75,22.71,9.55,25.4,13.68A15.2,15.2,0,0,1,777.36,318Z"/><path class="cls-17" d="M763.11,310.12s12.27-2.73,14.25-1.64,6.82,5,7.42,6.43-4.4-1.05-6-1.48c-1-.29-3.83.68-5.21,1.14-5.78,1.93-9.33.94-9.33.94Z"/><path class="cls-13" d="M754.9,241.37s-16.47,1-22.17,9c-8,11.2-24,58.91-14.83,65.27,10.28,7.17,46.77,1.87,46.77,1.87s1.22-5.67-.47-8.42-29.15-7.18-30.42-8.45,15.84-24.71,15.84-28.51S754.9,241.37,754.9,241.37Z"/><path class="cls-17" d="M778,311.89s2.57,3.32,3.42,3.71a2.47,2.47,0,0,0,1.38.3L781,312.78Z"/><path class="cls-17" d="M777.36,308.48l7.47,3.63a1.34,1.34,0,0,1-1.24.48,18.51,18.51,0,0,1-3.24-.89Z"/><polygon class="cls-36" points="841.17 317.01 763.11 317.01 763.11 318.73 840.48 318.73 841.17 317.01"/><polygon class="cls-36" points="781.37 318.73 840.48 318.73 858.26 274.51 799.24 274.51 781.37 318.73"/><path class="cls-2" d="M825.56,296.62a2.05,2.05,0,0,0-2-2.81,4,4,0,0,0-3.62,2.81,2,2,0,0,0,2,2.82A4,4,0,0,0,825.56,296.62Z"/><rect class="cls-24" x="816.08" y="590.33" width="8.04" height="8.04" transform="translate(591.57 -392.36) rotate(41.03)"/><path class="cls-35" d="M742.17,695.85c-1.21-4-1.81-4.38-1.81-4.38s-37.58,4.68-44,4.27c-3.78-.24-48.92-15.3-48.92-15.3l-27.4,26.29s68,11.19,77.54,10.46c15.83-1.21,40-15.19,40-15.19S743.12,699,742.17,695.85Z"/><path class="cls-38" d="M639.45,995.86s.53,12.73,3,15.83l34,.2c-.24-1.32-.38-4.35-5.08-5.18a22.82,22.82,0,0,1-16.53-13C651,985.41,639.45,995.86,639.45,995.86Z"/><path class="cls-38" d="M572.69,994s-2.38,16.92.84,17.22c.43,0,13.71.25,19.47.35,6.76.11,17.87-.13,17.87-.13a1.76,1.76,0,0,0,1.6-2.66,7.14,7.14,0,0,0-5.11-3.28c-5.92-1.14-15.79-5.49-19.26-13.41C584.46,983.78,572.69,994,572.69,994Z"/><path class="cls-21" d="M657.14,820.64s-9.46,33.1-36.57,90.58-28.29,85.19-28.29,85.19a23.83,23.83,0,0,1-9.55.87,25.61,25.61,0,0,1-10-3.26s1.75-68.42,14.56-97.43S602.67,788.2,602.67,788.2Z"/><path class="cls-13" d="M672.33,792.16a825.77,825.77,0,0,1-8.12,114.19c-8.87,62.93-4.72,92.2-4.72,92.2s-2.35,1.71-9.58,1.68c-8.46,0-12.8-3.53-12.8-3.53s-12.69-63-9.05-94.46-17.39-108.09-17.39-108.09Z"/><path class="cls-17" d="M651.73,664.39c-.09,4-.62,8.4-2.23,10.54l-9,4.74-10-7.42s3.66-8.13,2.77-20c-.09-.71-.45-5.27-.45-5.36l5,2.5,13.58,6.79a2.88,2.88,0,0,0,.09.63C651.55,658.13,651.73,661.08,651.73,664.39Z"/><path class="cls-22" d="M601.72,798.49c3.28,15,73.38,8.4,72.47-.74,0-.31-.22-4.54-.47-10.25-.53-12.34-1.34-31.62-1.45-33.13,0,0,0,0,0-.08-1.26-12.73-2.47-25.19-2.55-33.32a115.49,115.49,0,0,0-2.33-20.82c-1.2-6-2.66-11.53-3.93-15.81a17.46,17.46,0,0,0-10.24-11.22,15.64,15.64,0,0,0-1.7-.6c-8.25-2.39-16.57-5.44-19.66-4.53-8.38,2.46-17.71,17.3-22.11,36.11C601.49,739.29,599.58,788.72,601.72,798.49Z"/><path class="cls-39" d="M651.73,664.39c-5.09-2.06-14.83-6.71-17.52-12-1.16-2.32.63-3,3.58-3l13.58,6.79a2.88,2.88,0,0,0,.09.63C651.55,658.13,651.73,661.08,651.73,664.39Z"/><path class="cls-17" d="M657.91,655.33s-24.39,7.61-28.9-7.66-10.69-24.56,4.7-30.07,20.14-.57,22.89,4.16S664.14,653,657.91,655.33Z"/><path class="cls-40" d="M655.64,620.29s-1.56,17.76-5.23,17-7-1.34-6.47,4,.71,11.79-10.61,12.74-22.68-28.5-19.57-34C622.74,604.05,668.61,600.83,655.64,620.29Z"/><path class="cls-35" d="M673.72,787.5c-.53-12.34-1.34-31.62-1.45-33.13,0,0,0,0,0-.08l-41.41-24.76S629.25,787.34,673.72,787.5Z"/><path class="cls-40" d="M816.6,591.24l7.46,6.49s-12.79,13.7-11.6,28.11L793.36,642,777.55,628.2l13.22-21.94S805,605.75,816.6,591.24Z"/><path class="cls-24" d="M797.19,614.67a4.25,4.25,0,1,1,.42,6A4.24,4.24,0,0,1,797.19,614.67Z"/><rect class="cls-24" x="808.28" y="590.28" width="1.62" height="34.36" transform="translate(597.62 -381.94) rotate(41.04)"/><rect class="cls-41" x="773.24" y="634.44" width="20.97" height="5.27" transform="translate(610.66 -357.98) rotate(41.03)"/><path class="cls-40" d="M616.85,829.63l-.76-.67a10,10,0,0,1-1-14.08l159-182.7,15.82,13.76-159,182.71A10,10,0,0,1,616.85,829.63Z"/><path class="cls-17" d="M706.31,735.16s3.06-2.72,3.77-4.59a6.36,6.36,0,0,1,5.88-3.33c3.25.24,9-6.68,9-6.68.84,1.83,3.74,8.69-.41,12.16-3.38,2.84-11.52,7.75-16.46,11C702.81,747.17,706.31,735.16,706.31,735.16Z"/><path class="cls-22" d="M706.72,734.15s-41.08,7-44.72,5.21c-5.81-2.83,2.25-44.51,2.25-44.51s.35-9.45-10.69-11.68c-9.58-1.93-18.84,5.25-18.84,5.25s-8.41,7.53-7.33,15.88c2.38,18.51,6.08,56.15,18.46,61.92,16,7.45,62.18-20.64,62.18-20.64a8.12,8.12,0,0,0,1.32-5.38C709.15,737.12,706.72,734.15,706.72,734.15Z"/><path class="cls-17" d="M743.89,698.83s10.37-3.77,9.45-9.08-4.14-4.63-6.09-2.8S746.38,698.16,743.89,698.83Z"/><path class="cls-17" d="M709.37,732.44s1.41-4.15,2.92-5.93,2.15-4.8,2.83-3.8-.54,4.62,0,6S709.37,732.44,709.37,732.44Z"/><rect class="cls-4" x="1442.27" y="946.88" width="185.75" height="64.52"/><rect class="cls-19" x="169.85" y="1010.97" width="1580.29" height="4.55" rx="2.28"/></g><g id="Layer_2" data-name="Layer 2"><rect class="cls-42" width="1920" height="1281"/></g></svg>