<svg id="Layer_1" data-name="Layer 1" xmlns="http://www.w3.org/2000/svg" viewBox="0 0 1920 1277"><defs><style>.cls-1{fill:#9e849b;}.cls-2{fill:#e9f3fa;}.cls-3{fill:#a5caeb;}.cls-4{fill:#9cd198;}.cls-5,.cls-8{fill:#f26a21;}.cls-6{fill:#f89748;}.cls-7{fill:#f9a24e;}.cls-8{opacity:0.4;}.cls-9{fill:#599ad3;}.cls-10{fill:#e7f3fc;}.cls-11{fill:#a7cbec;}.cls-12{fill:#f8a16e;}.cls-13{fill:#f68734;}.cls-14{fill:#16365f;}.cls-15{fill:#144a88;}.cls-16{fill:#faae80;}.cls-17{fill:#428dcb;}.cls-18{fill:#d34b40;}.cls-19{fill:#fbbc90;}.cls-20{fill:#fee4d4;}.cls-21{fill:#3b74ba;}.cls-22{fill:#18488d;}.cls-23{fill:#6b97cf;}.cls-24{fill:#f79258;}.cls-25{fill:#5abfcf;}.cls-26{fill:#319baa;}.cls-27{fill:#d34c40;}.cls-28{fill:#fcb53f;}.cls-29{fill:#fff;}.cls-30{fill:#c5dff5;}.cls-31{fill:#1d2f50;}.cls-32{opacity:0.8;}</style></defs><rect class="cls-1" width="1920" height="1277"/><path class="cls-2" d="M1401.46,1008.43s148.73,14.46,193.27-74.38c64.75-129.15-63.84-230.64-159.24-212.11-207.88,40.38-157.82-405.09-491.44-314.17C850.25,433.33,596.79,281.47,526.1,525c-16.81,57.9-76.36,64.28-162.82,101-169.2,71.9-91.83,383.66,29.07,384.88S1401.46,1008.43,1401.46,1008.43Z"/><path class="cls-3" d="M941.06,525.46l-14.92-.34c4.8,6.21,5.87,11.93,2.89,16.78s-10.13,9-20.79,12.08a192.84,192.84,0,0,0-255.6-244.93c-2.83,1.22-5.67,2.49-8.41,3.81h0c-8.28-2.52-16.35-4.6-24.14-6.18-39.32-8-67.22-2.46-78.55,15.53-10.79,17.11-4.92,42.87,16.49,72.91h0c-2.89,5.33-5.48,10.81-7.88,16.49-1.81,4.25-3.42,8.51-4.89,12.86-40.21,2.4-61.73,9.48-69.56,22.29-9.1,14.92,3.32,35,43.1,54.42,5.47,2.69,11.34,5.33,17.51,8a188.36,188.36,0,0,0,13.84,52.44,192.74,192.74,0,0,0,354.31,1.81C924,559.36,937,553,942.09,544.59,945.66,538.76,945.22,532.31,941.06,525.46ZM895,557c-13.06,2.35-29.35,3.72-48.38,3.91-29.53.36-63.44-2-99.17-6.68q4.5-9.81,8.83-20.15a272.41,272.41,0,0,0,32.11,8.73,162.51,162.51,0,0,0,32.07,3.57c22.45,0,38.54-6.48,46.48-19.1a33,33,0,0,0,3.2-6.6H858.72c-.19.35-.39.69-.6,1-5.9,9.36-19.09,14.2-37.6,14.2a152.72,152.72,0,0,1-30-3.36,262.68,262.68,0,0,1-30.23-8.17q4.14-10.35,8-21.06c7-19.23,13-38.3,17.78-56.61a487.07,487.07,0,0,0,70.77,4.87q23.45,0,48.59-1.89a182.93,182.93,0,0,1,3.74,36.92A180.42,180.42,0,0,1,895,557ZM656.59,652.54c-5.57-2-8.39-10-9.78-16.36-2.2-10-2.6-24.12-1.15-40.74.73-8.4,1.9-17.34,3.49-26.69a496.35,496.35,0,0,1,67.41,23.32c-5,8.55-10,16.47-15,23.65-9.55,13.69-18.88,24.25-27,30.54C669.45,650.24,662.16,654.55,656.59,652.54Zm65-69.41A505.28,505.28,0,0,0,651,558.67q1.26-6.51,2.77-13.23,10,2.26,20.22,4.38c20,4.09,39.92,7.56,59.43,10.36Q727.6,572.18,721.6,583.13Zm-43.23-40.55q-11.58-2.39-22.8-5c3.52-14.65,7.84-29.92,12.89-45.48,26.24,16.13,52.93,29.26,78.2,38.57q-4.75,11.35-9.75,22.09C717.71,550,698.08,546.62,678.37,542.58ZM614.28,344.86a117.83,117.83,0,0,0,7.1,12.48c13.26,20.51,30.78,35.37,43.15,44.23a210.44,210.44,0,0,0,22.7,14.13c-7.33,16-14.31,33-20.73,50.71q-1.79,4.95-3.49,9.88c-38.34-25-70.8-53.59-92.09-81.3h0a181.59,181.59,0,0,1,18.29-25.76q4.24-5,8.85-9.69l1.27-1.27A183.55,183.55,0,0,1,614.28,344.86Zm163.93-27.65c5.56,2,8.39,10,9.78,16.35,2.2,10,2.59,24.12,1.15,40.74-1.58,18.2-5.23,38.86-10.65,60.87q-9.82-1.69-19.17-3.84a274.89,274.89,0,0,1-58.66-20.22c10.45-21.8,21.51-41.24,32.56-57.09,9.54-13.68,18.88-24.24,27-30.53,4.23-3.28,9.93-6.79,14.92-6.79A8.84,8.84,0,0,1,778.21,317.21ZM756.33,441.12q9.57,2.22,19.62,4c-4.7,17.71-10.5,36.15-17.25,54.77q-3.9,10.77-8.07,21.17c-25.37-9.32-52.3-22.64-78.77-39.09q2.05-6,4.24-12c6.27-17.3,13.08-33.95,20.22-49.54A285.28,285.28,0,0,0,756.33,441.12ZM856,358.26a181,181,0,0,1,47,81.37c-41.84,3.06-80.18,2.1-114.45-2.86,5.44-22.22,9.1-43.12,10.71-61.58,1.77-20.39,1.56-44.54-6.71-58.13,1.92.74,3.82,1.5,5.72,2.31A180.39,180.39,0,0,1,856,358.26ZM727.68,305.08a181.81,181.81,0,0,1,37,3.78c-14.26,6.21-28.81,23.48-39.86,39.32-11.31,16.21-22.61,36.05-33.27,58.26a199.87,199.87,0,0,1-20.4-12.67c-30.34-21.52-43.7-44.72-48.56-55.21a181.86,181.86,0,0,1,23.44-14.14h0q5-2.52,10.18-4.73l.75-.32.17-.08,2.22-.91.59-.24A180.46,180.46,0,0,1,727.68,305.08ZM550.36,327.8c5.9-9.37,19.09-14.2,37.6-14.2A152.65,152.65,0,0,1,618,317q6.32,1.28,12.87,3h0a189.77,189.77,0,0,0-39.46,30.42c-2.5,2.45-4.89,5-7.24,7.63-2.94,3.23-5.72,6.61-8.42,10a195.56,195.56,0,0,0-11.93,17.07v0C547.44,360.83,542.52,340.24,550.36,327.8Zm10,88.18c1.62-3.72,3.28-7.39,5.09-11h0c22.42,28,55.46,56.67,94.07,81.52-5.47,16.66-10.14,33-13.91,48.73a742.5,742.5,0,0,1-76.94-22.72c-4.79-1.71-9.44-3.47-13.89-5.23-2.64-1-5.24-2.1-7.78-3.18-.39-3.91-.69-7.88-.78-11.84,0-1.91-.1-3.76-.1-5.67,0-2.2.05-4.45.1-6.65a183.43,183.43,0,0,1,8.31-48.14c.83-2.64,1.72-5.23,2.69-7.83S559.26,418.62,560.38,416Zm-32.72,79.44c-34.68-16.92-50.53-33.26-43.44-44.85,5.72-9.4,26.56-15.76,58.46-18.1a186.87,186.87,0,0,0-7.24,40.7c-.3,4.1-.44,8.21-.49,12.37v1.08c0,4.16.14,8.31.39,12.42C532.7,497.87,530.15,496.65,527.66,495.42ZM554,516.21c4.69,1.76,9.49,3.53,14.43,5.24,22.71,7.87,48.17,15.18,75.4,21.67q-1.48,6.61-2.74,13-3.33-.81-6.68-1.57c-37.65-8.57-65.9-10.31-79-10.61a177.83,177.83,0,0,1-7.14-30Zm6.4,41c-.4-1-.8-2-1.19-2.92,14,.56,39.86,2.67,72.94,10.2,2.36.54,4.73,1.11,7.09,1.68-1.7,9.93-3,19.42-3.73,28.34-1.47,16.89-1.57,36.37,3.13,50.28a182.51,182.51,0,0,1-78.24-87.58Zm237.94,96.61a182.2,182.2,0,0,1-125.68,5.79c13.43-7,26.92-23.2,37.31-38.1,5.36-7.68,10.72-16.18,16-25.35a513,513,0,0,1,87.32,50.51Q806,650.62,798.32,653.87ZM856,615a180.69,180.69,0,0,1-33,26.17,523.41,523.41,0,0,0-92-53.88c4.43-8.11,8.79-16.68,13-25.62a784.11,784.11,0,0,0,83.66,6.86c6.75.19,13.31.19,19.67.14a349.16,349.16,0,0,0,43.73-2.93A180.52,180.52,0,0,1,856,615Z"/><path class="cls-4" d="M1330.25,958.58c-4.11-15.94-31.9-3.59-54.79,9.79-1.06-1.69-2.17-3.36-3.31-5,16.39-10.17,39.39-27.07,30.64-37.35s-25.56,12.84-36.13,29.81c-28.33-36.77-70.34-62.93-70.34-62.93s175.31-145.66,44.31-222.51-230.52,193.54-230.52,193.54-89.52-82.89-175-52.27C747.35,843.08,802.2,901.35,726,917.1c-9-34.36-25.57-82.82-48.25-85.66-30-3.75-17.35,33.74,28.17,88.52-8.82.79-18.88,1.2-30.36,1.16-122.26-.36-90.89,87.66-90.89,87.66l706.85,1.63a86.68,86.68,0,0,0-7.1-25.42C1308.61,981.18,1334.12,973.59,1330.25,958.58Z"/><path class="cls-5" d="M964.53,620.32,933.7,986.84s-3.23,22.22,13.3,22.26c27.17.06,135.24,0,135.24,0s-20.45-4.63-20.2-15c.29-12.27,36-377.22,36-377.22Z"/><path class="cls-6" d="M1091,1002.45c-5.34,0-108.57.34-135,0-11.53-.15-13.55-10.26-13.65-16.8a33.87,33.87,0,0,1,.35-5.46l.8-9.52,2-24.28,1.8-21.45,2.32-27.57,2-23.27,21.91-260.43,133.54-3.47s-15,152.73-25.7,263.9c-1.19,12.39-2.32,24.27-3.36,35.35-.34,3.54-.66,7-1,10.37-1,10.52-1.89,20.18-2.68,28.71l-1.14,12.5c-1.36,15-2.15,24.57-2.16,26.39a14.63,14.63,0,0,0,.26,3C1073.48,1002.06,1089,1002.45,1091,1002.45Z"/><polygon class="cls-7" points="640.21 420.87 715.29 722.47 725.58 763.78 760.55 904.25 1410.25 904.25 1281.35 420.87 640.21 420.87"/><polygon class="cls-6" points="640.21 420.87 629.8 424.34 746.71 914.75 760.55 904.26 640.21 420.87"/><polygon class="cls-5" points="746.71 914.75 1392.41 914.75 1410.25 904.26 760.55 904.26 746.71 914.75"/><rect class="cls-7" x="973.46" y="1002.59" width="139.8" height="6.64"/><polygon class="cls-5" points="1077.73 914.75 1077.01 919.82 945.53 946.39 947.33 924.93 948.19 914.75 1077.73 914.75"/><path class="cls-8" d="M1091,1002.45c-5.34,0-108.57.34-135,0-11.53-.15-13.55-10.26-13.65-16.8L1073.19,961c-1.36,15-2.15,24.57-2.16,26.39a14.63,14.63,0,0,0,.26,3C1073.48,1002.06,1089,1002.45,1091,1002.45Z"/><polygon class="cls-8" points="1045.95 806.4 760.55 904.26 725.58 763.78 1045.95 806.4"/><polygon class="cls-9" points="640.21 420.87 1281.35 420.87 1385.38 809.36 736.92 809.36 640.21 420.87"/><path class="cls-5" d="M1102.62,858.47c-1.85-9.53-11.08-17.25-20.6-17.25s-15.75,7.72-13.9,17.25,11.08,17.25,20.6,17.25S1104.47,868,1102.62,858.47Z"/><polygon class="cls-10" points="1355.14 792.53 754.84 792.53 686.85 521.7 681.64 500.94 677.19 483.22 666.77 441.68 1258.42 441.68 1269.87 483.22 1274.75 500.94 1280.48 521.7 1355.14 792.53"/><polygon class="cls-11" points="1269.87 483.22 677.19 483.22 666.77 441.68 1258.42 441.68 1269.87 483.22"/><path class="cls-10" d="M695.14,455.26c-2.87,0-4.61,2.33-3.9,5.2a7.11,7.11,0,0,0,6.49,5.19c2.87,0,4.61-2.33,3.9-5.19A7.1,7.1,0,0,0,695.14,455.26Z"/><path class="cls-10" d="M712.4,455.26c-2.87,0-4.62,2.33-3.9,5.2a7.09,7.09,0,0,0,6.48,5.19,3.92,3.92,0,0,0,3.9-5.19A7.09,7.09,0,0,0,712.4,455.26Z"/><path class="cls-10" d="M737.46,460.46a7.09,7.09,0,0,0-6.49-5.2c-2.86,0-4.61,2.33-3.9,5.2a7.11,7.11,0,0,0,6.49,5.19A3.92,3.92,0,0,0,737.46,460.46Z"/><path class="cls-12" d="M439.11,523.09s1.84-5.78-1.05-11,1.78-8.81.6-10.38-8.84-1.41-11.46,6.14S429,523.94,429,523.94Z"/><path class="cls-13" d="M406.93,564.65a9.24,9.24,0,0,0,11.81-7.49l7.63-33.22s1.6-2.57,7.1-2.35c6,.25,7.61,3.22,7.61,3.22s3.71,58.47-13.6,66.72S390.57,559.77,406.93,564.65Z"/><path class="cls-14" d="M442.82,1008.73H394.06c-3.46-3.14-4.61-21.6-4.61-21.6s15.12-13.62,20.06-2.84c4.7,10.24,17.67,15.69,25.42,17C441.61,1002.49,442.66,1007.39,442.82,1008.73Z"/><path class="cls-14" d="M383.76,1008.73H335c-3.46-3.14-4.61-21.6-4.61-21.6s15.12-13.62,20.06-2.84c4.69,10.24,17.67,15.69,25.42,17C382.54,1002.49,383.6,1007.39,383.76,1008.73Z"/><path class="cls-14" d="M418.82,753.49S411.88,797.84,386,876.58s-29.4,112.84-29.4,112.84l-27.75-.78s-.24-86,11.69-125.65,2.57-142.74,2.57-142.74Z"/><path class="cls-15" d="M432.33,722.68s1,66.84-10.59,148.91S414.1,988.5,414.1,988.5l-27.7.92s-16.55-82.1-11.81-123.18-22.67-141-22.67-141Z"/><path class="cls-16" d="M378.7,566.26l13.07,9.67,18.88-4c-.26-1.72-1.51-8.86-2.64-15.32-.07-.38-.14-.76-.2-1.14L406,545.28l-17.63-8.79-6.58-3.28c0,.12.51,6.11.58,7C383.6,555.71,378.7,566.26,378.7,566.26Z"/><path class="cls-6" d="M409.33,561.38c-.42-.18-25.69-7.64-28.43-6.73s-4.37,6.22-4.37,6.22l41.33,9.34S414.61,563.6,409.33,561.38Z"/><path class="cls-6" d="M341.28,730.93c4.28,19.54,75.57,21.86,94,4.12,2.09-2,2.19-11.43,1.4-24.11-1.54-24.78-6.49-62.05-6.68-81.1a151.64,151.64,0,0,0-3-27.14,221.4,221.4,0,0,0-9.05-32.49S383,559,376.53,560.87C345.14,570.09,337,711.39,341.28,730.93Z"/><path class="cls-13" d="M436.63,710.94c-1.54-24.78-6.49-62.05-6.68-81.1a151.64,151.64,0,0,0-3-27.14L406,599S385.48,682.65,436.63,710.94Z"/><path class="cls-12" d="M383.69,540.46c3.87,7.41,18.3,13.82,24.32,16.18-.07-.38-.14-.76-.2-1.14L406,545.28l-17.63-8.79C384.46,536.43,382.09,537.41,383.69,540.46Z"/><path class="cls-16" d="M414.56,544.25s-31.81,9.92-37.69-10-13.94-32,6.13-39.21,26.27-.75,29.85,5.42S422.69,541.15,414.56,544.25Z"/><path class="cls-14" d="M410,500.61s-2,23.16-6.82,22.16-9.14-1.75-8.43,5.23,7.34,15-7.42,16.28-36-36.84-31.94-44C367.11,479.43,426.93,475.23,410,500.61Z"/><path class="cls-3" d="M454.76,495.63l-30.83,8.24.95,12.71,31.43-.22c2.49-.19,4.16-5,3.73-10.7S457.24,495.45,454.76,495.63Z"/><path class="cls-9" d="M427.17,510c-.26-3.5-1.71-6.26-3.24-6.14s-2.55,3.05-2.29,6.56,1.72,6.26,3.24,6.15S427.43,513.52,427.17,510Z"/><path class="cls-9" d="M438.6,509.6l-9.54.17a4.62,4.62,0,0,0,.22,2.87l9.5.64Z"/><path class="cls-3" d="M472.71,495.19l-35.39,9.45,1.09,14.59,36.08-.25c2.86-.22,4.78-5.72,4.28-12.29S475.56,495,472.71,495.19Z"/><path class="cls-9" d="M441,511.7c-.31-4-2-7.19-3.72-7.06s-2.93,3.5-2.63,7.53,2,7.19,3.72,7.06S441.34,515.73,441,511.7Z"/><path class="cls-16" d="M446.53,523s-3.34-5.06-2-10.85-4.1-8-3.39-9.83,8.12-3.76,12.69,2.79,2.63,16,2.63,16Z"/><path class="cls-6" d="M403,571.6s18.48-3.37,35.55-3.12a9.25,9.25,0,0,0,9.33-10.43l-3-33.4a12.26,12.26,0,0,1,7.5-4.82c5.83-1.4,7.71,1.75,7.71,1.75s19.95,54.54,5.53,67.18-69,20.58-69,20.58Z"/><path class="cls-6" d="M1577.56,345c-1.9,43.92-12.12,97.68-44.6,140.93q-1.8,2.38-3.6,4.72-5.46,7.05-11.12,13.72a12.27,12.27,0,0,1-16.72,1.85L1357.34,397.94a11.2,11.2,0,0,1-2.64-15.14q5.07-7.71,10.63-15.34c1.16-1.59,2.33-3.18,3.53-4.77,32.48-43.25,81.26-68.05,122.91-82.12a393.26,393.26,0,0,1,56.55-14.46,25.74,25.74,0,0,1,7-.3,22.52,22.52,0,0,1,9.34,3c6,3.53,10.14,9.85,11,17.82A394.24,394.24,0,0,1,1577.56,345Z"/><path class="cls-17" d="M1365.23,367.6q-6.32,8.65-12,17.42a8.63,8.63,0,0,0,2.06,11.59l147.83,111a10,10,0,0,0,13.64-1.51q6.36-7.41,12.5-15.34Z"/><path class="cls-18" d="M1493.36,411.4a43.74,43.74,0,0,1-34.88-70h0a43.68,43.68,0,1,1,34.88,70Zm.16-77.31a33.89,33.89,0,0,0-4.8.34,33.36,33.36,0,0,0-22.11,13.07h0a33.56,33.56,0,1,0,26.91-13.41Z"/><path class="cls-19" d="M1568,279a24.78,24.78,0,0,0-3.3-10.13,22.52,22.52,0,0,0-9.34-3c0,.19.05.39.07.58a392.73,392.73,0,0,1,1.88,58.34c-1.9,43.92-12.12,97.68-44.6,140.93q-1.79,2.38-3.6,4.72c-.8,1-1.61,2.07-2.42,3.09l14.1,10.62.89-1.14q1.81-2.34,3.6-4.72c32.48-43.25,42.7-97,44.6-140.93A392.73,392.73,0,0,0,1568,279Z"/><path class="cls-17" d="M1575.68,286.65c-1.51-14.11-13.39-23-27.36-20.54a393.67,393.67,0,0,0-56.56,14.46l85.8,64.43A394.3,394.3,0,0,0,1575.68,286.65Z"/><path class="cls-18" d="M1377.23,426.81c-14.06-9.34-36.19-.75-49.43,19.18s1.49,53,1.49,53,36.18.75,49.42-19.18S1391.29,436.15,1377.23,426.81Z"/><path class="cls-18" d="M1456.26,484.86c-14.06-9.34-36.19-.75-49.43,19.18s1.49,53,1.49,53,36.18.74,49.42-19.19S1470.31,494.2,1456.26,484.86Z"/><path class="cls-6" d="M1362.29,449.16c-9.71-6.45-25-.52-34.12,13.24s1,36.58,1,36.58,25,.51,34.11-13.24S1372,455.6,1362.29,449.16Z"/><path class="cls-6" d="M1441.48,507.14c-9.7-6.44-25-.52-34.11,13.24s1,36.58,1,36.58,25,.51,34.11-13.24S1451.18,513.58,1441.48,507.14Z"/><path class="cls-20" d="M1473.84,389.42l45.33-8a29.57,29.57,0,0,1-45.33,8Z"/><path class="cls-20" d="M1522.82,366.15,1465.4,377a29.57,29.57,0,1,1,57.42-10.88Z"/><path class="cls-16" d="M608.26,779.64s9.61,2.47,15.73.62,16.63,1.19,18.32,3.42,1.07,3.11-1.95,3.88-13.73,5.33-20.77,2.69-16.22-2.74-16.22-2.74Z"/><path class="cls-21" d="M525.17,696.12s10.8,76.76,28.69,83.64c8.82,3.39,47.82,11.08,59.35,11.85,0,0,2.83-2.29,2.14-11.62,0,0-40.86-15-46.66-23.16-8.64-12.14,5.36-49.6-5.48-61S534.12,679.53,525.17,696.12Z"/><path class="cls-22" d="M541.49,991.55V974.82h26.35a1.29,1.29,0,0,0,1.29-1.29v-2.68a1.3,1.3,0,0,0-1.29-1.3H541.49V874.28a4.88,4.88,0,0,0-4.86-4.86h-5.22a4.88,4.88,0,0,0-4.86,4.86v95.27H500.2a1.3,1.3,0,0,0-1.29,1.3v2.68a1.29,1.29,0,0,0,1.29,1.29h26.35v16.73c-19.06,1.45-34.33,8.31-38.62,17.18h92.18C575.82,999.86,560.55,993,541.49,991.55Z"/><path class="cls-14" d="M528.81,857.84a135.4,135.4,0,0,0,10.55,15.09c11.61,14.66,24.25,26.74,26.45,38.16a50.64,50.64,0,0,0,2,7.31c.92,2.61,2,5.37,3.36,8.21,4.93,10.7,12.3,22.69,19.65,33.58,12.71,18.84,24.67,34.56,24.67,34.56l21.92-.93c-.87-2.2-10.44-28.21-23.23-60L598.17,894l-2.12-5.27c-1.63-4-3.23-8-4.8-11.92l-21.58-53.62s-48-18.18-53-6.4C512.57,826.46,515.92,836,528.81,857.84Z"/><path class="cls-14" d="M616.21,990.34s1.13,18.09,4.63,18.35c.46,0,17.75,0,17.75,0h22.07s-.15-5.45-6.6-6.57S636.81,996.5,632.91,988C628.8,979,616.21,990.34,616.21,990.34Z"/><path class="cls-14" d="M565.45,939.08s-15.25,9.8-13.77,13c.19.43,8.62,15.52,8.62,15.52l10.87,19.21s4.57-2.72,2.41-8.9-3.47-17.82,2.07-25.39C581.48,944.54,565.45,939.08,565.45,939.08Z"/><path class="cls-15" d="M586,814.47s60.33,37.58,67,62.8-80.15,79-80.15,79-9.53-8.41-11.21-14.58c0,0,39.27-47.05,47.79-57.6,5.23-6.47-77.36-22.42-87.45-38.11s-6.48-28.9-6.48-28.9Z"/><rect class="cls-6" x="467.87" y="862.71" width="132.29" height="33.63" rx="4.48"/><path class="cls-16" d="M567.39,691.28C553,695,529,681.64,529,681.64s9.29-6.24,12.73-20c.18-.69.34-1.4.47-2.13l7.42-1.57,11,9.88A93.66,93.66,0,0,1,559,679c-.24,1.23-.51,2.55-.82,4A34,34,0,0,1,567.39,691.28Z"/><path class="cls-23" d="M587.9,812.5a4.61,4.61,0,0,1-.13.46c-1.39,3.9-14.35,9.16-26.24,12.83-4.26,1.33-8.39,2.44-11.8,3.22-9.2,2.11-32.27,5.87-34.3-.45-2.34-7.32.38-49.63-1.69-77.44-2.44-34,7-64.94,20.06-75,1-.72,3,1.21,8.62,3.9a25.28,25.28,0,0,0,15.92,2.11l4.39,3.77c6.06,5.46,12.73,12.9,15.75,24.32,1.85,7,3.25,18.08,4.29,30.54.4,4.83.74,9.87,1,14.95.47,8.1.88,16.27,1.08,24,0,.15,0,.29,0,.44v.29c.09.78.1,1.63.11,2.42.21,7,.17,13.44.4,18.94q0,.24,0,.45c.29,4.61,2,6.69,2.43,8.62A3.45,3.45,0,0,1,587.9,812.5Z"/><path class="cls-21" d="M587.9,812.5a4.61,4.61,0,0,1-.13.46c-1.39,3.9-14.35,9.16-26.24,12.83C537.38,795.54,540,759.33,540,759.33l44.92,20.38c0,.15,0,.29,0,.44v.29c.09.78.1,1.63.11,2.42.21,7,.17,13.44.4,18.94q0,.24,0,.45c.29,4.61,2,6.69,2.43,8.62A3.45,3.45,0,0,1,587.9,812.5Z"/><path class="cls-24" d="M560.68,667.86A93.66,93.66,0,0,1,559,679c-10.76-3.48-15.64-13.2-17.28-17.33.18-.69.34-1.4.47-2.13l7.42-1.57Z"/><path class="cls-16" d="M565,667.75s-23.65,2.67-25.09-12.09-5.45-24.35,9.59-26.68,18.53,3,20.21,7.83S571.15,666.68,565,667.75Z"/><path class="cls-22" d="M540.05,656.68s1.5-19.59,23-21.62C577.83,633.67,569.61,621,568,619c0,0-11.3,1.55-22.88,3.47C520.84,626.43,537.66,653.63,540.05,656.68Z"/><polygon class="cls-21" points="672.17 744.65 655.51 795.94 596.89 794.69 596.81 798.27 656.63 799.54 674.24 745.32 672.17 744.65"/><path class="cls-16" d="M603.31,791.44s9.29,3.51,15.56,2.36,16.4,3,17.84,5.41.72,3.21-2.37,3.64-14.23,3.79-20.94.39-15.81-4.51-15.81-4.51Z"/><path class="cls-23" d="M529.94,699.27s2.27,77.48,19.29,86.29c8.39,4.34,46.3,16.29,57.69,18.33,0,0,3.06-2,3.4-11.32,0,0-39-19.41-43.82-28.16-7.25-13,10.79-48.71,1.28-61.23S540.66,683.77,529.94,699.27Z"/><path class="cls-16" d="M1587.93,758.94l2.85,4.61c1.48,1.7,1.88,2.65,3,3.23a14.51,14.51,0,0,1,8.45,12.48s-.08,4.25-2.93,2.87-1.61-1.25-5.66-3.1-5.55-7.76-5.9-9.77l-3.31-4.34Z"/><path class="cls-16" d="M1504.16,1005.16a3.9,3.9,0,0,1-2.54,3.38h0c-2.71,1.19-7.24.92-12.15.26l-1.7-.2-.39,0-.31,0c-4.88-.32-4.5,1.18-13.83,1.13-10.64,0-14.23-3.63-14.72-5.16-.41-1.3,4.25-2.3,9.45-3.46l.76-.17,2.09-.47c6.2-1.46,12.35-3.3,14.38-9.26,2.16-6.33,1.65-25.09,1.65-25.09h18.84s-5,20.73-4.43,26.71c.28,3.19,1.81,4.09,2.4,6.86,0,.19.08.39.11.58A18.18,18.18,0,0,1,1504.16,1005.16Z"/><path class="cls-25" d="M1526.08,802.3c-1.59,8.92-3.85,18.15-5.82,27.74-3.17,15.42-5.56,31.81-3.11,49.45a62.57,62.57,0,0,1,.52,7.47c.47,31.19-13.46,87.7-13.46,87.7a24.71,24.71,0,0,1-10.13,1.32c-3.26-.16-8.27-2.27-8.27-2.27s-1.32-35-1.4-82.16c-.06-34.16-6.77-79.13-8.12-105.56-.82-16,1-37.29,1-37.29S1505,726.36,1515,737.79,1532,768.91,1526.08,802.3Z"/><path class="cls-26" d="M1517.15,879.49a62.57,62.57,0,0,1,.52,7.47c-20.8-30.13-25.4-95.85-25.4-95.85l22.84,11.09s2.51,12.32,5.15,27.84C1517.09,845.46,1514.7,861.85,1517.15,879.49Z"/><path class="cls-16" d="M1564.26,1005.16a3.93,3.93,0,0,1-2.54,3.38h0c-2.7,1.19-7.24.92-12.14.26l-1.7-.2-.4,0-.3,0c-4.89-.32-4.5,1.18-13.84,1.13-10.63,0-14.23-3.63-14.72-5.16-.41-1.3,4.25-2.3,9.46-3.46l.76-.17,2.08-.47c6.21-1.46,12.35-3.3,14.39-9.26,2.15-6.33-.93-24.81-.93-24.81l17.45-1.45s-1.08,21.05-.56,27c.28,3.19,1.9,4.94,2.49,7.71,0,.19.08.39.11.58A18.59,18.59,0,0,1,1564.26,1005.16Z"/><path class="cls-25" d="M1561.8,976.25a42,42,0,0,1-7.72,2.77c-3.23.65-9.94-.61-9.94-.61a454.16,454.16,0,0,0-9.49-58.73c-6.22-27.26-15.48-59.48-28.39-90-2.76-6.52-14.13-37.35-16.06-45.14-5.83-23.51,0-21,0-21l51-6s6.28,3.23,9.17,36.43c.87,10,1,52.88,2.28,61,1.24,7.71,2.68,14.12,4.38,18.28C1566.53,896.59,1561.8,976.25,1561.8,976.25Z"/><path class="cls-27" d="M1564.26,1005.16a3.93,3.93,0,0,1-2.54,3.38h0c-2.86,1-7.33.8-12.13.23-.63-.07-1.2-.13-1.71-.17l-.4,0-.3,0c-4.89-.32-4.5,1.18-13.84,1.13-10.63,0-14.23-3.63-14.72-5.16-.41-1.3,4.25-2.3,9.46-3.46a31.39,31.39,0,0,0,16.07,2.85c7.16-.69,14.47-3.56,19.61-4.27,0,.19.08.39.11.58A18.59,18.59,0,0,1,1564.26,1005.16Z"/><path class="cls-27" d="M1504.16,1005.16a3.9,3.9,0,0,1-2.54,3.38h0c-2.86,1-7.33.8-12.14.23-.63-.07-1.19-.13-1.71-.17l-.39,0-.31,0c-4.88-.32-4.5,1.18-13.83,1.13-10.64,0-14.23-3.63-14.72-5.16-.41-1.3,4.25-2.3,9.45-3.46a31.42,31.42,0,0,0,16.07,2.85c7.17-.69,14.48-3.56,19.62-4.27,0,.19.08.39.11.58A18.18,18.18,0,0,1,1504.16,1005.16Z"/><path class="cls-18" d="M1483.76,604.89c-1.72-14.06,2.67-36.58,30.75-33s36.93,31.19,31.27,43.46,8.15,15.23,12.48,28.42c3.73,11.34,5,25.41,11.06,31.73,19.44,20.36-18.66,51.68-41.63,45.07-41.84-12-47.23-13.82-45.74-46.69.76-16.84,13.86-23.37,5.54-28.24C1467.4,633.89,1487.66,636.73,1483.76,604.89Z"/><path class="cls-16" d="M1525,641.72l-7.73,20-16.7.81-8.32-12.44c5.25-4,7.47-10,8.29-15.36a43.81,43.81,0,0,0,.29-10.29c-.11-1.07-.22-1.7-.22-1.7l20.8-6.33.08,0c.26,5.52.55,9.85.89,13.21C1523.59,641.46,1525,641.72,1525,641.72Z"/><path class="cls-16" d="M1492.2,641c1.08,0,19.31-3.71,50.11,4.17,0,0-16.87,77.27-11.14,91.83a153.9,153.9,0,0,1,7.91,27.49l-62.16.77s.87-50-2-67.68S1492.2,641,1492.2,641Z"/><path class="cls-28" d="M1571.52,721.87c-3.12-21.48-14.66-65.59-22.41-72.8-6.85-6.38-21.63-7-21.63-7h0c-3.07,4.81-13.58,16.76-26.62,14.6-7-1.16-8.47-13.81-8.63-15.51l0-.19h-.07l-.15,0c-2,.31-18.41,3-23.26,11.32-7.17,12.33-15,49.34-22.63,48.79-3.52-.25-38.94-13.56-38.94-13.56s-5.9,5.53-4.77,12.31c0,0,17.49,11.71,32.27,19.18,2,1,4,2,5.94,2.82,5.33,2.34,9.82,3.69,12.28,3.11a8.05,8.05,0,0,0,2.22-.93c3.21-1.86,6.95-5.92,10.54-10.56,2.39-3.09,4.71-6.42,6.75-9.53a2.14,2.14,0,0,0,.13-.19c.88,11.76,1.76,24.56.85,34.6-.7,7.63-1.2,24.16.11,28.43,2.73,8.9,22.79,11.25,41.52,10.32,8.83-.44,15.06-.94,19.6-2,6.59-1.51,9.6-4.16,11.76-9.38,2.07-5-7.49-28.35-8.4-38.58A59.67,59.67,0,0,1,1541,703c6.61,15.27,13.33,26.19,14.21,28.56,1.86,5,30.08,36.48,30.08,36.48a13.62,13.62,0,0,0,4.09-1.65,9.44,9.44,0,0,0,2.8-2.83C1587.16,751.69,1571.52,721.87,1571.52,721.87Z"/><path class="cls-13" d="M1546.42,765.78c-2.16,5.22-5.17,7.87-11.76,9.38-8.8-1.69-14.61-17.88-17.6-25.86-3.44-9.18,14.5-56.41,19.46-56,3.68.32,4.32,6.57,4.44,9.64A58.59,58.59,0,0,0,1538,727.2C1538.93,737.43,1548.49,760.8,1546.42,765.78Z"/><path class="cls-16" d="M1407.47,691.3s-3-7.4-6.34-7.7-13.91-2-14.66-.46,0,7,2.27,8.92,16.31,5.14,16.31,5.14Z"/><path class="cls-13" d="M1472.45,704c-2,3.11-4.36,6.44-6.75,9.53-3.42,4.21-7.19,8.28-10.54,10.56a8.05,8.05,0,0,1-2.22.93c-2.46.58-7-.77-12.28-3.11a59.38,59.38,0,0,0,9.35-.14c5.37-.46,6.93-6.27,15.41-15C1470.49,701.57,1472,702.38,1472.45,704Z"/><path class="cls-24" d="M1521.44,616.4c-3.14,5.14-10.73,15.73-20.87,18.32a43.81,43.81,0,0,0,.29-10.29c-.11-1.07-.22-1.7-.22-1.7Z"/><path class="cls-16" d="M1495.18,624.14s25,5,27.9-10.6,8.06-25.5-7.79-29.36-20.06,1.52-22.29,6.5S1488.75,622.43,1495.18,624.14Z"/><path class="cls-18" d="M1507.4,580.28s-.44,5.3,7.79,14.29,6.62,27.17,6.62,27.17,13.5-28.21,6.11-36.53S1507.4,580.28,1507.4,580.28Z"/><path class="cls-18" d="M1517.46,573.38s-12.44-4.16-24.77,8c-5.32,5.24-4.52,15.53-1.67,21.51,0,0,4.37-12.8,12.33-15.6S1517.46,573.38,1517.46,573.38Z"/><path class="cls-29" d="M1503,616.45s-.67,1.86-5.38,1c0,0-3.95-.71-3.59-2.79A12.94,12.94,0,0,1,1503,616.45Z"/><path class="cls-9" d="M1116.44,622.43c6.79,38.47-15.67,69.65-50.15,69.65-2.24,0-4.54-1.55-6.77-1.81,30.7-3.7,50-31.88,43.64-67.84s-36-65.55-68-69.24a52.45,52.45,0,0,1,6.57-.4C1076.21,552.79,1109.66,584,1116.44,622.43Z"/><path class="cls-9" d="M1144,642.53c9.82,0,16.18-9.07,14.21-20.26S1146.68,602,1136.87,602a13.76,13.76,0,0,0-1.45.09,127.42,127.42,0,0,0-5.05-12.1c5-3.43,7.54-10.13,6.18-17.84-1.91-10.86-11-19.72-20.47-20.24l-11.56.14a15.69,15.69,0,0,0-1.7.1c-1.17-1.1-2.35-2.18-3.55-3.22a20,20,0,0,0,1.37-12c-2-11.2-11.53-20.27-21.35-20.27h-.23l-9.63.19c-.28,0-.55,0-.83,0-.48,0-1,0-1.43.07h0a13.62,13.62,0,0,0-7.1,2.76,14.85,14.85,0,0,0-4.59,6.08l-.69-.16q-.09-1-.27-2.07c-2-11.19-11.53-20.27-21.35-20.27l-10.54.18h-.14l-.5,0h-.2a13.33,13.33,0,0,0-2.23.27h0c-.47.16-16,5.79-10.67,25.32l-1.09.47s-3.07-6.22-8.58-9.6c-6.83-4.17-11.27-3.19-11.87-3.11l-9.19,0v0c-9.59.24-15.75,9.21-13.8,20.25a26.19,26.19,0,0,0,7,13.55c-.32.43-.64.87-1,1.31l-3.2,0c-.47,0-.95-.07-1.42-.07A14.46,14.46,0,0,0,964,552l-8.13.08h-.8c-.39,0-.76,0-1.13.05h0c-.31,0-.63,0-.94.09-8.6,1.2-13.93,9.75-12.1,20.13,1.53,8.68,7.64,16.07,14.88,19a101,101,0,0,0-.65,10.84l-3.55.06h-.46c-.38,0-.74,0-1.1,0h-.67a.18.18,0,0,0,0,0c-8.81,1-14.3,9.65-12.45,20.16,2,11.2,11.53,20.27,21.35,20.27l4-.06c.94,2.61,2,5.19,3.06,7.72-6.87,2.51-10.84,10.24-9.23,19.41,1.9,10.76,10.81,19.56,20.22,20.22h0c.37,0,.74,0,1.11,0a13.43,13.43,0,0,0,1.43-.07l9-.09h.23a14.69,14.69,0,0,0,3.55-.43c1.46,1.48,2.94,2.92,4.47,4.32a19.55,19.55,0,0,0-1.84,13c2,11.2,11.53,20.27,21.35,20.27l10.45-.17h.23a13.88,13.88,0,0,0,13-8.55c1.19.32,2.38.62,3.57.89.06.67.15,1.36.28,2.06,2,11.19,11.53,20.27,21.34,20.27l10.68-.17h.72c9.41-.43,15.41-9.33,13.49-20.25-.13-.69-.27-1.38-.46-2.06.35-.08.68-.18,1-.27,4.11,5,9.88,8.27,15.75,8.27l10.28-.19.4,0c9.82,0,16.18-9.07,14.21-20.26a26.18,26.18,0,0,0-5.09-11.39c1.33-1.7,2.59-3.48,3.77-5.31h12.29c9.82,0,16.18-9.08,14.21-20.27a25.71,25.71,0,0,0-13.62-18.41q.39-4.29.42-8.74A14.48,14.48,0,0,0,1144,642.53Zm-78.15,48.08c-34.57,0-68-30.86-74.75-68.93s15.87-68.92,50.44-68.92,68,30.86,74.76,68.92S1100.44,690.61,1065.86,690.61Z"/><path class="cls-11" d="M1143.78,642.54c9.82,0,16.18-9.08,14.2-20.27S1146.45,602,1136.64,602a13.76,13.76,0,0,0-1.45.09,127.42,127.42,0,0,0-5-12.1c4.95-3.43,7.54-10.13,6.18-17.84-2-11.19-11.53-20.27-21.34-20.27a13.78,13.78,0,0,0-9.22,3.38q-3.26-3.32-6.73-6.34a19.91,19.91,0,0,0,1.38-12c-2-11.19-11.53-20.26-21.35-20.26-7.21,0-12.55,4.91-14.09,12a90.38,90.38,0,0,0-10.42-3.05c-.06-.67-.15-1.36-.27-2.06-2-11.19-11.53-20.26-21.35-20.26s-16.17,9.07-14.2,20.26c.13.7.28,1.39.46,2.06a67.33,67.33,0,0,0-11.41,3.93c-3.92-7.51-11.27-12.83-18.78-12.83-9.82,0-16.18,9.07-14.2,20.26a26.28,26.28,0,0,0,7,13.56,72,72,0,0,0-4.11,6.09,19.52,19.52,0,0,0-12.15-4.66c-9.81,0-16.17,9.08-14.19,20.27,1.53,8.69,7.63,16.08,14.88,19a98.93,98.93,0,0,0-.66,11.4,17,17,0,0,0-4-.51c-9.82,0-16.17,9.08-14.2,20.27s11.53,20.27,21.35,20.27a14.52,14.52,0,0,0,3.83-.52q1.47,4.15,3.22,8.18c-6.88,2.5-10.85,10.24-9.23,19.4,2,11.19,11.53,20.27,21.35,20.27a13.72,13.72,0,0,0,10.45-4.6q4,4.38,8.25,8.32a19.65,19.65,0,0,0-1.83,13c2,11.19,11.53,20.26,21.34,20.26,7.2,0,12.52-4.89,14.08-11.91A90.84,90.84,0,0,0,1053.3,719c.06.68.15,1.37.27,2.06,2,11.2,11.53,20.27,21.35,20.27s16.17-9.07,14.2-20.27c-.12-.69-.28-1.38-.46-2.06a67.83,67.83,0,0,0,9.72-3.19c4.1,6.54,10.85,11,17.75,11,9.81,0,16.17-9.07,14.19-20.26a26,26,0,0,0-5.08-11.39,72.33,72.33,0,0,0,5.79-8.61,18.82,18.82,0,0,0,10.28,3.3c9.81,0,16.17-9.08,14.2-20.27a25.72,25.72,0,0,0-13.62-18.41q.39-4.29.42-8.74A14.5,14.5,0,0,0,1143.78,642.54Zm-77.92,48.07c-34.57,0-68-30.86-74.75-68.93s15.87-68.92,50.44-68.92,68,30.86,74.76,68.92S1100.44,690.61,1065.86,690.61Z"/><path class="cls-5" d="M1232.67,625.2c5.19,29.4-12,53.24-38.34,53.24-1.72,0-3.47-1.19-5.18-1.39,23.47-2.82,38.21-24.36,33.36-51.85s-27.51-50.12-52-52.94a41.4,41.4,0,0,1,5-.3C1201.91,572,1227.49,595.79,1232.67,625.2Z"/><path class="cls-5" d="M1253.75,640.56c7.5,0,12.36-6.93,10.86-15.49s-8.82-15.49-16.33-15.49c-.37,0-.74,0-1.1.06a99,99,0,0,0-3.86-9.25c3.78-2.62,5.76-7.74,4.72-13.63-1.46-8.31-8.38-15.08-15.65-15.48l-8.83.11c-.45,0-.88,0-1.31.07-.89-.84-1.79-1.66-2.71-2.46a15.3,15.3,0,0,0,1-9.2c-1.51-8.55-8.82-15.49-16.32-15.49h-.18l-7.36.14-.63,0a9.87,9.87,0,0,0-1.1.06h0a10.45,10.45,0,0,0-5.44,2.1,11.33,11.33,0,0,0-3.5,4.66l-.53-.13c0-.52-.12-1-.21-1.58-1.51-8.56-8.81-15.49-16.32-15.49l-8.06.13h-.64a9.52,9.52,0,0,0-1.71.21h0c-.35.13-12.2,4.43-8.15,19.36l-.83.36a20.11,20.11,0,0,0-6.57-7.34c-5.21-3.19-8.61-2.44-9.06-2.38l-7,0h0c-7.33.19-12,7-10.55,15.49a20.05,20.05,0,0,0,5.33,10.36c-.24.33-.49.66-.73,1l-2.44,0c-.36,0-.73,0-1.09,0a11.9,11.9,0,0,0-1.34.08l-6.22.07h-.61c-.29,0-.58,0-.86,0h0c-.24,0-.49,0-.72.08-6.58.91-10.65,7.45-9.25,15.38a19.5,19.5,0,0,0,11.37,14.5,74.89,74.89,0,0,0-.49,8.29l-2.72,0h-.35c-.29,0-.56,0-.84,0h-.52a.1.1,0,0,1,0,0c-6.73.78-10.93,7.38-9.51,15.42,1.51,8.55,8.81,15.49,16.32,15.49l3-.05q1.08,3,2.34,5.91c-5.25,1.92-8.29,7.83-7.06,14.83,1.45,8.23,8.27,15,15.46,15.46h0c.28,0,.56,0,.84,0a10,10,0,0,0,1.1-.06l6.9-.07h.17a11,11,0,0,0,2.72-.33c1.11,1.13,2.25,2.24,3.42,3.3a14.93,14.93,0,0,0-1.41,9.92c1.51,8.56,8.82,15.5,16.32,15.5l8-.13h.17a10.61,10.61,0,0,0,9.92-6.54c.91.24,1.82.47,2.73.68,0,.52.12,1,.21,1.58,1.51,8.55,8.82,15.49,16.32,15.49l8.16-.13h.56c7.19-.33,11.78-7.13,10.31-15.48-.1-.53-.21-1.06-.35-1.58l.78-.2c3.15,3.82,7.55,6.32,12,6.32l7.87-.14h.3c7.51,0,12.37-6.94,10.86-15.49a20.1,20.1,0,0,0-3.88-8.71c1-1.3,2-2.66,2.88-4.06h9.39c7.51,0,12.37-6.94,10.86-15.49a19.65,19.65,0,0,0-10.41-14.08c.2-2.19.31-4.41.32-6.68C1253,640.53,1253.37,640.56,1253.75,640.56ZM1194,677.32c-26.43,0-52-23.59-57.15-52.7s12.13-52.69,38.57-52.69,52,23.59,57.15,52.69S1220.43,677.32,1194,677.32Z"/><path class="cls-7" d="M1253.57,640.56c7.51,0,12.37-6.93,10.86-15.49s-8.82-15.49-16.32-15.49c-.38,0-.74,0-1.11.06a96.37,96.37,0,0,0-3.86-9.25c3.79-2.62,5.77-7.74,4.73-13.63-1.51-8.56-8.82-15.5-16.32-15.5a10.5,10.5,0,0,0-7,2.58c-1.67-1.69-3.38-3.3-5.15-4.84a15.23,15.23,0,0,0,1.05-9.2c-1.51-8.55-8.81-15.49-16.32-15.49-5.51,0-9.59,3.75-10.77,9.14a68.39,68.39,0,0,0-8-2.33c0-.52-.11-1-.2-1.58-1.51-8.56-8.82-15.49-16.32-15.49S1156.46,541,1158,549.54c.09.53.21,1.06.35,1.58a50.66,50.66,0,0,0-8.72,3c-3-5.74-8.62-9.81-14.36-9.81-7.51,0-12.37,6.94-10.86,15.49a20.07,20.07,0,0,0,5.34,10.36,55.9,55.9,0,0,0-3.15,4.66,14.93,14.93,0,0,0-9.28-3.56c-7.51,0-12.37,6.94-10.86,15.5a19.45,19.45,0,0,0,11.38,14.49,77.68,77.68,0,0,0-.51,8.72,12.71,12.71,0,0,0-3.06-.39c-7.51,0-12.37,6.93-10.86,15.49s8.82,15.49,16.32,15.49a11.15,11.15,0,0,0,2.93-.39q1.13,3.18,2.46,6.25c-5.25,1.92-8.29,7.83-7,14.84,1.51,8.55,8.81,15.49,16.32,15.49a10.49,10.49,0,0,0,8-3.51q3,3.35,6.31,6.36a15,15,0,0,0-1.4,9.92c1.5,8.55,8.81,15.49,16.31,15.49,5.51,0,9.58-3.74,10.77-9.1A70.32,70.32,0,0,0,1184.4,699a14.57,14.57,0,0,0,.21,1.58c1.51,8.56,8.81,15.49,16.32,15.49s12.36-6.93,10.85-15.49c-.09-.53-.21-1.06-.35-1.58a50.87,50.87,0,0,0,7.43-2.44c3.13,5,8.3,8.43,13.57,8.43,7.5,0,12.36-6.94,10.85-15.49a20,20,0,0,0-3.88-8.71,56.88,56.88,0,0,0,4.43-6.58,14.33,14.33,0,0,0,7.85,2.52c7.5,0,12.36-6.94,10.85-15.49a19.63,19.63,0,0,0-10.41-14.08q.3-3.27.33-6.68A10.51,10.51,0,0,0,1253.57,640.56ZM1194,677.32c-26.43,0-52-23.59-57.15-52.7s12.14-52.69,38.57-52.69,52,23.59,57.15,52.69S1220.43,677.32,1194,677.32Z"/><polygon class="cls-11" points="744.78 647.77 777.35 769.33 806.28 769.33 773.71 647.77 744.78 647.77"/><polygon class="cls-11" points="783.52 635.36 819.42 769.33 848.35 769.33 812.45 635.36 783.52 635.36"/><polygon class="cls-11" points="819.42 613.99 861.04 769.33 889.97 769.33 848.35 613.99 819.42 613.99"/><polygon class="cls-11" points="887.95 598.24 859.02 598.24 900.64 753.59 929.57 753.59 887.95 598.24"/><path class="cls-11" d="M749.06,635.89l31-23.83,2.35,8.75a5.4,5.4,0,0,0,3,3.4,3.53,3.53,0,0,0,3.89-.37l33.12-31.65,4.63,4.16c.56.5,1.32.27,1.24-.38l-1.49-13.25a1.06,1.06,0,0,0-1-.89l-13.75-.44c-.67,0-.84.76-.27,1.27l4.14,3.71-28,26.77-2.14-8a5.41,5.41,0,0,0-2.87-3.33,3.71,3.71,0,0,0-3.83.13l-35.85,27.55c-1.47,1.13-1.36,3.48.24,5.25a5.15,5.15,0,0,0,3.68,1.76A3.06,3.06,0,0,0,749.06,635.89Z"/><path class="cls-30" d="M740.08,736.08l1.22,4.74A13,13,0,0,1,740.08,736.08Z"/><path class="cls-30" d="M1355.17,792.49H754.81L741.3,740.82c12.44,26.71,113.58-2.52,136.25-18.78,41.45-29.92,41.76-59.39,84.66-79.39,58.09-27.1,116.18,15.34,162.89,3.74,143.28-35.49,262.05-151.6,265.72-155.26-40.23,93.13-138.24,142.13-62.9,172.67C1406.08,695.47,1355.17,792.49,1355.17,792.49Z"/><path class="cls-11" d="M752.88,529.66a65.2,65.2,0,0,0-10.56-4.34A40.25,40.25,0,0,1,737,523.2a5,5,0,0,1-2.58-3.05c-.49-1.61-.32-2.85.53-3.73a4.9,4.9,0,0,1,3.69-1.32,14.41,14.41,0,0,1,4.52,1,14.69,14.69,0,0,0,3.93,1,2.67,2.67,0,0,0,2.18-.85,2.35,2.35,0,0,0,.27-2.31,5.75,5.75,0,0,0-2.71-3.09,18.29,18.29,0,0,0-9.87-2.46c-3.85,0-6.77,1-8.78,3.06q-3.29,3.29-1.58,8.86a14.72,14.72,0,0,0,7.88,9l10.72,3.87q5.76,2.12,6.91,5.88a4.78,4.78,0,0,1-.55,4.43,4.55,4.55,0,0,1-3.94,1.85,17.47,17.47,0,0,1-4.86-.7c-.09,0-1.19-.42-3.28-1.12a12.55,12.55,0,0,0-3-.83,2.77,2.77,0,0,0-2.26.89,2.44,2.44,0,0,0-.26,2.41q.94,3.12,6.59,4.82a27,27,0,0,0,8.1,1.3q6.53,0,9.69-3.53,3.38-3.75,1.42-10.16A15.36,15.36,0,0,0,752.88,529.66Z"/><path class="cls-11" d="M771.49,515.69h6q4.66,0,3.63-3.41t-5.83-3.48H756q-4.77,0-3.71,3.48c.7,2.27,2.61,3.41,5.75,3.41H764l9.7,31.7q1.47,4.83,5.15,4.83t2.32-4.83Z"/><path class="cls-11" d="M823.68,546.69l-22.75-34c-2-2.94-4.25-4.42-6.88-4.42s-3.92,1.59-4.13,4.77l-2.22,33.71a5.72,5.72,0,0,0,.29,2.11,4.49,4.49,0,0,0,1.78,2.45,4.92,4.92,0,0,0,2.84.91c1.65,0,2.54-1,2.65-3.11l.28-7.07h17.33l4.47,6.87c1.42,2.2,3,3.31,4.82,3.31a3,3,0,0,0,2.32-.91,2.38,2.38,0,0,0,.35-2.39A8.79,8.79,0,0,0,823.68,546.69Zm-27.9-11.24.7-18.11a2.48,2.48,0,0,1,.1-.59l12.07,18.7Z"/><path class="cls-11" d="M854.6,545.1l-14.32-11.82q11.34-.82,8-11.71a16.77,16.77,0,0,0-7.24-9.65,20.57,20.57,0,0,0-11.31-3.12h-8.41c-3.1,0-4.15,1.64-3.15,4.9l10.33,33.8q1.49,4.83,5.16,4.83c2.53,0,3.31-1.59,2.33-4.79l-4.31-14.09.39.3L850.68,550q2.66,2.3,4.54,2.29a2.65,2.65,0,0,0,2.2-.91,2.47,2.47,0,0,0,.27-2.38A8.83,8.83,0,0,0,854.6,545.1Zm-19.5-16.53a25,25,0,0,1-5-.36l-3.87-12.64h5.5q7,0,8.91,6.32Q842.67,528.57,835.1,528.57Z"/><path class="cls-11" d="M866.32,515.69h6q4.68,0,3.63-3.41t-5.82-3.48h-19.3q-4.77,0-3.7,3.48t5.75,3.41h5.94l9.69,31.7c1,3.22,2.7,4.83,5.15,4.83s3.31-1.61,2.32-4.83Z"/><path class="cls-11" d="M911.83,547.09a5.62,5.62,0,0,0-2.09-2.88A5.25,5.25,0,0,0,906.5,543a2.84,2.84,0,0,0-2.51,1.21,3.18,3.18,0,0,0-.33,2.88,5.69,5.69,0,0,0,2.09,2.87,5.25,5.25,0,0,0,3.25,1.21,2.83,2.83,0,0,0,2.5-1.21A3.16,3.16,0,0,0,911.83,547.09Z"/><path class="cls-11" d="M907.25,533.79l-6.56-21.46c-1-3.11-2.64-4.66-5.05-4.66s-3.1,1.55-2.15,4.66l6.57,21.46q1.47,4.85,5.1,4.84C907.54,538.63,908.23,537,907.25,533.79Z"/><path class="cls-11" d="M1269.83,792.49H978.39c12.44-10.22,29.46-27.93,38.47-53.35,15.27-42.9,67.4-25.19,113.43-32.6s139.11-101.27,142.29-90.45c1.7,5.79-19.09,82.06,11.45,90.68C1314.18,715.24,1325.71,762.88,1269.83,792.49Z"/><path class="cls-31" d="M1682.7,1011.31H237.3A1.29,1.29,0,0,1,236,1010h0a1.29,1.29,0,0,1,1.29-1.29H1682.7A1.29,1.29,0,0,1,1684,1010h0A1.29,1.29,0,0,1,1682.7,1011.31Z"/><rect class="cls-32" width="1920" height="1277"/></svg>