<svg id="Layer_1" data-name="Layer 1" xmlns="http://www.w3.org/2000/svg" xmlns:xlink="http://www.w3.org/1999/xlink" viewBox="0 0 1920 1277"><defs><style>.cls-1{fill:#e96160;}.cls-2{fill:url(#linear-gradient);}.cls-3{fill:#c0cfeb;}.cls-4{fill:#dde4f4;}.cls-5{fill:#98b1dc;}.cls-6{fill:url(#linear-gradient-2);}.cls-7{fill:url(#linear-gradient-3);}.cls-8{fill:url(#linear-gradient-4);}.cls-9{fill:url(#linear-gradient-5);}.cls-10{fill:url(#linear-gradient-6);}.cls-11{fill:url(#linear-gradient-7);}.cls-12{fill:url(#linear-gradient-8);}.cls-13{fill:url(#linear-gradient-9);}.cls-14{fill:url(#linear-gradient-10);}.cls-15{fill:url(#linear-gradient-11);}.cls-16{fill:url(#linear-gradient-12);}.cls-17{fill:url(#linear-gradient-13);}.cls-18{fill:url(#linear-gradient-14);}.cls-19{fill:url(#linear-gradient-15);}.cls-20{fill:url(#linear-gradient-16);}.cls-21{fill:url(#linear-gradient-17);}.cls-22{fill:url(#linear-gradient-18);}.cls-23{fill:url(#linear-gradient-19);}.cls-24{fill:url(#linear-gradient-20);}.cls-25{fill:url(#linear-gradient-21);}.cls-26{fill:url(#linear-gradient-22);}.cls-27{fill:url(#linear-gradient-23);}.cls-28{fill:url(#linear-gradient-24);}.cls-29{fill:url(#linear-gradient-25);}.cls-30{fill:url(#linear-gradient-26);}.cls-31{fill:url(#linear-gradient-27);}.cls-32{fill:url(#linear-gradient-28);}.cls-33{fill:url(#linear-gradient-29);}.cls-34{fill:url(#linear-gradient-30);}.cls-35{fill:url(#linear-gradient-31);}.cls-36{fill:url(#linear-gradient-32);}.cls-37{fill:url(#linear-gradient-33);}.cls-38{fill:url(#linear-gradient-34);}.cls-39{fill:url(#linear-gradient-35);}.cls-40{fill:url(#linear-gradient-36);}.cls-41{fill:#8193ca;}.cls-42{fill:url(#linear-gradient-37);}.cls-43{fill:url(#linear-gradient-38);}.cls-44{fill:url(#linear-gradient-39);}.cls-45{fill:url(#linear-gradient-40);}.cls-46{fill:url(#linear-gradient-41);}.cls-47{fill:url(#linear-gradient-42);}.cls-48{fill:url(#linear-gradient-43);}.cls-49{fill:url(#linear-gradient-44);}.cls-50{fill:url(#linear-gradient-45);}.cls-51{fill:url(#linear-gradient-46);}.cls-52{fill:url(#linear-gradient-47);}.cls-53{fill:url(#linear-gradient-48);}.cls-54{fill:url(#linear-gradient-49);}.cls-55{fill:url(#linear-gradient-50);}.cls-56{fill:url(#linear-gradient-51);}.cls-57{fill:url(#linear-gradient-52);}.cls-58{fill:url(#linear-gradient-53);}.cls-59{fill:url(#linear-gradient-54);}.cls-60{fill:url(#linear-gradient-55);}.cls-61{fill:url(#linear-gradient-56);}.cls-62{fill:url(#linear-gradient-57);}.cls-63{fill:url(#linear-gradient-58);}.cls-64{fill:url(#linear-gradient-59);}.cls-65{fill:url(#linear-gradient-60);}.cls-66{fill:url(#linear-gradient-61);}.cls-67{fill:url(#linear-gradient-62);}.cls-68{fill:url(#linear-gradient-63);}.cls-69{fill:url(#linear-gradient-64);}.cls-70{fill:url(#linear-gradient-65);}.cls-71{fill:url(#linear-gradient-66);}.cls-72{fill:url(#linear-gradient-67);}.cls-73{fill:url(#linear-gradient-68);}.cls-74{fill:url(#linear-gradient-69);}.cls-75{fill:url(#linear-gradient-70);}.cls-76{fill:url(#linear-gradient-71);}.cls-77{fill:url(#linear-gradient-72);}.cls-78{fill:url(#linear-gradient-73);}.cls-79{fill:url(#linear-gradient-74);}.cls-80{fill:url(#linear-gradient-75);}.cls-81{fill:url(#linear-gradient-76);}.cls-82{fill:url(#linear-gradient-77);}.cls-83{fill:url(#linear-gradient-78);}.cls-84{fill:url(#linear-gradient-79);}.cls-85{fill:url(#linear-gradient-80);}.cls-86{fill:url(#linear-gradient-81);}.cls-87{fill:url(#linear-gradient-82);}.cls-88{fill:url(#linear-gradient-83);}.cls-89{fill:url(#linear-gradient-84);}.cls-90{fill:url(#linear-gradient-85);}.cls-91{fill:url(#linear-gradient-86);}.cls-92{fill:url(#linear-gradient-87);}.cls-93{fill:url(#linear-gradient-88);}.cls-94{fill:url(#linear-gradient-89);}.cls-95{fill:url(#linear-gradient-90);}.cls-96{fill:url(#linear-gradient-91);}.cls-97{fill:url(#linear-gradient-92);}.cls-98{fill:url(#linear-gradient-93);}.cls-99{fill:url(#linear-gradient-94);}.cls-100{fill:url(#linear-gradient-95);}.cls-101{fill:url(#linear-gradient-96);}.cls-102{fill:url(#linear-gradient-97);}.cls-103{fill:url(#linear-gradient-98);}.cls-104{fill:url(#linear-gradient-99);}.cls-105{fill:url(#linear-gradient-100);}.cls-106{fill:url(#linear-gradient-101);}.cls-107{fill:url(#linear-gradient-102);}.cls-108{fill:url(#linear-gradient-103);}.cls-109{fill:url(#linear-gradient-104);}.cls-110{fill:url(#linear-gradient-105);}.cls-111{fill:url(#linear-gradient-106);}.cls-112{fill:url(#linear-gradient-107);}.cls-113{fill:url(#linear-gradient-108);}.cls-114{fill:url(#linear-gradient-109);}.cls-115{fill:url(#linear-gradient-110);}.cls-116{fill:url(#linear-gradient-111);}.cls-117{fill:url(#linear-gradient-112);}.cls-118{fill:url(#linear-gradient-113);}.cls-119{fill:url(#linear-gradient-114);}.cls-120{fill:url(#linear-gradient-115);}.cls-121{fill:url(#linear-gradient-116);}.cls-122{fill:url(#linear-gradient-117);}.cls-123{fill:url(#linear-gradient-118);}.cls-124{fill:url(#linear-gradient-119);}.cls-125{fill:url(#linear-gradient-120);}.cls-126{fill:url(#linear-gradient-121);}.cls-127{fill:url(#linear-gradient-122);}.cls-128{fill:url(#linear-gradient-123);}.cls-129{fill:url(#linear-gradient-124);}.cls-130{fill:url(#linear-gradient-125);}.cls-131{fill:url(#linear-gradient-126);}.cls-132{fill:url(#linear-gradient-127);}.cls-133{fill:url(#linear-gradient-128);}.cls-134{fill:url(#linear-gradient-129);}.cls-135{fill:url(#linear-gradient-130);}.cls-136{fill:url(#linear-gradient-131);}.cls-137{fill:url(#linear-gradient-132);}.cls-138{fill:url(#linear-gradient-133);}.cls-139{fill:url(#linear-gradient-134);}.cls-140{fill:url(#linear-gradient-135);}.cls-141{fill:url(#linear-gradient-136);}.cls-142{fill:url(#linear-gradient-137);}.cls-143{fill:url(#linear-gradient-138);}.cls-144{fill:url(#linear-gradient-139);}.cls-145{fill:url(#linear-gradient-140);}.cls-146{fill:url(#linear-gradient-141);}.cls-147{fill:url(#linear-gradient-142);}.cls-148{fill:url(#linear-gradient-143);}.cls-149{fill:url(#linear-gradient-144);}.cls-150{fill:url(#linear-gradient-145);}.cls-151{fill:url(#linear-gradient-146);}.cls-152{fill:url(#linear-gradient-147);}.cls-153{fill:url(#linear-gradient-148);}.cls-154{fill:url(#linear-gradient-149);}.cls-155{fill:url(#linear-gradient-150);}.cls-156{fill:url(#linear-gradient-151);}.cls-157{fill:url(#linear-gradient-152);}.cls-158{fill:url(#linear-gradient-153);}.cls-159{fill:url(#linear-gradient-154);}.cls-160{fill:url(#linear-gradient-155);}.cls-161{fill:url(#linear-gradient-156);}.cls-162{fill:url(#linear-gradient-157);}.cls-163{fill:url(#linear-gradient-158);}.cls-164{fill:url(#linear-gradient-159);}.cls-165{fill:url(#linear-gradient-160);}.cls-166{fill:url(#linear-gradient-161);}.cls-167{fill:url(#linear-gradient-162);}.cls-168{fill:url(#linear-gradient-163);}.cls-169{fill:url(#linear-gradient-164);}.cls-170{fill:url(#linear-gradient-165);}.cls-171{fill:url(#linear-gradient-166);}.cls-172{fill:url(#linear-gradient-167);}.cls-173{fill:url(#linear-gradient-168);}.cls-174{fill:url(#linear-gradient-169);}.cls-175{fill:url(#linear-gradient-170);}.cls-176{fill:url(#linear-gradient-171);}.cls-177{fill:url(#linear-gradient-172);}.cls-178{fill:url(#linear-gradient-173);}.cls-179{fill:url(#linear-gradient-174);}.cls-180{fill:url(#linear-gradient-175);}.cls-181{fill:url(#linear-gradient-176);}.cls-182{fill:url(#linear-gradient-177);}.cls-183{fill:url(#linear-gradient-178);}.cls-184{fill:url(#linear-gradient-179);}.cls-185{fill:url(#linear-gradient-180);}.cls-186{fill:url(#linear-gradient-181);}.cls-187{fill:url(#linear-gradient-182);}.cls-188{fill:url(#linear-gradient-183);}.cls-189{fill:url(#linear-gradient-184);}.cls-190{fill:url(#linear-gradient-185);}.cls-191{fill:url(#linear-gradient-186);}.cls-192{fill:url(#linear-gradient-187);}.cls-193{fill:url(#linear-gradient-188);}.cls-194{fill:url(#linear-gradient-189);}.cls-195{fill:url(#linear-gradient-190);}.cls-196{fill:url(#linear-gradient-191);}.cls-197{fill:url(#linear-gradient-192);}.cls-198{fill:url(#linear-gradient-193);}.cls-199{fill:url(#linear-gradient-194);}.cls-200{fill:url(#linear-gradient-195);}.cls-201{fill:url(#linear-gradient-196);}.cls-202{fill:url(#linear-gradient-197);}.cls-203{fill:url(#linear-gradient-198);}.cls-204{fill:url(#linear-gradient-199);}.cls-205{fill:url(#linear-gradient-200);}.cls-206{fill:url(#linear-gradient-201);}.cls-207{fill:url(#linear-gradient-202);}.cls-208{fill:url(#linear-gradient-203);}.cls-209{fill:url(#linear-gradient-204);}.cls-210{fill:url(#linear-gradient-205);}.cls-211{fill:url(#linear-gradient-206);}.cls-212{fill:url(#linear-gradient-207);}.cls-213{fill:url(#linear-gradient-208);}.cls-214{fill:url(#linear-gradient-209);}.cls-215{fill:url(#linear-gradient-210);}.cls-216{fill:url(#linear-gradient-211);}.cls-217{fill:url(#linear-gradient-212);}.cls-218,.cls-253{fill:#fff;}.cls-218{opacity:0.97;}.cls-219{fill:url(#linear-gradient-213);}.cls-220{fill:url(#linear-gradient-214);}.cls-221{fill:url(#linear-gradient-215);}.cls-222{fill:url(#linear-gradient-216);}.cls-223{fill:url(#linear-gradient-217);}.cls-224{fill:url(#linear-gradient-218);}.cls-225{fill:url(#linear-gradient-219);}.cls-226{fill:url(#linear-gradient-220);}.cls-227{fill:url(#linear-gradient-221);}.cls-228{fill:url(#linear-gradient-222);}.cls-229{fill:url(#linear-gradient-223);}.cls-230{fill:url(#linear-gradient-224);}.cls-231{fill:url(#linear-gradient-225);}.cls-232{fill:url(#linear-gradient-226);}.cls-233{fill:url(#linear-gradient-227);}.cls-234{fill:url(#linear-gradient-228);}.cls-235{fill:url(#linear-gradient-229);}.cls-236{fill:url(#linear-gradient-230);}.cls-237{fill:url(#linear-gradient-231);}.cls-238{fill:url(#linear-gradient-232);}.cls-239{fill:url(#linear-gradient-233);}.cls-240{fill:url(#linear-gradient-234);}.cls-241{fill:url(#linear-gradient-235);}.cls-242{fill:url(#linear-gradient-236);}.cls-243{fill:url(#linear-gradient-237);}.cls-244{fill:url(#linear-gradient-238);}.cls-245{fill:url(#linear-gradient-239);}.cls-246{fill:url(#linear-gradient-240);}.cls-247{fill:url(#linear-gradient-241);}.cls-248{fill:url(#linear-gradient-242);}.cls-249{fill:url(#linear-gradient-243);}.cls-250{fill:url(#linear-gradient-244);}.cls-251{fill:url(#linear-gradient-245);}.cls-252{fill:url(#linear-gradient-246);}.cls-254{fill:url(#linear-gradient-247);}.cls-255{fill:url(#linear-gradient-248);}.cls-256{fill:url(#linear-gradient-249);}.cls-257{fill:url(#linear-gradient-250);}.cls-258{fill:url(#linear-gradient-251);}.cls-259{fill:url(#linear-gradient-252);}.cls-260{fill:url(#linear-gradient-253);}.cls-261{opacity:0.8;}</style><linearGradient id="linear-gradient" x1="177.01" y1="607.87" x2="1742.99" y2="607.87" gradientUnits="userSpaceOnUse"><stop offset="0" stop-color="#dbe2f3"/><stop offset="1" stop-color="#eaeff8"/></linearGradient><linearGradient id="linear-gradient-2" x1="931.87" y1="880.49" x2="1071.26" y2="1107.27" gradientUnits="userSpaceOnUse"><stop offset="0" stop-color="#4c57a6"/><stop offset="1" stop-color="#5560ab"/></linearGradient><linearGradient id="linear-gradient-3" x1="952.23" y1="881.87" x2="1081.98" y2="1092.95" gradientTransform="translate(81.07 -77.66) rotate(4.61)" xlink:href="#linear-gradient-2"/><linearGradient id="linear-gradient-4" x1="965.01" y1="874.02" x2="1094.75" y2="1085.1" gradientTransform="translate(78.76 -77.76) rotate(4.61)" xlink:href="#linear-gradient-2"/><linearGradient id="linear-gradient-5" x1="977.79" y1="866.16" x2="1107.53" y2="1077.24" gradientTransform="translate(76.46 -77.85) rotate(4.61)" xlink:href="#linear-gradient-2"/><linearGradient id="linear-gradient-6" x1="990.57" y1="858.31" x2="1120.31" y2="1069.39" gradientTransform="translate(74.16 -77.94) rotate(4.61)" xlink:href="#linear-gradient-2"/><linearGradient id="linear-gradient-7" x1="1004.01" y1="434.06" x2="1001.2" y2="954.75" gradientUnits="userSpaceOnUse"><stop offset="0" stop-color="#201b59"/><stop offset="1" stop-color="#2d2d84"/></linearGradient><linearGradient id="linear-gradient-8" x1="1009.23" y1="434.09" x2="1006.41" y2="954.78" xlink:href="#linear-gradient-7"/><linearGradient id="linear-gradient-9" x1="1007.3" y1="434.08" x2="1004.49" y2="954.77" xlink:href="#linear-gradient-7"/><linearGradient id="linear-gradient-10" x1="1011.99" y1="434.11" x2="1009.18" y2="954.79" xlink:href="#linear-gradient-7"/><linearGradient id="linear-gradient-11" x1="1050.54" y1="876.07" x2="991.43" y2="248.44" gradientUnits="userSpaceOnUse"><stop offset="0" stop-color="#f37064"/><stop offset="1" stop-color="#f5928f"/></linearGradient><linearGradient id="linear-gradient-12" x1="1062.05" y1="614.79" x2="1084.01" y2="1312.41" gradientUnits="userSpaceOnUse"><stop offset="0" stop-color="#e1483d"/><stop offset="1" stop-color="#e9625a"/></linearGradient><linearGradient id="linear-gradient-13" x1="941.11" y1="618.59" x2="963.06" y2="1316.22" xlink:href="#linear-gradient-12"/><linearGradient id="linear-gradient-14" x1="1030.24" y1="96.1" x2="1018.98" y2="284.67" gradientUnits="userSpaceOnUse"><stop offset="0" stop-color="#f5928f"/><stop offset="1" stop-color="#f8b2b1"/></linearGradient><linearGradient id="linear-gradient-15" x1="1161.24" y1="-370.51" x2="1195.01" y2="434.44" xlink:href="#linear-gradient-14"/><linearGradient id="linear-gradient-16" x1="1211.78" y1="-372.64" x2="1245.55" y2="432.32" xlink:href="#linear-gradient-14"/><linearGradient id="linear-gradient-17" x1="228.28" y1="542.15" x2="388.84" y2="542.15" xlink:href="#linear-gradient-11"/><linearGradient id="linear-gradient-18" x1="316.12" y1="502.86" x2="385.07" y2="502.86" xlink:href="#linear-gradient-11"/><linearGradient id="linear-gradient-19" x1="6045.3" y1="1057.4" x2="6061.41" y2="956.06" gradientTransform="translate(-4742.17)" xlink:href="#linear-gradient-2"/><linearGradient id="linear-gradient-20" x1="6051.67" y1="1058.26" x2="6068.05" y2="955.28" gradientTransform="translate(-4742.17)" xlink:href="#linear-gradient-2"/><linearGradient id="linear-gradient-21" x1="6039.32" y1="1056.45" x2="6055.43" y2="955.11" gradientTransform="translate(-4742.17)" xlink:href="#linear-gradient-2"/><linearGradient id="linear-gradient-22" x1="1254.11" y1="999.79" x2="1254.11" y2="1122.93" xlink:href="#linear-gradient-14"/><linearGradient id="linear-gradient-23" x1="5908.25" y1="234.1" x2="5915.89" y2="300.9" gradientTransform="translate(-4742.17)" xlink:href="#linear-gradient-7"/><linearGradient id="linear-gradient-24" x1="1137.59" y1="1068.7" x2="1262.84" y2="963.15" xlink:href="#linear-gradient-14"/><linearGradient id="linear-gradient-25" x1="1291.58" y1="926.67" x2="1356.47" y2="1053.59" xlink:href="#linear-gradient-7"/><linearGradient id="linear-gradient-26" x1="5830.67" y1="242.96" x2="5838.31" y2="309.76" gradientTransform="translate(-4742.17)" xlink:href="#linear-gradient-7"/><linearGradient id="linear-gradient-27" x1="1266.09" y1="916.94" x2="1214.02" y2="976.75" xlink:href="#linear-gradient-11"/><linearGradient id="linear-gradient-28" x1="1284.43" y1="795.83" x2="1294.28" y2="890.12" xlink:href="#linear-gradient-14"/><linearGradient id="linear-gradient-29" x1="1299.58" y1="757.01" x2="1269.33" y2="811.9" xlink:href="#linear-gradient-14"/><linearGradient id="linear-gradient-30" x1="6095.23" y1="712.3" x2="6012.34" y2="798.53" gradientTransform="translate(-4742.17)" xlink:href="#linear-gradient-7"/><linearGradient id="linear-gradient-31" x1="1311.65" y1="763.67" x2="1281.39" y2="818.55" xlink:href="#linear-gradient-14"/><linearGradient id="linear-gradient-32" x1="6065.28" y1="905.15" x2="6170.34" y2="905.15" gradientTransform="translate(-4742.17)" xlink:href="#linear-gradient-14"/><linearGradient id="linear-gradient-33" x1="6132.06" y1="747.71" x2="6049.18" y2="833.93" gradientTransform="translate(-4742.17)" xlink:href="#linear-gradient-7"/><linearGradient id="linear-gradient-34" x1="5993.04" y1="1292.65" x2="5926.9" y2="1310.77" gradientTransform="translate(-4724.59 -100.71) rotate(-2.83)" xlink:href="#linear-gradient-7"/><linearGradient id="linear-gradient-35" x1="5977.76" y1="851.61" x2="5930.84" y2="901.21" gradientTransform="translate(-4742.17)" xlink:href="#linear-gradient-7"/><linearGradient id="linear-gradient-36" x1="5949.39" y1="863.96" x2="5928.1" y2="896.02" gradientTransform="translate(-4742.17)" xlink:href="#linear-gradient-2"/><linearGradient id="linear-gradient-37" x1="8526.43" y1="452.5" x2="8498.93" y2="641.68" gradientTransform="matrix(-1, 0, 0, 1, 9926.87, 0)" xlink:href="#linear-gradient-11"/><linearGradient id="linear-gradient-38" x1="1410.16" y1="458.83" x2="1390.46" y2="582.67" xlink:href="#linear-gradient-14"/><linearGradient id="linear-gradient-39" x1="1470.57" y1="468.44" x2="1450.87" y2="592.28" xlink:href="#linear-gradient-14"/><linearGradient id="linear-gradient-40" x1="1390.11" y1="455.64" x2="1370.41" y2="579.48" xlink:href="#linear-gradient-14"/><linearGradient id="linear-gradient-41" x1="1458.64" y1="466.54" x2="1438.94" y2="590.38" xlink:href="#linear-gradient-14"/><linearGradient id="linear-gradient-42" x1="1409.91" y1="458.79" x2="1390.21" y2="582.63" xlink:href="#linear-gradient-14"/><linearGradient id="linear-gradient-43" x1="1468.82" y1="468.16" x2="1449.12" y2="592" xlink:href="#linear-gradient-14"/><linearGradient id="linear-gradient-44" x1="1731.47" y1="1041.68" x2="1589.36" y2="1196.26" gradientTransform="matrix(-1, 0, 0, 1, 3185.28, 0)" xlink:href="#linear-gradient-7"/><linearGradient id="linear-gradient-45" x1="1685.34" y1="1053.16" x2="1697.97" y2="1053.16" gradientTransform="matrix(-1, 0, 0, 1, 3185.28, 0)" xlink:href="#linear-gradient-14"/><linearGradient id="linear-gradient-46" x1="1742.66" y1="866.87" x2="1621.73" y2="1030.77" gradientTransform="matrix(-1, 0, 0, 1, 3185.28, 0)" xlink:href="#linear-gradient-7"/><linearGradient id="linear-gradient-47" x1="1699.59" y1="1012.37" x2="1557.48" y2="1166.95" gradientTransform="matrix(-1, 0, 0, 1, 3185.28, 0)" xlink:href="#linear-gradient-7"/><linearGradient id="linear-gradient-48" x1="1639.85" y1="1052.52" x2="1650.75" y2="1052.52" gradientTransform="matrix(-1, 0, 0, 1, 3185.28, 0)" xlink:href="#linear-gradient-14"/><linearGradient id="linear-gradient-49" x1="1721.11" y1="850.97" x2="1600.18" y2="1014.87" gradientTransform="matrix(-1, 0, 0, 1, 3185.28, 0)" xlink:href="#linear-gradient-7"/><linearGradient id="linear-gradient-50" x1="1488.9" y1="731.93" x2="1551.03" y2="1067.26" xlink:href="#linear-gradient-2"/><linearGradient id="linear-gradient-51" x1="1394.36" y1="672.9" x2="1428.6" y2="740.92" xlink:href="#linear-gradient-14"/><linearGradient id="linear-gradient-52" x1="1382.9" y1="678.67" x2="1417.14" y2="746.69" xlink:href="#linear-gradient-14"/><linearGradient id="linear-gradient-53" x1="1397.06" y1="692.7" x2="1378.41" y2="674.76" xlink:href="#linear-gradient-14"/><linearGradient id="linear-gradient-54" x1="1551.61" y1="720.31" x2="1613.74" y2="1055.65" xlink:href="#linear-gradient-2"/><linearGradient id="linear-gradient-55" x1="1596.17" y1="815.19" x2="1677.78" y2="815.19" gradientTransform="matrix(-1, 0, 0, 1, 3185.28, 0)" xlink:href="#linear-gradient-14"/><linearGradient id="linear-gradient-56" x1="1702.47" y1="757.16" x2="1747.35" y2="944.15" gradientTransform="matrix(-1, 0, 0, 1, 3185.28, 0)" xlink:href="#linear-gradient-11"/><linearGradient id="linear-gradient-57" x1="1730.57" y1="727.69" x2="1721.01" y2="769.66" gradientTransform="matrix(-1, 0, 0, 1, 3185.28, 0)" xlink:href="#linear-gradient-7"/><linearGradient id="linear-gradient-58" x1="1725.57" y1="745.29" x2="1721" y2="772.72" gradientTransform="matrix(-1, 0, 0, 1, 3185.28, 0)" xlink:href="#linear-gradient-7"/><linearGradient id="linear-gradient-59" x1="1671.72" y1="806.63" x2="1697.15" y2="806.63" gradientTransform="matrix(-1, 0, 0, 1, 3185.28, 0)" xlink:href="#linear-gradient-14"/><linearGradient id="linear-gradient-60" x1="1513.16" y1="712.81" x2="1498.39" y2="781.77" xlink:href="#linear-gradient-14"/><linearGradient id="linear-gradient-61" x1="1549.72" y1="660.61" x2="1478.66" y2="716.2" xlink:href="#linear-gradient-14"/><linearGradient id="linear-gradient-62" x1="-4611.69" y1="-937.92" x2="-4601.6" y2="-880.4" gradientTransform="matrix(-0.75, -0.67, -0.67, 0.75, -2524.12, -1708.27)" xlink:href="#linear-gradient-7"/><linearGradient id="linear-gradient-63" x1="1557.3" y1="670.3" x2="1486.23" y2="725.88" xlink:href="#linear-gradient-14"/><linearGradient id="linear-gradient-64" x1="1191.17" y1="806.53" x2="1194.81" y2="806.53" xlink:href="#linear-gradient"/><linearGradient id="linear-gradient-65" x1="1187.78" y1="792.56" x2="1191.86" y2="792.56" xlink:href="#linear-gradient"/><linearGradient id="linear-gradient-66" x1="1183.18" y1="778.92" x2="1187.67" y2="778.92" xlink:href="#linear-gradient"/><linearGradient id="linear-gradient-67" x1="1177.42" y1="765.72" x2="1182.31" y2="765.72" xlink:href="#linear-gradient"/><linearGradient id="linear-gradient-68" x1="1170.6" y1="753.03" x2="1175.86" y2="753.03" xlink:href="#linear-gradient"/><linearGradient id="linear-gradient-69" x1="1162.81" y1="740.91" x2="1168.41" y2="740.91" xlink:href="#linear-gradient"/><linearGradient id="linear-gradient-70" x1="1154.13" y1="729.39" x2="1160.05" y2="729.39" xlink:href="#linear-gradient"/><linearGradient id="linear-gradient-71" x1="1144.67" y1="718.51" x2="1150.87" y2="718.51" xlink:href="#linear-gradient"/><linearGradient id="linear-gradient-72" x1="1134.5" y1="708.29" x2="1140.96" y2="708.29" xlink:href="#linear-gradient"/><linearGradient id="linear-gradient-73" x1="1123.69" y1="698.74" x2="1130.39" y2="698.74" xlink:href="#linear-gradient"/><linearGradient id="linear-gradient-74" x1="1112.32" y1="689.88" x2="1119.24" y2="689.88" xlink:href="#linear-gradient"/><linearGradient id="linear-gradient-75" x1="1100.45" y1="681.7" x2="1107.58" y2="681.7" xlink:href="#linear-gradient"/><linearGradient id="linear-gradient-76" x1="1088.13" y1="674.23" x2="1095.44" y2="674.23" xlink:href="#linear-gradient"/><linearGradient id="linear-gradient-77" x1="1075.41" y1="667.46" x2="1082.89" y2="667.46" xlink:href="#linear-gradient"/><linearGradient id="linear-gradient-78" x1="1062.34" y1="661.41" x2="1069.98" y2="661.41" xlink:href="#linear-gradient"/><linearGradient id="linear-gradient-79" x1="1048.96" y1="656.1" x2="1056.75" y2="656.1" xlink:href="#linear-gradient"/><linearGradient id="linear-gradient-80" x1="1035.3" y1="651.56" x2="1043.22" y2="651.56" xlink:href="#linear-gradient"/><linearGradient id="linear-gradient-81" x1="1021.42" y1="647.79" x2="1029.46" y2="647.79" xlink:href="#linear-gradient"/><linearGradient id="linear-gradient-82" x1="1007.38" y1="644.72" x2="1015.51" y2="644.72" xlink:href="#linear-gradient"/><linearGradient id="linear-gradient-83" x1="993.21" y1="642.29" x2="1001.43" y2="642.29" xlink:href="#linear-gradient"/><linearGradient id="linear-gradient-84" x1="978.95" y1="640.48" x2="987.26" y2="640.48" xlink:href="#linear-gradient"/><linearGradient id="linear-gradient-85" x1="964.64" y1="639.25" x2="973.02" y2="639.25" xlink:href="#linear-gradient"/><linearGradient id="linear-gradient-86" x1="950.3" y1="638.58" x2="958.73" y2="638.58" xlink:href="#linear-gradient"/><linearGradient id="linear-gradient-87" x1="935.94" y1="638.43" x2="944.43" y2="638.43" xlink:href="#linear-gradient"/><linearGradient id="linear-gradient-88" x1="921.59" y1="638.75" x2="930.13" y2="638.75" xlink:href="#linear-gradient"/><linearGradient id="linear-gradient-89" x1="907.25" y1="639.52" x2="915.85" y2="639.52" xlink:href="#linear-gradient"/><linearGradient id="linear-gradient-90" x1="892.97" y1="640.7" x2="901.58" y2="640.7" xlink:href="#linear-gradient"/><linearGradient id="linear-gradient-91" x1="878.72" y1="642.25" x2="887.33" y2="642.25" xlink:href="#linear-gradient"/><linearGradient id="linear-gradient-92" x1="864.51" y1="644.13" x2="873.13" y2="644.13" xlink:href="#linear-gradient"/><linearGradient id="linear-gradient-93" x1="850.34" y1="646.33" x2="858.97" y2="646.33" xlink:href="#linear-gradient"/><linearGradient id="linear-gradient-94" x1="836.22" y1="648.79" x2="844.85" y2="648.79" xlink:href="#linear-gradient"/><linearGradient id="linear-gradient-95" x1="822.14" y1="651.5" x2="830.78" y2="651.5" xlink:href="#linear-gradient"/><linearGradient id="linear-gradient-96" x1="808.11" y1="654.42" x2="816.75" y2="654.42" xlink:href="#linear-gradient"/><linearGradient id="linear-gradient-97" x1="794.11" y1="657.52" x2="802.76" y2="657.52" xlink:href="#linear-gradient"/><linearGradient id="linear-gradient-98" x1="780.15" y1="660.78" x2="788.81" y2="660.78" xlink:href="#linear-gradient"/><linearGradient id="linear-gradient-99" x1="766.21" y1="664.16" x2="774.88" y2="664.16" xlink:href="#linear-gradient"/><linearGradient id="linear-gradient-100" x1="752.29" y1="667.61" x2="760.97" y2="667.61" xlink:href="#linear-gradient"/><linearGradient id="linear-gradient-101" x1="738.38" y1="671.1" x2="747.08" y2="671.1" xlink:href="#linear-gradient"/><linearGradient id="linear-gradient-102" x1="724.47" y1="674.6" x2="733.19" y2="674.6" xlink:href="#linear-gradient"/><linearGradient id="linear-gradient-103" x1="710.56" y1="678.09" x2="719.3" y2="678.09" xlink:href="#linear-gradient"/><linearGradient id="linear-gradient-104" x1="696.63" y1="681.52" x2="705.4" y2="681.52" xlink:href="#linear-gradient"/><linearGradient id="linear-gradient-105" x1="682.68" y1="684.87" x2="691.48" y2="684.87" xlink:href="#linear-gradient"/><linearGradient id="linear-gradient-106" x1="668.71" y1="688.11" x2="677.53" y2="688.11" xlink:href="#linear-gradient"/><linearGradient id="linear-gradient-107" x1="654.69" y1="691.19" x2="663.55" y2="691.19" xlink:href="#linear-gradient"/><linearGradient id="linear-gradient-108" x1="640.64" y1="694.1" x2="649.54" y2="694.1" xlink:href="#linear-gradient"/><linearGradient id="linear-gradient-109" x1="626.54" y1="696.78" x2="635.47" y2="696.78" xlink:href="#linear-gradient"/><linearGradient id="linear-gradient-110" x1="612.4" y1="699.21" x2="621.36" y2="699.21" xlink:href="#linear-gradient"/><linearGradient id="linear-gradient-111" x1="598.22" y1="701.36" x2="607.21" y2="701.36" xlink:href="#linear-gradient"/><linearGradient id="linear-gradient-112" x1="583.99" y1="703.19" x2="593.02" y2="703.19" xlink:href="#linear-gradient"/><linearGradient id="linear-gradient-113" x1="569.72" y1="704.66" x2="578.79" y2="704.66" xlink:href="#linear-gradient"/><linearGradient id="linear-gradient-114" x1="555.43" y1="705.74" x2="564.52" y2="705.74" xlink:href="#linear-gradient"/><linearGradient id="linear-gradient-115" x1="541.09" y1="706.39" x2="550.22" y2="706.39" xlink:href="#linear-gradient"/><linearGradient id="linear-gradient-116" x1="526.75" y1="706.51" x2="535.9" y2="706.51" xlink:href="#linear-gradient"/><linearGradient id="linear-gradient-117" x1="512.42" y1="706.05" x2="521.59" y2="706.05" xlink:href="#linear-gradient"/><linearGradient id="linear-gradient-118" x1="498.12" y1="704.98" x2="507.3" y2="704.98" xlink:href="#linear-gradient"/><linearGradient id="linear-gradient-119" x1="483.9" y1="703.25" x2="493.07" y2="703.25" xlink:href="#linear-gradient"/><linearGradient id="linear-gradient-120" x1="469.79" y1="700.79" x2="478.95" y2="700.79" xlink:href="#linear-gradient"/><linearGradient id="linear-gradient-121" x1="455.85" y1="697.55" x2="464.97" y2="697.55" xlink:href="#linear-gradient"/><linearGradient id="linear-gradient-122" x1="442.14" y1="693.46" x2="451.21" y2="693.46" xlink:href="#linear-gradient"/><linearGradient id="linear-gradient-123" x1="428.74" y1="688.47" x2="437.73" y2="688.47" xlink:href="#linear-gradient"/><linearGradient id="linear-gradient-124" x1="415.77" y1="682.51" x2="424.64" y2="682.51" xlink:href="#linear-gradient"/><linearGradient id="linear-gradient-125" x1="403.33" y1="675.53" x2="412.05" y2="675.53" xlink:href="#linear-gradient"/><linearGradient id="linear-gradient-126" x1="391.56" y1="667.51" x2="400.08" y2="667.51" xlink:href="#linear-gradient"/><linearGradient id="linear-gradient-127" x1="380.58" y1="658.45" x2="388.87" y2="658.45" xlink:href="#linear-gradient"/><linearGradient id="linear-gradient-128" x1="370.53" y1="648.38" x2="378.54" y2="648.38" xlink:href="#linear-gradient"/><linearGradient id="linear-gradient-129" x1="361.56" y1="637.33" x2="369.25" y2="637.33" xlink:href="#linear-gradient"/><linearGradient id="linear-gradient-130" x1="353.72" y1="625.46" x2="361.08" y2="625.46" xlink:href="#linear-gradient"/><linearGradient id="linear-gradient-131" x1="347.04" y1="612.87" x2="354.07" y2="612.87" xlink:href="#linear-gradient"/><linearGradient id="linear-gradient-132" x1="341.52" y1="599.73" x2="348.21" y2="599.73" xlink:href="#linear-gradient"/><linearGradient id="linear-gradient-133" x1="337.16" y1="586.13" x2="343.52" y2="586.13" xlink:href="#linear-gradient"/><linearGradient id="linear-gradient-134" x1="333.94" y1="572.21" x2="339.97" y2="572.21" xlink:href="#linear-gradient"/><linearGradient id="linear-gradient-135" x1="331.84" y1="558.06" x2="337.55" y2="558.06" xlink:href="#linear-gradient"/><linearGradient id="linear-gradient-136" x1="330.83" y1="543.78" x2="336.23" y2="543.78" xlink:href="#linear-gradient"/><linearGradient id="linear-gradient-137" x1="330.77" y1="529.45" x2="336.14" y2="529.45" xlink:href="#linear-gradient"/><linearGradient id="linear-gradient-138" x1="331.59" y1="515.16" x2="337.31" y2="515.16" xlink:href="#linear-gradient"/><linearGradient id="linear-gradient-139" x1="333.47" y1="500.97" x2="339.53" y2="500.97" xlink:href="#linear-gradient"/><linearGradient id="linear-gradient-140" x1="336.41" y1="486.98" x2="342.81" y2="486.98" xlink:href="#linear-gradient"/><linearGradient id="linear-gradient-141" x1="340.4" y1="473.27" x2="347.14" y2="473.27" xlink:href="#linear-gradient"/><linearGradient id="linear-gradient-142" x1="345.44" y1="459.92" x2="352.52" y2="459.92" xlink:href="#linear-gradient"/><linearGradient id="linear-gradient-143" x1="351.54" y1="447.03" x2="358.96" y2="447.03" xlink:href="#linear-gradient"/><linearGradient id="linear-gradient-144" x1="358.64" y1="434.67" x2="366.35" y2="434.67" xlink:href="#linear-gradient"/><linearGradient id="linear-gradient-145" x1="366.61" y1="422.86" x2="374.59" y2="422.86" xlink:href="#linear-gradient"/><linearGradient id="linear-gradient-146" x1="375.39" y1="411.63" x2="383.62" y2="411.63" xlink:href="#linear-gradient"/><linearGradient id="linear-gradient-147" x1="384.91" y1="401.03" x2="393.37" y2="401.03" xlink:href="#linear-gradient"/><linearGradient id="linear-gradient-148" x1="395.11" y1="391.07" x2="403.78" y2="391.07" xlink:href="#linear-gradient"/><linearGradient id="linear-gradient-149" x1="405.92" y1="381.77" x2="414.78" y2="381.77" xlink:href="#linear-gradient"/><linearGradient id="linear-gradient-150" x1="417.27" y1="373.15" x2="426.31" y2="373.15" xlink:href="#linear-gradient"/><linearGradient id="linear-gradient-151" x1="429.12" y1="365.2" x2="438.31" y2="365.2" xlink:href="#linear-gradient"/><linearGradient id="linear-gradient-152" x1="441.4" y1="357.93" x2="450.73" y2="357.93" xlink:href="#linear-gradient"/><linearGradient id="linear-gradient-153" x1="454.06" y1="351.34" x2="463.51" y2="351.34" xlink:href="#linear-gradient"/><linearGradient id="linear-gradient-154" x1="467.06" y1="345.43" x2="476.64" y2="345.43" xlink:href="#linear-gradient"/><linearGradient id="linear-gradient-155" x1="480.37" y1="340.21" x2="490.03" y2="340.21" xlink:href="#linear-gradient"/><linearGradient id="linear-gradient-156" x1="493.92" y1="335.68" x2="503.67" y2="335.68" xlink:href="#linear-gradient"/><linearGradient id="linear-gradient-157" x1="507.69" y1="331.85" x2="517.52" y2="331.85" xlink:href="#linear-gradient"/><linearGradient id="linear-gradient-158" x1="521.64" y1="328.71" x2="531.54" y2="328.71" xlink:href="#linear-gradient"/><linearGradient id="linear-gradient-159" x1="535.74" y1="326.29" x2="545.69" y2="326.29" xlink:href="#linear-gradient"/><linearGradient id="linear-gradient-160" x1="549.94" y1="324.54" x2="559.94" y2="324.54" xlink:href="#linear-gradient"/><linearGradient id="linear-gradient-161" x1="564.21" y1="323.43" x2="574.24" y2="323.43" xlink:href="#linear-gradient"/><linearGradient id="linear-gradient-162" x1="578.52" y1="322.93" x2="588.57" y2="322.93" xlink:href="#linear-gradient"/><linearGradient id="linear-gradient-163" x1="592.84" y1="323.03" x2="602.9" y2="323.03" xlink:href="#linear-gradient"/><linearGradient id="linear-gradient-164" x1="607.17" y1="323.69" x2="617.2" y2="323.69" xlink:href="#linear-gradient"/><linearGradient id="linear-gradient-165" x1="621.47" y1="324.89" x2="631.46" y2="324.89" xlink:href="#linear-gradient"/><linearGradient id="linear-gradient-166" x1="635.72" y1="326.61" x2="645.67" y2="326.61" xlink:href="#linear-gradient"/><linearGradient id="linear-gradient-167" x1="649.9" y1="328.82" x2="659.8" y2="328.82" xlink:href="#linear-gradient"/><linearGradient id="linear-gradient-168" x1="664.01" y1="331.49" x2="673.85" y2="331.49" xlink:href="#linear-gradient"/><linearGradient id="linear-gradient-169" x1="678.01" y1="334.6" x2="687.81" y2="334.6" xlink:href="#linear-gradient"/><linearGradient id="linear-gradient-170" x1="691.94" y1="338.12" x2="701.68" y2="338.12" xlink:href="#linear-gradient"/><linearGradient id="linear-gradient-171" x1="705.76" y1="342.03" x2="715.45" y2="342.03" xlink:href="#linear-gradient"/><linearGradient id="linear-gradient-172" x1="719.47" y1="346.32" x2="729.1" y2="346.32" xlink:href="#linear-gradient"/><linearGradient id="linear-gradient-173" x1="733.07" y1="350.95" x2="742.64" y2="350.95" xlink:href="#linear-gradient"/><linearGradient id="linear-gradient-174" x1="746.55" y1="355.91" x2="756.06" y2="355.91" xlink:href="#linear-gradient"/><linearGradient id="linear-gradient-175" x1="759.91" y1="361.19" x2="769.36" y2="361.19" xlink:href="#linear-gradient"/><linearGradient id="linear-gradient-176" x1="773.15" y1="366.72" x2="782.54" y2="366.72" xlink:href="#linear-gradient"/><linearGradient id="linear-gradient-177" x1="786.29" y1="372.48" x2="795.63" y2="372.48" xlink:href="#linear-gradient"/><linearGradient id="linear-gradient-178" x1="799.36" y1="378.41" x2="808.65" y2="378.41" xlink:href="#linear-gradient"/><linearGradient id="linear-gradient-179" x1="812.36" y1="384.47" x2="821.62" y2="384.47" xlink:href="#linear-gradient"/><linearGradient id="linear-gradient-180" x1="825.33" y1="390.61" x2="834.56" y2="390.61" xlink:href="#linear-gradient"/><linearGradient id="linear-gradient-181" x1="838.28" y1="396.79" x2="847.48" y2="396.79" xlink:href="#linear-gradient"/><linearGradient id="linear-gradient-182" x1="851.23" y1="402.95" x2="860.41" y2="402.95" xlink:href="#linear-gradient"/><linearGradient id="linear-gradient-183" x1="864.21" y1="409.06" x2="873.36" y2="409.06" xlink:href="#linear-gradient"/><linearGradient id="linear-gradient-184" x1="877.25" y1="415.07" x2="886.35" y2="415.07" xlink:href="#linear-gradient"/><linearGradient id="linear-gradient-185" x1="890.35" y1="420.93" x2="899.41" y2="420.93" xlink:href="#linear-gradient"/><linearGradient id="linear-gradient-186" x1="903.53" y1="426.59" x2="912.55" y2="426.59" xlink:href="#linear-gradient"/><linearGradient id="linear-gradient-187" x1="916.81" y1="432.01" x2="925.8" y2="432.01" xlink:href="#linear-gradient"/><linearGradient id="linear-gradient-188" x1="930.21" y1="437.14" x2="939.17" y2="437.14" xlink:href="#linear-gradient"/><linearGradient id="linear-gradient-189" x1="943.74" y1="441.92" x2="952.67" y2="441.92" xlink:href="#linear-gradient"/><linearGradient id="linear-gradient-190" x1="957.39" y1="446.32" x2="966.29" y2="446.32" xlink:href="#linear-gradient"/><linearGradient id="linear-gradient-191" x1="971.18" y1="450.28" x2="980.05" y2="450.28" xlink:href="#linear-gradient"/><linearGradient id="linear-gradient-192" x1="985.09" y1="453.76" x2="993.94" y2="453.76" xlink:href="#linear-gradient"/><linearGradient id="linear-gradient-193" x1="999.14" y1="456.69" x2="1007.96" y2="456.69" xlink:href="#linear-gradient"/><linearGradient id="linear-gradient-194" x1="1013.3" y1="459.02" x2="1022.09" y2="459.02" xlink:href="#linear-gradient"/><linearGradient id="linear-gradient-195" x1="1027.56" y1="460.7" x2="1036.29" y2="460.7" xlink:href="#linear-gradient"/><linearGradient id="linear-gradient-196" x1="1041.87" y1="461.66" x2="1050.56" y2="461.66" xlink:href="#linear-gradient"/><linearGradient id="linear-gradient-197" x1="1056.23" y1="461.88" x2="1064.84" y2="461.88" xlink:href="#linear-gradient"/><linearGradient id="linear-gradient-198" x1="1070.61" y1="461.24" x2="1079.09" y2="461.24" xlink:href="#linear-gradient"/><linearGradient id="linear-gradient-199" x1="1084.93" y1="459.7" x2="1093.26" y2="459.7" xlink:href="#linear-gradient"/><linearGradient id="linear-gradient-200" x1="1099.13" y1="457.23" x2="1107.29" y2="457.23" xlink:href="#linear-gradient"/><linearGradient id="linear-gradient-201" x1="1113.15" y1="453.83" x2="1121.12" y2="453.83" xlink:href="#linear-gradient"/><linearGradient id="linear-gradient-202" x1="1126.91" y1="449.49" x2="1134.67" y2="449.49" xlink:href="#linear-gradient"/><linearGradient id="linear-gradient-203" x1="1140.34" y1="444.19" x2="1147.87" y2="444.19" xlink:href="#linear-gradient"/><linearGradient id="linear-gradient-204" x1="1153.36" y1="437.91" x2="1160.61" y2="437.91" xlink:href="#linear-gradient"/><linearGradient id="linear-gradient-205" x1="1165.85" y1="430.63" x2="1172.8" y2="430.63" xlink:href="#linear-gradient"/><linearGradient id="linear-gradient-206" x1="1177.7" y1="422.34" x2="1184.32" y2="422.34" xlink:href="#linear-gradient"/><linearGradient id="linear-gradient-207" x1="1188.79" y1="413.04" x2="1195.03" y2="413.04" xlink:href="#linear-gradient"/><linearGradient id="linear-gradient-208" x1="1198.99" y1="402.77" x2="1204.81" y2="402.77" xlink:href="#linear-gradient"/><linearGradient id="linear-gradient-209" x1="-5694.94" y1="813.81" x2="-5670.31" y2="651.98" gradientTransform="matrix(-1, 0, 0, 1, -4995.91, 0)" xlink:href="#linear-gradient-2"/><linearGradient id="linear-gradient-210" x1="-5493.9" y1="844.4" x2="-5469.27" y2="682.57" gradientTransform="matrix(-1, 0, 0, 1, -4995.91, 0)" xlink:href="#linear-gradient-2"/><linearGradient id="linear-gradient-211" x1="-5593.1" y1="829.38" x2="-5568.47" y2="667.54" gradientTransform="matrix(-1, 0, 0, 1, -4995.91, 0)" xlink:href="#linear-gradient-2"/><linearGradient id="linear-gradient-212" x1="612.56" y1="500.95" x2="588.64" y2="930.87" xlink:href="#linear-gradient-2"/><linearGradient id="linear-gradient-213" x1="528.48" y1="258.6" x2="659.69" y2="258.6" gradientTransform="matrix(1, 0.09, -0.09, 1, 110.69, 286.22)" xlink:href="#linear-gradient-2"/><linearGradient id="linear-gradient-214" x1="528.48" y1="271.54" x2="659.69" y2="271.54" gradientTransform="translate(950.88 13.48) rotate(90)" xlink:href="#linear-gradient-2"/><linearGradient id="linear-gradient-215" x1="566.91" y1="281.94" x2="659.69" y2="281.94" gradientTransform="matrix(1, 0.09, -0.09, 1, 110.69, 286.22)" xlink:href="#linear-gradient-2"/><linearGradient id="linear-gradient-216" x1="422.51" y1="305" x2="650.1" y2="305" gradientTransform="translate(117.89 298.65) rotate(5.04)" xlink:href="#linear-gradient-2"/><linearGradient id="linear-gradient-217" x1="479.97" y1="333.39" x2="482.84" y2="333.39" gradientTransform="translate(117.89 298.65) rotate(5.04)" xlink:href="#linear-gradient-2"/><linearGradient id="linear-gradient-218" x1="537.84" y1="358.64" x2="540.71" y2="358.64" gradientTransform="translate(117.89 298.65) rotate(5.04)" xlink:href="#linear-gradient-2"/><linearGradient id="linear-gradient-219" x1="579.68" y1="344.86" x2="584.46" y2="344.86" gradientTransform="translate(117.89 298.65) rotate(5.04)" xlink:href="#linear-gradient-2"/><linearGradient id="linear-gradient-220" x1="623.75" y1="361.38" x2="626.62" y2="361.38" gradientTransform="translate(117.89 298.65) rotate(5.04)" xlink:href="#linear-gradient-2"/><linearGradient id="linear-gradient-221" x1="505.36" y1="657.79" x2="511.28" y2="658.31" xlink:href="#linear-gradient-2"/><linearGradient id="linear-gradient-222" x1="511.17" y1="591.98" x2="517.09" y2="592.5" xlink:href="#linear-gradient-2"/><linearGradient id="linear-gradient-223" x1="491.06" y1="718.14" x2="740.86" y2="740.18" xlink:href="#linear-gradient-2"/><linearGradient id="linear-gradient-224" x1="491.06" y1="718.14" x2="740.86" y2="740.18" xlink:href="#linear-gradient-2"/><linearGradient id="linear-gradient-225" x1="6611.85" y1="1050.16" x2="6641.83" y2="1050.16" gradientTransform="translate(-6108.89)" xlink:href="#linear-gradient-7"/><linearGradient id="linear-gradient-226" x1="6686.9" y1="1014.8" x2="6577.84" y2="1100.43" gradientTransform="translate(-6108.89)" xlink:href="#linear-gradient-2"/><linearGradient id="linear-gradient-227" x1="6834.97" y1="519.02" x2="6719.4" y2="638.75" gradientTransform="translate(-6108.89)" xlink:href="#linear-gradient-2"/><linearGradient id="linear-gradient-228" x1="6776.56" y1="593.58" x2="6719.3" y2="659.18" gradientTransform="translate(-6108.89)" xlink:href="#linear-gradient-11"/><linearGradient id="linear-gradient-229" x1="6794.09" y1="575.91" x2="6763.9" y2="614.96" gradientTransform="translate(-6108.89)" xlink:href="#linear-gradient-7"/><linearGradient id="linear-gradient-230" x1="6571.65" y1="844.48" x2="6611.63" y2="844.48" gradientTransform="translate(-6108.89)" xlink:href="#linear-gradient-14"/><linearGradient id="linear-gradient-231" x1="6620.19" y1="1016.03" x2="6614.46" y2="1066.01" gradientTransform="translate(-6108.89)" xlink:href="#linear-gradient-14"/><linearGradient id="linear-gradient-232" x1="6706.28" y1="1039.47" x2="6597.21" y2="1125.11" gradientTransform="translate(-6108.89)" xlink:href="#linear-gradient-2"/><linearGradient id="linear-gradient-233" x1="6657.5" y1="1050.96" x2="6700.66" y2="1050.96" gradientTransform="translate(-6108.89)" xlink:href="#linear-gradient-7"/><linearGradient id="linear-gradient-234" x1="6666.84" y1="1021.38" x2="6661.11" y2="1071.35" gradientTransform="translate(-6108.89)" xlink:href="#linear-gradient-14"/><linearGradient id="linear-gradient-235" x1="6734.88" y1="792.85" x2="6551.72" y2="1077.05" gradientTransform="translate(-6108.89)" xlink:href="#linear-gradient-7"/><linearGradient id="linear-gradient-236" x1="512.35" y1="808.29" x2="456.99" y2="956.52" xlink:href="#linear-gradient-11"/><linearGradient id="linear-gradient-237" x1="6758.57" y1="636.48" x2="6718.71" y2="692.73" gradientTransform="translate(-6108.89)" xlink:href="#linear-gradient-14"/><linearGradient id="linear-gradient-238" x1="6741.69" y1="624.52" x2="6701.83" y2="680.77" gradientTransform="translate(-6108.89)" xlink:href="#linear-gradient-14"/><linearGradient id="linear-gradient-239" x1="6632.84" y1="692.7" x2="6610.98" y2="787.18" gradientTransform="translate(-6108.89)" xlink:href="#linear-gradient-14"/><linearGradient id="linear-gradient-240" x1="2919.57" y1="3670.67" x2="2880.78" y2="3721.99" gradientTransform="translate(-4153.36 284.27) rotate(-46.73)" xlink:href="#linear-gradient-14"/><linearGradient id="linear-gradient-241" x1="2889.95" y1="3682.99" x2="2936.28" y2="3682.99" gradientTransform="translate(-4153.36 284.27) rotate(-46.73)" xlink:href="#linear-gradient-7"/><linearGradient id="linear-gradient-242" x1="2862.76" y1="3711.31" x2="2893.87" y2="3679.39" gradientTransform="translate(-4153.36 284.27) rotate(-46.73)" xlink:href="#linear-gradient-14"/><linearGradient id="linear-gradient-243" x1="477.5" y1="764.87" x2="391.65" y2="829.6" xlink:href="#linear-gradient-12"/><linearGradient id="linear-gradient-244" x1="510.59" y1="896.58" x2="514.35" y2="841.22" xlink:href="#linear-gradient-7"/><linearGradient id="linear-gradient-245" x1="4587.94" y1="-1768.79" x2="4599.11" y2="-1878.89" gradientTransform="translate(-2900.08 -2220.47) rotate(52.97)" xlink:href="#linear-gradient-12"/><linearGradient id="linear-gradient-246" x1="5572.88" y1="-2514.39" x2="5642.54" y2="-2555.55" gradientTransform="translate(-2900.08 -2220.47) rotate(52.97)" xlink:href="#linear-gradient-11"/><linearGradient id="linear-gradient-247" x1="5608.32" y1="-2454.36" x2="5677.98" y2="-2495.52" gradientTransform="translate(-2900.08 -2220.47) rotate(52.97)" xlink:href="#linear-gradient-11"/><linearGradient id="linear-gradient-248" x1="2649.48" y1="-3367.58" x2="2698.7" y2="-2871.83" gradientTransform="translate(-1566.1 -2728.94) rotate(95.88)" xlink:href="#linear-gradient-7"/><linearGradient id="linear-gradient-249" x1="1558.03" y1="171.64" x2="1459.88" y2="262.41" xlink:href="#linear-gradient-11"/><linearGradient id="linear-gradient-250" x1="2772.11" y1="-3258.87" x2="2841.41" y2="-3258.87" gradientTransform="translate(751.64 -4009.21) rotate(129.39)" xlink:href="#linear-gradient-2"/><linearGradient id="linear-gradient-251" x1="4570.34" y1="-2029.82" x2="4627.07" y2="-2029.82" gradientTransform="translate(-539.92 -4370.62) rotate(90)" xlink:href="#linear-gradient-7"/><linearGradient id="linear-gradient-252" x1="2826.19" y1="-3207.34" x2="2871.97" y2="-3207.34" gradientTransform="translate(765.02 -3969.04) rotate(129.39)" xlink:href="#linear-gradient-2"/><linearGradient id="linear-gradient-253" x1="4579.62" y1="-1962.84" x2="4617.11" y2="-1962.84" gradientTransform="translate(-526.55 -4330.24) rotate(90)" xlink:href="#linear-gradient-7"/></defs><rect class="cls-1" width="1920" height="1277"/><path class="cls-2" d="M1659.2,695c-12.25-61.93,37.31-116.71,63.14-174.3,46.29-103.22,11.46-232.81-71.49-309.72s-205.63-103.13-316.68-81.54C1162,163,1010.56,300.34,836.07,282.33c-76.54-7.91-146.23-45.48-217.37-74.82S467.24,156.6,394.5,181.69c-71.76,24.74-123.32,93.24-139.36,167.43s0,152.64,32.26,221.33c17,36.14,37.72,81.5,12.28,112.29C281.34,705,248.1,706.23,223,720.27c-40.24,22.47-54.07,76.9-41.42,121.21s46,79.7,81.87,108.65c118,95.23,276.28,138.65,426.3,116.9l-8.39-15.66c156.52-11.69,312.48,21,468.75,35.75s322.46,9.17,457.5-70.83c36.26-21.48,70.16-48.69,92.44-84.46s31.73-81.08,18.17-121C1704.16,769.62,1667.64,737.75,1659.2,695Z"/><path class="cls-3" d="M1653.66,306c-5.79,87.26-60.24,593.69-544.64,627.95,0,0-50-342.62,534-635.07A7.4,7.4,0,0,1,1653.66,306Z"/><path class="cls-4" d="M1596.69,372.87c-12.6,25-25.69,49.63-39,74.2s-26.93,48.95-40.82,73.19c-27.78,48.48-56.64,96.36-87,143.31s-62.1,93-96.31,137.27q-25.56,33.28-53.54,64.65c-18.69,20.85-38.23,41-59.34,59.54a2.86,2.86,0,1,1-3.78-4.3h0c21-18.23,40.46-38.14,59.14-58.78s36.54-42.07,53.62-64.1c34.32-44,66.23-89.78,96.77-136.48s59.58-94.41,87.57-142.71q21-36.22,41.14-72.94c13.42-24.47,26.64-49.07,39.33-73.91h0a1.21,1.21,0,0,1,2.17,1.09Z"/><path class="cls-3" d="M1735.33,705.68a5.61,5.61,0,0,0-7.06-8.28c-50.42,25.26-184.73,87.37-286.12,87.2-165.09-.28-361.42,78.17-389.35,199.91C1052.8,984.51,1365.72,1222.82,1735.33,705.68Z"/><path class="cls-4" d="M1670.61,749.69c-1.36,1-2.63,1.85-3.93,2.75l-3.91,2.57-7.86,5.06c-5.27,3.34-10.58,6.61-15.9,9.87q-16,9.72-32.17,19.08c-21.6,12.47-43.52,24.38-65.61,36s-44.48,22.59-67.1,33.13-45.4,20.71-68.5,30.15a1212.55,1212.55,0,0,1-141.53,48.68c-3,.86-6,1.62-9.06,2.36l-9.08,2.27-9.08,2.27c-3,.72-6.1,1.35-9.14,2-6.11,1.3-12.18,2.76-18.31,4l-18.4,3.47a656.6,656.6,0,0,1-74.35,8.55.71.71,0,0,1-.1-1.42h0a712,712,0,0,0,73.91-10l18.29-3.67c6.08-1.26,12.12-2.78,18.18-4.15,3-.72,6.06-1.39,9.08-2.14l9-2.36,9-2.37c3-.77,6-1.57,9-2.47,24-6.63,47.66-14.26,71.16-22.4s46.67-17.27,69.75-26.57c46.08-18.79,91.18-40,135.59-62.47q33.27-16.95,65.88-35.18,16.3-9.09,32.44-18.52,8-4.74,16-9.57l8-4.87,3.95-2.48c1.29-.84,2.66-1.69,3.8-2.51l.13-.09a.71.71,0,0,1,.84,1.14Z"/><path class="cls-3" d="M403.5,306c5.79,87.26,60.24,593.69,544.64,627.95,0,0,50-342.62-534-635.07A7.4,7.4,0,0,0,403.5,306Z"/><path class="cls-4" d="M462.64,371.79c12.69,24.84,25.91,49.44,39.33,73.91s27.14,48.79,41.14,72.94q42,72.45,87.57,142.71c30.54,46.7,62.45,92.53,96.76,136.48q25.63,33,53.63,64.1c18.68,20.64,38.18,40.55,59.14,58.78h0a2.86,2.86,0,1,1-3.76,4.32h0c-21.11-18.54-40.65-38.69-59.34-59.54S740.6,823,723.57,800.84c-34.21-44.27-66-90.35-96.32-137.27s-59.19-94.83-87-143.31q-20.84-36.36-40.82-73.19c-13.31-24.57-26.41-49.24-39-74.2a1.21,1.21,0,0,1,2.17-1.09Z"/><path class="cls-3" d="M973.74,1013.83s-41.7-98-165.07-130.41C694.2,853.37,418.26,793,326.59,709.26c-4.06-3.71-9.94,3.22-7.67,9,24.44,62.53,95.81,210.93,246.87,292.51C760.59,1116,973.74,1013.83,973.74,1013.83Z"/><path class="cls-4" d="M401.43,795.61c13.41,21.18,30.6,39.67,49.15,56.32a359.6,359.6,0,0,0,60.6,43.64q16.23,9.25,33.19,17.14c2.84,1.28,5.71,2.5,8.56,3.75l4.28,1.87,4.34,1.72,8.67,3.47,8.78,3.19,4.39,1.59,4.45,1.45,8.88,2.89c3,.91,6,1.74,9,2.62s6,1.78,9,2.5c12,3.12,24.25,6,36.46,8.69,24.42,5.49,49,10.37,73.58,15q18.46,3.4,37,6.54l37.06,6.26c12.36,2,24.73,4.09,37.09,6.25s24.72,4.37,37,7.12a362.85,362.85,0,0,1,36.44,9.83c6,2,11.86,4.28,17.61,6.88a141.07,141.07,0,0,1,16.61,9,.7.7,0,0,1,.22,1,.73.73,0,0,1-1,.23h0a142,142,0,0,0-16.68-8.37q-8.62-3.58-17.56-6.36a362.85,362.85,0,0,0-36.36-8.87c-24.53-4.8-49.32-8.44-74.1-12.22-49.59-7.36-99.11-15.86-148.11-26.87-12.25-2.73-24.47-5.52-36.67-8.77-3.06-.75-6.07-1.71-9.1-2.58s-6-1.77-9.06-2.7l-9-3-4.48-1.49-4.44-1.63-8.87-3.28-8.76-3.57-4.37-1.8-4.32-1.94c-2.87-1.31-5.75-2.57-8.61-3.91q-17.07-8.16-33.37-17.78A363.37,363.37,0,0,1,448.65,854a306.1,306.1,0,0,1-25.82-27.48c-8-9.71-15.49-19.84-21.56-30.84a.08.08,0,0,1,0-.12A.09.09,0,0,1,401.43,795.61Z"/><rect class="cls-5" x="339.44" y="738.17" width="74.22" height="324.16"/><rect class="cls-5" x="463.46" y="849.58" width="74.22" height="212.75"/><rect class="cls-5" x="587.47" y="574.24" width="74.22" height="488.09"/><rect class="cls-5" x="711.49" y="945.07" width="74.22" height="117.26"/><rect class="cls-5" x="835.51" y="639.49" width="74.22" height="422.83"/><rect class="cls-5" x="959.53" y="712.7" width="74.22" height="349.62"/><rect class="cls-5" x="1083.55" y="792.28" width="74.22" height="270.05"/><rect class="cls-5" x="1207.57" y="475.56" width="74.22" height="586.76"/><rect class="cls-5" x="1331.58" y="537.63" width="74.22" height="524.69"/><rect class="cls-5" x="1455.6" y="631.53" width="74.22" height="430.79"/><rect class="cls-5" x="1579.62" y="955.95" width="74.22" height="106.38"/><path class="cls-6" d="M1085.36,1003.11c-.44,30.12-39.1,62.21-83.76,62.21s-78.43-23.54-80.87-53.56c-5.82-71.61,36.2-70.86,80.87-70.86S1086.44,928.67,1085.36,1003.11Z"/><ellipse class="cls-7" cx="1005.32" cy="968.25" rx="113.23" ry="29.6" transform="translate(-74.56 83.93) rotate(-4.61)"/><ellipse class="cls-8" cx="1005.32" cy="939.6" rx="113.23" ry="29.6" transform="translate(-72.26 83.83) rotate(-4.61)"/><ellipse class="cls-9" cx="1005.32" cy="910.96" rx="113.23" ry="29.6" transform="translate(-69.96 83.74) rotate(-4.61)"/><ellipse class="cls-10" cx="1005.32" cy="882.32" rx="113.23" ry="29.6" transform="translate(-67.66 83.65) rotate(-4.61)"/><path class="cls-11" d="M974.1,1000.64c-18.51,0-35.45-1.36-49.44-4a1.5,1.5,0,1,1,.56-2.94c21.9,4.19,51.15,5.11,82.36,2.6,25.54-2.06,49.43-6.18,69.08-11.92a1.5,1.5,0,0,1,.83,2.88c-19.84,5.79-43.93,9.94-69.67,12C996.23,1000.18,984.9,1000.64,974.1,1000.64Z"/><path class="cls-12" d="M974.41,972c-24,0-45.54-2.26-60.7-6.58a1.5,1.5,0,1,1,.82-2.88c21.6,6.15,56.39,8.06,93.05,5.1,36.27-2.92,70.09-10.28,90.48-19.69a1.51,1.51,0,0,1,2,.74,1.48,1.48,0,0,1-.73,2c-20.69,9.55-54.9,17-91.5,20C996.4,971.52,985.15,972,974.41,972Z"/><path class="cls-13" d="M974.11,943.35c-26,0-48.7-2.66-64-7.71a1.5,1.5,0,0,1,.94-2.84c21.29,7,57.37,9.32,96.53,6.17,36.27-2.93,70.09-10.29,90.48-19.69a1.5,1.5,0,0,1,1.26,2.72c-20.7,9.54-54.9,17-91.5,20C996.23,942.89,984.89,943.35,974.11,943.35Z"/><path class="cls-14" d="M974.31,914.69c-20.6,0-39.34-1.67-53.91-4.9a1.5,1.5,0,0,1,.65-2.93c21.91,4.87,53.45,6.13,86.53,3.46,35.94-2.9,69.6-10.17,90-19.47a1.49,1.49,0,0,1,1.24,2.72c-20.72,9.44-54.75,16.81-91,19.74C996.36,914.23,985.08,914.69,974.31,914.69Z"/><path class="cls-15" d="M850.62,757.27a210.88,210.88,0,0,0-37.74-73.7c-37.11-46.77-97.65-141.88-105.1-271.69C696.94,223.07,864.4,128.54,1017.2,141.37S1320.79,268,1304.28,443.63c-10.15,108.08-70.65,190.06-115.69,237.14a250.14,250.14,0,0,0-60,106.39C1115,836,1082.86,896.78,1006.4,900.49,907.47,905.29,866.38,813.07,850.62,757.27Z"/><path class="cls-16" d="M1031.68,862.84l53.46-347.75c1.11-7.19,4.64-12,7.9-10.78s5,8.06,3.9,15.24c0,.19-.07.43-.11.62l-60.9,344.52c-.46,2.59-1.77,4.22-2.94,3.65S1031.29,865.35,1031.68,862.84Z"/><path class="cls-17" d="M976.17,865.6,922.71,517.85c-1.11-7.19-4.64-12-7.9-10.78s-5,8.06-3.9,15.24c0,.19.07.43.11.62l60.9,344.52c.46,2.59,1.77,4.22,2.94,3.65S976.56,868.11,976.17,865.6Z"/><path class="cls-18" d="M1084.76,485.23a5.6,5.6,0,0,0-7-1.82L1048,497.32l-10.34-29.45a6.26,6.26,0,0,0-3.62-3.64c-3.42-1.41-7.52-.15-9.14,2.82l-.06.09-24.48,44.64-22.72-63.54,0-.11a7.27,7.27,0,0,0-3.44-3.88c-3.81-2.08-8.84-1.09-11.24,2.22l-34.23,47.12a4.12,4.12,0,0,0,1.21,5.94,5.73,5.73,0,0,0,7.28-.79l30.14-33.62,27.13,60.46,0,0a4.84,4.84,0,0,0,2.39,2.35,5.67,5.67,0,0,0,7.1-1.84l26.19-42,9.85,21.25.09.19a3.88,3.88,0,0,0,.24.45,5.61,5.61,0,0,0,7,1.82l35.34-16.51A4.2,4.2,0,0,0,1084.76,485.23Z"/><path class="cls-19" d="M1189.76,631.31a2.1,2.1,0,0,1-1.28-.43,2.14,2.14,0,0,1-.45-3,400.15,400.15,0,0,0,25.1-38.12,2.15,2.15,0,1,1,3.72,2.15,404.18,404.18,0,0,1-25.36,38.53A2.15,2.15,0,0,1,1189.76,631.31Z"/><path class="cls-20" d="M1233.74,555.82a2.16,2.16,0,0,1-2-3,331.32,331.32,0,0,0,25.35-172.07c-5.36-43.9-18-71.84-18.11-72.12a2.15,2.15,0,1,1,3.91-1.79c.13.28,13,28.71,18.45,73.21a335.74,335.74,0,0,1-25.65,174.49A2.17,2.17,0,0,1,1233.74,555.82Z"/><path class="cls-5" d="M487.47,631.79a3.16,3.16,0,0,0-.61-6.13c-15.1-2-37.23-7.87-44.48-25.59-11.37-27.8,12.18-135-96-154.16-99.83-17.69-155.43,13.9-154.16,106.14C193.4,641.47,337.1,683.39,487.47,631.79Z"/><path class="cls-21" d="M310.19,479.91a6.39,6.39,0,0,0-6.19-6.66c-11.74-.38-37.65,3-61.86,34.83-32.62,42.88-6,101.86,62.78,103,63.24,1,84.88-46.72,83.89-75.62a5.54,5.54,0,0,0-7.3-5l-67.46,22.22a5.19,5.19,0,0,1-6.81-5.16Z"/><path class="cls-22" d="M326.83,471.81l-10.65,63.34a4.2,4.2,0,0,0,5.91,4.52l58.08-26.82a8.38,8.38,0,0,0,4.49-10.19C381,491.34,369.51,470.43,335,465.72A7.35,7.35,0,0,0,326.83,471.81Z"/><rect class="cls-23" x="1305.23" y="980.5" width="7.45" height="80.61"/><path class="cls-24" d="M1279.55,1057.81h58.8a3.24,3.24,0,0,1,3.24,3.24v1.61a0,0,0,0,1,0,0h-65.29a0,0,0,0,1,0,0V1061A3.24,3.24,0,0,1,1279.55,1057.81Z"/><rect class="cls-25" x="1269.2" y="962.43" width="82.08" height="23.28" rx="8.02"/><path class="cls-26" d="M1253.92,926.75s-11.07,1.72-23.52,10a6.19,6.19,0,0,0-2.74,5.93c1.49,11.81,7.62,50,27.84,87.39a9.44,9.44,0,0,1,.9,6.45l-3.51,16.34-6.52,6.11h16.78l11.17-30.23-4.78-1.51a9,9,0,0,1-6.31-8.46l-.56-32.43c.48-14.45-8.86-24.42-8.86-24.42l26.8-1.3Z"/><path class="cls-27" d="M1239.82,1062c-1.53,2,16.45,4.64,25.53.26,0,0,12.58-21.9,12.58-33.17,0,0-1-2.3-8.39-1.78,0,0-4.22,25.93-8.69,28.84s-12.48.29-12.48.29S1242.07,1059,1239.82,1062Z"/><path class="cls-28" d="M1277.22,962.43c-.15-.24-28.85-3.45-28.85-3.45a66.32,66.32,0,0,1-2,20.75c-2.93,12-45.08,64.07-45.08,64.07l4.42,14a71,71,0,0,1-40.33,2.42l27.38-16.43s25.64-87.35,41.34-102.93l28.77-10Z"/><path class="cls-29" d="M1341.6,911.61s16.54,24.6,17.89,35.82S1355,963.21,1337.61,964s-63.68.74-63.68.74l-39.54-33.79s28.81-10.28,36.3-13.19S1341.6,911.61,1341.6,911.61Z"/><path class="cls-30" d="M1204,1053.09s4.75,4.61,1.54,9.74c0,0-37.69,6.68-47.92,3.65,0,0,2.12-4.85,13.64-10.37l-.85.65a1.38,1.38,0,0,0,.91,2.47C1179,1058.79,1194.67,1057.4,1204,1053.09Z"/><path class="cls-31" d="M1296.87,908.35s-19.26-18.34-28.74-30.48a25.77,25.77,0,0,1-4.37-23.2c4.33-14.58,12-29.69,12.73-32,1.07-3.6,22.67-3.45,22.67-3.45s42.49,27.58,59.19,74.3l-18.75,5.84s-11.1-18.62-22.06-30.45c0,0,19,25.06,19.64,35.32Z"/><path class="cls-32" d="M1273.87,802.5c.23.75,5.87,19.43,6.31,19.82s12.36,1,18-2.81l-9.52-19.92Z"/><path class="cls-33" d="M1283.13,763.25s-10.17,4.3-17.09,19-1.75,21.49,4.74,22.43,16.19.79,26.46-8.71S1296.36,758.16,1283.13,763.25Z"/><path class="cls-34" d="M1290.34,788.12s7.67-21.52-11.4-21.77l-4.49,3.14s-7-11.93,4.49-17.62,28.63-.63,33.51,14.85,2,25.46-6.1,32.87-11.48-1-11.48-1,4.42-6.93,2.62-10.63-6,.76-6,.76Z"/><path class="cls-35" d="M1292.48,790.51s3.88-11.08,9.06-6.67-4.21,10.24-7.89,12.13Z"/><path class="cls-36" d="M1257.63,909.71l14.15-13.64,19.58,8.27s19.48,3,30.63,0l11.16-3,25.2-7.85,4,11.19a6.74,6.74,0,0,1-2.46,7.73,44.21,44.21,0,0,1-6.37,4c-3.32,1.45-81.81-1-81.81-1Z"/><path class="cls-37" d="M1311,769.14a4.37,4.37,0,0,1,2.6-7.28c11.19-1.74,28.23,0,35.39,24,8.07,27,13.32,40.45,18.71,42.81a4.39,4.39,0,0,1,.24,8.05c-2.61,1.17-6.34,1.59-11.68.41C1315,828,1325.34,783.84,1311,769.14Z"/><path class="cls-38" d="M1311.18,916.14H1311l-82.08-.09a3.68,3.68,0,0,1,0-7.35l82.09.09a3.67,3.67,0,0,1,.18,7.34Z"/><path class="cls-39" d="M1155.12,841.62h68.36a13,13,0,0,1,11.78,7.47l31.6,67h-84.95a7.91,7.91,0,0,1-7.36-5l-24.51-62A5.45,5.45,0,0,1,1155.12,841.62Z"/><path class="cls-40" d="M1203.28,876c1.48,4.6.38,9.07-2.45,10s-6.33-2.08-7.81-6.68-.38-9.08,2.45-10S1201.8,871.37,1203.28,876Z"/><path class="cls-41" d="M1425.91,919.14a3,3,0,0,0-.71-2.62,3.5,3.5,0,0,0-2.61-1.16H1080a4,4,0,0,0-3.28,1.69,3.47,3.47,0,0,0-.26,3.5l3.72,7.53a5.22,5.22,0,0,0,4.72,2.83h335.29a3.88,3.88,0,0,0,3.87-3Z"/><path class="cls-41" d="M1099.24,1077.87a2.92,2.92,0,0,1-1.18-.26,3.11,3.11,0,0,1-1.58-4l63-149.95a3,3,0,0,1,4-1.61,3.1,3.1,0,0,1,1.57,4l-63,150A3,3,0,0,1,1099.24,1077.87Z"/><path class="cls-41" d="M1170.27,1077.87a3,3,0,0,1-2.77-1.87l-63-150a3.1,3.1,0,0,1,1.57-4,3,3,0,0,1,4,1.61l63,149.95a3.11,3.11,0,0,1-1.58,4A3,3,0,0,1,1170.27,1077.87Z"/><path class="cls-41" d="M1347.5,1077.87a3,3,0,0,1-1.18-.26,3.11,3.11,0,0,1-1.58-4l63-149.95a3,3,0,0,1,4-1.61,3.1,3.1,0,0,1,1.57,4l-63,150A3,3,0,0,1,1347.5,1077.87Z"/><path class="cls-41" d="M1418.53,1077.87a3,3,0,0,1-2.77-1.87l-63-150a3.1,3.1,0,0,1,1.57-4,3,3,0,0,1,4,1.61l63,149.95a3.11,3.11,0,0,1-1.58,4A2.92,2.92,0,0,1,1418.53,1077.87Z"/><path class="cls-42" d="M1449.69,667s-148.48-73.36-99.92-127.38,139.08-32.42,143.67,24.43S1387.84,607.52,1449.69,667Z"/><path class="cls-43" d="M1427.86,555h-65.53a1.44,1.44,0,1,1,0-2.87h65.53a1.44,1.44,0,0,1,0,2.87Z"/><path class="cls-44" d="M1466.76,555h-19.45a1.44,1.44,0,0,1,0-2.87h19.45a1.44,1.44,0,0,1,0,2.87Z"/><path class="cls-45" d="M1384.72,568.24h-24.6a1.44,1.44,0,0,1,0-2.87h24.6a1.44,1.44,0,1,1,0,2.87Z"/><path class="cls-46" d="M1464.55,568.24h-43.72a1.44,1.44,0,0,1,0-2.87h43.72a1.44,1.44,0,0,1,0,2.87Z"/><path class="cls-47" d="M1423.32,581.5h-65.41a1.43,1.43,0,0,1,0-2.86h65.41a1.43,1.43,0,0,1,0,2.86Z"/><path class="cls-48" d="M1462.34,581.5H1439.7a1.43,1.43,0,1,1,0-2.86h22.64a1.43,1.43,0,1,1,0,2.86Z"/><path class="cls-49" d="M1498.73,1053.2s1.48,8.33,2.2,16.58a5.68,5.68,0,0,1-5.44,6.15c-11,.46-34.48,1.35-42.91,1a1.85,1.85,0,0,1-1.62-2.54h0a4.15,4.15,0,0,1,2.11-2.23l38.81-17.83Z"/><path class="cls-50" d="M1499.94,1048.3l-1.18,10s-6.8,3.16-11.44-.4l2.81-11.11Z"/><path class="cls-51" d="M1499.05,860.94c.51,2.6,2.74,129.87-10.86,186.91a1.94,1.94,0,0,0,1.13,2.25,33.7,33.7,0,0,0,11.08,2.25,3.34,3.34,0,0,0,3.31-2.39c3.89-13.24,22.52-79.54,25-142.87,2.71-70.77,0-2.41,0-2.41l-1.6-43.75Z"/><path class="cls-52" d="M1543.38,1057.54s2.34,4.21,4.61,15.39a3.46,3.46,0,0,1-3,4.15c-3.63.36-9.21.82-13.69.78a3.45,3.45,0,0,1-3.42-3.85c.5-4.08,2-10.77,6.81-16Z"/><path class="cls-53" d="M1545.43,1044.73l-2.76,15.07s-2.73,2-8.13.56l1.31-16.22Z"/><path class="cls-54" d="M1552.9,864.84c11.12,67.15-2.42,166-7,185.31a3,3,0,0,1-2.44,2.29,20.23,20.23,0,0,1-8.7-.35,2.77,2.77,0,0,1-2-2.54c-.61-15.64.49-111.63-9.88-149.57a8.54,8.54,0,0,0-3.32-4.75l-20.12-14.31-1.54-23.12Z"/><path class="cls-55" d="M1482,737.61c33.34-.55,70.13,8.75,70.13,8.75,9.94,58,1.74,124.89,1.74,124.89-25.81,6.77-54.93-4.14-54.93-4.14-4.29-24.24-24.31-92.46-24.31-92.46-16.29-2-29.71-6.72-40.77-12.94,8.43-9.77,12.41-22.2,14.14-29.55C1459.78,735.82,1471.71,737.78,1482,737.61Z"/><path class="cls-56" d="M1383.51,688.49a6.38,6.38,0,0,1,7.42-2.08c4.9,20.72,30.63,37.53,57.07,45.75-1.73,7.35-5.71,19.78-14.14,29.55C1390,737.05,1383.51,688.49,1383.51,688.49Z"/><path class="cls-57" d="M1384.3,689.5c-.34,1.09,3.63,2.75,6-1.71.09-2.14,1.38-11.29.11-13-6.8-9.26-20-20.88-20-20.88a3.15,3.15,0,0,0-.39,4.36l6.39,6.66c-1.33,2.41-3,4.45-3.73,7.38a9,9,0,0,0,.89,6.59c1.13,2,2.66,4.65,4.1,6.71A8.86,8.86,0,0,0,1384.3,689.5Z"/><path class="cls-58" d="M1379.19,669.22l5.83,4.94,1.82,4.91-5.19,5.77s-1.75-9.76-3-11.87S1378,669.84,1379.19,669.22Z"/><path class="cls-59" d="M1539.35,778.65l12.78-32.29s31.15,21.16,36.27,48a73.9,73.9,0,0,0-27.07,7.26C1559,788.94,1539.35,778.65,1539.35,778.65Z"/><path class="cls-60" d="M1512.13,809s35,19.76,46.77,2.89a13.29,13.29,0,0,0,2.43-10.31,73.9,73.9,0,0,1,27.07-7.26,37,37,0,0,1-4,25.39c-20.67,37.81-76.88-2.09-76.88-2.09Z"/><path class="cls-61" d="M1516.33,834l-19.09-66.65a2,2,0,0,0-1.64-1.4c-3.46-.4-13.48-1.53-25-2.51-13.94-1.18-30.12-2.13-39.79-1.32a2,2,0,0,0-1.6,2.8c5.5,11.13,28.12,56.38,39.45,71.21a2,2,0,0,0,1.57.77l44.28-.41A2,2,0,0,0,1516.33,834Z"/><path class="cls-62" d="M1468.58,757.69l-13.84-2.3a1,1,0,0,0-1.11,1.29l1.37,4.15a1,1,0,0,0,.81.67l13.32,1.78a1,1,0,0,0,1.1-1.21l-.85-3.63A1,1,0,0,0,1468.58,757.69Z"/><path class="cls-63" d="M1478.94,769.41l-1.14-5.94a1.38,1.38,0,0,0-1.21-1.11l-27.95-2.83a1.37,1.37,0,0,0-1.47,1.68l1.77,7.4a1.38,1.38,0,0,0,1.27,1l27.31,1.38A1.38,1.38,0,0,0,1478.94,769.41Z"/><path class="cls-64" d="M1511.72,817.93s2.66-10.93,1.58-14.81-3.15-8.87-10.07-7.76a101.32,101.32,0,0,0-15.1,4s.42,5.05,5.68,3.42l-3.26,2.53s.46,4,4.91,1.88l-3,3.35s1.91,3.32,5.18,1.19S1502.44,819.25,1511.72,817.93Z"/><path class="cls-65" d="M1515.77,710.54l10.61,30.68a1.1,1.1,0,0,1-.5,1.33c-2.89,1.6-13.31,6.22-25.87-1.74a5.21,5.21,0,0,1-2.4-3.72l-3.43-26.55Z"/><path class="cls-66" d="M1492.69,682.12s-11.65,21.93-10.16,30.79,15.93,8.23,28.54,1l8.81-23.68Z"/><path class="cls-67" d="M1510.52,702.31a.9.9,0,0,1-.4-1.32,23.86,23.86,0,0,0,3.24-6.88s2.1-1.35-5.33-3.12-18.5-4.54-20.82-10.86c-2.27-6.16,3.69-21.66,13.2-9.31a.9.9,0,0,0,1.43,0c1.56-2,5.66-6.24,11.35-3.69,5.33,2.39,5.93,6.29,5.86,8.26a.89.89,0,0,0,1.06.92c2.69-.51,9.16-1,12.17,5.68,2.49,5.46.87,8.55-.6,10.06a.91.91,0,0,0,.39,1.5c1.77.54,4,2,3.82,6.19-.31,5.73-6.72,5.22-8.55,5a.92.92,0,0,0-.8.28c-1.56,1.74-8.61,9.09-16.24,10a.91.91,0,0,1-1-1.2l3.3-9.6a.9.9,0,0,0-.49-1.12Z"/><path class="cls-68" d="M1509.19,703.67s8.29-5.69,8.9-.9-7.47,7-11.47,5.16Z"/><path class="cls-69" d="M1192,808.89l-.76-4.2v0a1.44,1.44,0,0,1,2.84-.51h0l.76,4.28a1.43,1.43,0,0,1-2.82.5Z"/><path class="cls-70" d="M1189,795l-1.13-4.1v0a1.47,1.47,0,1,1,2.83-.78h0l1.14,4.19a1.46,1.46,0,0,1-2.82.76Z"/><path class="cls-71" d="M1184.78,781.44l-1.49-4,0,0a1.5,1.5,0,0,1,2.81-1h0l1.5,4.06a1.49,1.49,0,1,1-2.79,1Z"/><path class="cls-72" d="M1179.41,768.3l-1.83-3.85v0a1.52,1.52,0,1,1,2.75-1.31h0l1.84,3.92a1.52,1.52,0,1,1-2.75,1.29Z"/><path class="cls-73" d="M1173,755.65l-2.13-3.68,0,0a1.55,1.55,0,1,1,2.69-1.55h0l2.16,3.77a1.54,1.54,0,0,1-2.68,1.53Z"/><path class="cls-74" d="M1165.52,743.56l-2.41-3.51,0,0a1.58,1.58,0,1,1,2.6-1.79h0l2.44,3.58a1.58,1.58,0,1,1-2.61,1.77Z"/><path class="cls-75" d="M1157.17,732.06l-2.66-3.33,0,0a1.61,1.61,0,1,1,2.51-2h0l2.7,3.39a1.6,1.6,0,1,1-2.51,2Z"/><path class="cls-76" d="M1148,721.19l-2.89-3.13,0,0a1.64,1.64,0,0,1,2.41-2.22h0l2.92,3.2a1.63,1.63,0,0,1-2.4,2.2Z"/><path class="cls-77" d="M1138.13,711,1135,708l0,0a1.67,1.67,0,0,1,2.3-2.42h0l3.13,3a1.66,1.66,0,1,1-2.29,2.4Z"/><path class="cls-78" d="M1127.6,701.41l-3.28-2.73,0,0a1.69,1.69,0,1,1,2.17-2.6h0l3.31,2.79a1.69,1.69,0,0,1-2.17,2.58Z"/><path class="cls-79" d="M1116.49,692.53l-3.44-2.53,0,0a1.72,1.72,0,1,1,2-2.77h0l3.48,2.58a1.72,1.72,0,0,1-2,2.76Z"/><path class="cls-80" d="M1104.86,684.34l-3.59-2.33,0,0a1.75,1.75,0,1,1,1.9-2.93h0l3.63,2.37a1.74,1.74,0,0,1-1.91,2.92Z"/><path class="cls-81" d="M1092.76,676.83l-3.7-2.11,0,0a1.78,1.78,0,1,1,1.76-3.09h0l3.75,2.16a1.77,1.77,0,0,1-1.77,3.07Z"/><path class="cls-82" d="M1080.27,670l-3.83-1.9,0,0a1.8,1.8,0,1,1,1.61-3.23h0l3.87,1.94a1.8,1.8,0,0,1-1.61,3.22Z"/><path class="cls-83" d="M1067.4,663.94l-3.92-1.68h0a1.84,1.84,0,0,1,1.45-3.38h0l4,1.73a1.83,1.83,0,0,1-1.45,3.35Z"/><path class="cls-84" d="M1054.22,658.59l-4-1.46h0a1.87,1.87,0,0,1,1.28-3.51h0l4.06,1.5a1.87,1.87,0,0,1,1.1,2.39,1.84,1.84,0,0,1-2.38,1.09Z"/><path class="cls-85" d="M1040.76,654l-4.08-1.23h0a1.89,1.89,0,1,1,1.09-3.62h0l4.14,1.27a1.88,1.88,0,0,1-1.1,3.6Z"/><path class="cls-86" d="M1027.06,650.16l-4.14-1h0a1.92,1.92,0,0,1,.91-3.74h0l4.2,1a1.91,1.91,0,1,1-.92,3.71Z"/><path class="cls-87" d="M1013.18,647l-4.2-.81h0a2,2,0,1,1,.74-3.83h0l4.25.84a1.94,1.94,0,0,1-.75,3.81Z"/><path class="cls-88" d="M999.15,644.56l-4.23-.63h0a2,2,0,1,1,.58-3.91h0l4.28.64a2,2,0,0,1-.59,3.9Z"/><path class="cls-89" d="M985,642.69l-4.25-.44h0a2,2,0,0,1,.42-4h0l4.3.46a2,2,0,1,1-.43,4Z"/><path class="cls-90" d="M970.84,641.42l-4.27-.28h0a2,2,0,0,1,.26-4.06h0l4.31.29a2,2,0,0,1-.28,4Z"/><path class="cls-91" d="M956.6,640.7l-4.27-.12h0a2.06,2.06,0,0,1,.11-4.12h0l4.32.13a2.06,2.06,0,0,1-.12,4.11Z"/><path class="cls-92" d="M942.35,640.49l-4.28,0h0a2.09,2.09,0,1,1,0-4.18h0l4.32,0a2.08,2.08,0,0,1,0,4.16Z"/><path class="cls-93" d="M928.09,640.78l-4.28.17h0a2.12,2.12,0,0,1-.17-4.24h0l4.31-.15a2.1,2.1,0,0,1,2.19,2,2.12,2.12,0,0,1-2,2.19Z"/><path class="cls-94" d="M913.84,641.51l-4.27.3h0a2.15,2.15,0,0,1-.3-4.29h0l4.3-.28a2.14,2.14,0,0,1,.29,4.27Z"/><path class="cls-95" d="M899.61,642.64l-4.26.41h0a2.16,2.16,0,0,1-.41-4.3h0l4.3-.41a2.15,2.15,0,0,1,.41,4.29Z"/><path class="cls-96" d="M885.41,644.14l-4.25.51h0a2.17,2.17,0,1,1-.53-4.31h0l4.28-.52a2.17,2.17,0,0,1,.52,4.3Z"/><path class="cls-97" d="M871.25,646l-4.24.61h0a2.18,2.18,0,0,1-.63-4.31h0l4.28-.61a2.18,2.18,0,1,1,.61,4.31Z"/><path class="cls-98" d="M857.13,648.13l-4.23.7h0a2.18,2.18,0,1,1-.72-4.31h0l4.26-.7a2.18,2.18,0,0,1,.71,4.31Z"/><path class="cls-99" d="M843,650.56l-4.21.78h0A2.2,2.2,0,1,1,838,647h0l4.24-.78a2.2,2.2,0,1,1,.79,4.32Z"/><path class="cls-100" d="M829,653.24l-4.2.84h0a2.2,2.2,0,0,1-.88-4.32h0l4.22-.85a2.2,2.2,0,1,1,.87,4.32Z"/><path class="cls-101" d="M815,656.13l-4.2.91h0a2.22,2.22,0,0,1-.93-4.34h0l4.21-.9a2.21,2.21,0,0,1,.93,4.33Z"/><path class="cls-102" d="M801,659.21l-4.19,1h0a2.23,2.23,0,0,1-1-4.34h0l4.21-1a2.22,2.22,0,1,1,1,4.33Z"/><path class="cls-103" d="M787.09,662.46l-4.18,1a2.24,2.24,0,1,1-1-4.35h0l4.19-1a2.24,2.24,0,0,1,1,4.35Z"/><path class="cls-104" d="M773.17,665.82l-4.18,1a2.25,2.25,0,1,1-1.08-4.36h0l4.19-1a2.24,2.24,0,0,1,1.06,4.36Z"/><path class="cls-105" d="M759.26,669.27l-4.16,1a2.25,2.25,0,1,1-1.11-4.37h0l4.17-1a2.25,2.25,0,0,1,1.09,4.37Z"/><path class="cls-106" d="M745.37,672.77l-4.17,1.05a2.26,2.26,0,0,1-1.11-4.39h0l4.17-1a2.26,2.26,0,0,1,1.11,4.39Z"/><path class="cls-107" d="M731.48,676.28l-4.17,1.05a2.28,2.28,0,1,1-1.12-4.41h0l4.17-1a2.27,2.27,0,0,1,1.11,4.41Z"/><path class="cls-108" d="M717.57,679.78l-4.17,1.05a2.29,2.29,0,0,1-1.11-4.44h0l4.17-1a2.28,2.28,0,1,1,1.1,4.43Z"/><path class="cls-109" d="M703.65,683.24l-4.18,1a2.3,2.3,0,0,1-1.09-4.46h0l4.17-1a2.29,2.29,0,1,1,1.09,4.45Z"/><path class="cls-110" d="M689.71,686.62l-4.19,1a2.3,2.3,0,0,1-1.06-4.48h0l4.18-1a2.3,2.3,0,1,1,1.06,4.48Z"/><path class="cls-111" d="M675.73,689.89l-4.2,1a2.31,2.31,0,1,1-1-4.51h0l4.19-.94h0a2.31,2.31,0,1,1,1,4.51Z"/><path class="cls-112" d="M661.72,693l-4.21.91a2.33,2.33,0,0,1-1-4.55h0l4.2-.9h0a2.32,2.32,0,0,1,1,4.54Z"/><path class="cls-113" d="M647.66,696l-4.23.84a2.33,2.33,0,1,1-.92-4.57h0l4.21-.83h0a2.33,2.33,0,0,1,.91,4.57Z"/><path class="cls-114" d="M633.55,698.7l-4.24.77a2.34,2.34,0,1,1-.85-4.61h0l4.22-.77h0a2.34,2.34,0,0,1,.84,4.61Z"/><path class="cls-115" d="M619.39,701.19l-4.26.69a2.35,2.35,0,1,1-.76-4.64h0l4.23-.68h0a2.35,2.35,0,0,1,.75,4.64Z"/><path class="cls-116" d="M605.18,703.4l-4.27.6a2.36,2.36,0,1,1-.66-4.68h0l4.24-.6h0a2.36,2.36,0,0,1,.65,4.68Z"/><path class="cls-117" d="M590.93,705.29l-4.29.5a2.37,2.37,0,0,1-.55-4.71h0l4.25-.49h0a2.37,2.37,0,0,1,.55,4.71Z"/><path class="cls-118" d="M576.62,706.83l-4.3.39a2.38,2.38,0,1,1-.43-4.74h0l4.25-.38h0a2.38,2.38,0,1,1,.43,4.74Z"/><path class="cls-119" d="M562.28,708l-4.31.27a2.39,2.39,0,1,1-.3-4.78h0l4.27-.26h0a2.39,2.39,0,0,1,.3,4.77Z"/><path class="cls-120" d="M547.89,708.73l-4.33.12a2.4,2.4,0,1,1-.13-4.8h0l4.27-.12h0a2.4,2.4,0,0,1,.13,4.8Z"/><path class="cls-121" d="M533.47,708.94l-4.33,0a2.42,2.42,0,1,1,.05-4.83h0l4.27,0h0a2.41,2.41,0,0,1,0,4.82Z"/><path class="cls-122" d="M519,708.58l-4.32-.22a2.42,2.42,0,1,1,.25-4.84h0l4.26.23h0a2.42,2.42,0,0,1-.26,4.83Z"/><path class="cls-123" d="M504.63,707.61l-4.31-.42a2.43,2.43,0,0,1,.47-4.84h0l4.24.41h0a2.43,2.43,0,1,1-.48,4.83Z"/><path class="cls-124" d="M490.28,706l-4.29-.63a2.44,2.44,0,0,1,.71-4.83h0l4.21.63h0a2.44,2.44,0,1,1-.71,4.83Z"/><path class="cls-125" d="M476,703.62l-4.25-.86a2.45,2.45,0,1,1,1-4.8h0l4.17.84h0a2.45,2.45,0,1,1-1,4.8Z"/><path class="cls-126" d="M461.89,700.48l-4.21-1.1a2.46,2.46,0,0,1,1.25-4.76H459l4.11,1.09h.05a2.46,2.46,0,0,1-1.25,4.75Z"/><path class="cls-127" d="M448,696.49l-4.13-1.37a2.47,2.47,0,0,1,1.56-4.69h0l.05,0,4,1.35h0a2.47,2.47,0,1,1-1.56,4.68Z"/><path class="cls-128" d="M434.31,691.59l-4-1.66a2.48,2.48,0,1,1,1.89-4.58h0l.05,0,3.93,1.62.05,0a2.48,2.48,0,0,1-1.89,4.58Z"/><path class="cls-129" d="M421,685.71l-3.89-2a2.49,2.49,0,0,1,2.24-4.45h0l.05,0,3.78,1.91.06,0a2.49,2.49,0,0,1-2.25,4.44Z"/><path class="cls-130" d="M408.25,678.8l-3.72-2.28a2.5,2.5,0,1,1,2.61-4.26h0l.06,0,3.61,2.22.05,0a2.5,2.5,0,0,1-2.61,4.26Z"/><path class="cls-131" d="M396.08,670.82l-3.51-2.6a2.51,2.51,0,1,1,3-4h0l.05,0,3.4,2.53.05,0a2.51,2.51,0,1,1-3,4Z"/><path class="cls-132" d="M384.67,661.78l-3.25-2.91a2.52,2.52,0,1,1,3.36-3.75h0l.05,0L388,658l0,0a2.51,2.51,0,1,1-3.36,3.74Z"/><path class="cls-133" d="M374.15,651.7l-3-3.23a2.53,2.53,0,0,1,3.73-3.42h0l.05.05,2.85,3.12.05.06a2.53,2.53,0,0,1-3.73,3.41Z"/><path class="cls-134" d="M364.69,640.61l-2.62-3.51a2.54,2.54,0,0,1,4.06-3h0l0,.06,2.52,3.38.05.06a2.54,2.54,0,0,1-4.06,3Z"/><path class="cls-135" d="M356.36,628.65l-2.27-3.74a2.55,2.55,0,0,1,4.36-2.65h0l0,.06,2.19,3.61,0,.07a2.54,2.54,0,0,1-4.35,2.64Z"/><path class="cls-136" d="M349.21,616,347.3,612a2.56,2.56,0,0,1,4.6-2.24h0l0,.07,1.85,3.8,0,.06a2.56,2.56,0,0,1-4.6,2.24Z"/><path class="cls-137" d="M343.25,602.68l-1.56-4.08a2.57,2.57,0,0,1,4.8-1.83h0l0,.06,1.5,3.95,0,.07a2.56,2.56,0,0,1-4.79,1.82Z"/><path class="cls-138" d="M338.47,588.94l-1.21-4.19a2.58,2.58,0,1,1,5-1.42h0l0,.06,1.16,4.07,0,.06a2.57,2.57,0,1,1-4.95,1.42Z"/><path class="cls-139" d="M334.85,574.86l-.86-4.27a2.59,2.59,0,1,1,5.07-1h0l0,.06.83,4.15v.07a2.58,2.58,0,1,1-5.07,1Z"/><path class="cls-140" d="M332.38,560.54l-.53-4.33a2.6,2.6,0,0,1,5.16-.62h0v.06l.5,4.21v.06a2.59,2.59,0,1,1-5.15.62Z"/><path class="cls-141" d="M331,546.08l-.19-4.36a2.61,2.61,0,1,1,5.21-.23h0v.06l.17,4.23v.06a2.61,2.61,0,0,1-5.21.23Z"/><path class="cls-142" d="M330.77,531.55l.14-4.35a2.62,2.62,0,1,1,5.23.16h0v.06l-.14,4.24v.06a2.62,2.62,0,0,1-5.23-.17Z"/><path class="cls-143" d="M331.61,517.05l.46-4.34a2.62,2.62,0,1,1,5.22.55h0v.06l-.45,4.22v.06a2.62,2.62,0,1,1-5.21-.56Z"/><path class="cls-144" d="M333.52,502.64l.78-4.28a2.64,2.64,0,1,1,5.19.94h0v.06l-.76,4.17v.06a2.63,2.63,0,1,1-5.18-.95Z"/><path class="cls-145" d="M336.5,488.42l1.1-4.21a2.64,2.64,0,0,1,5.12,1.33h0l0,.06-1.07,4.1,0,.05a2.64,2.64,0,1,1-5.11-1.34Z"/><path class="cls-146" d="M340.55,474.47l1.42-4.12a2.65,2.65,0,1,1,5,1.73h0l0,.06-1.39,4,0,.06a2.65,2.65,0,1,1-5-1.73Z"/><path class="cls-147" d="M345.66,460.86l1.75-4A2.67,2.67,0,0,1,352.3,459h0l0,.06-1.7,3.88,0,.06a2.66,2.66,0,0,1-4.88-2.13Z"/><path class="cls-148" d="M351.86,447.69l2.06-3.84a2.68,2.68,0,0,1,4.72,2.53h0l0,.06-2,3.73,0,.05a2.67,2.67,0,0,1-4.71-2.53Z"/><path class="cls-149" d="M359.06,435.07l2.33-3.68a2.69,2.69,0,0,1,4.54,2.88h0l0,.05-2.28,3.58,0,.05a2.68,2.68,0,0,1-4.53-2.88Z"/><path class="cls-150" d="M367.14,423l2.59-3.5a2.69,2.69,0,1,1,4.33,3.2h0l0,0-2.53,3.41,0,0a2.69,2.69,0,0,1-4.33-3.2Z"/><path class="cls-151" d="M376,411.54l2.81-3.32a2.71,2.71,0,0,1,4.13,3.5h0l0,0L380.19,415l0,0a2.7,2.7,0,1,1-4.11-3.5Z"/><path class="cls-152" d="M385.68,400.7l3-3.12a2.72,2.72,0,1,1,3.9,3.78h0l0,0-3,3,0,0a2.71,2.71,0,1,1-3.89-3.78Z"/><path class="cls-153" d="M396,390.52l3.22-2.93a2.73,2.73,0,0,1,3.67,4h0l0,0-3.15,2.86,0,0a2.72,2.72,0,0,1-3.66-4Z"/><path class="cls-154" d="M406.94,381l3.39-2.72a2.74,2.74,0,1,1,3.43,4.27h0l0,0-3.31,2.66,0,0a2.74,2.74,0,0,1-3.42-4.27Z"/><path class="cls-155" d="M418.43,372.17l3.54-2.52a2.75,2.75,0,0,1,3.18,4.48h0l0,0-3.47,2.45,0,0a2.74,2.74,0,1,1-3.17-4.47Z"/><path class="cls-156" d="M430.41,364l3.68-2.31a2.76,2.76,0,0,1,2.93,4.67h0l0,0-3.61,2.26,0,0a2.75,2.75,0,1,1-2.92-4.66Z"/><path class="cls-157" d="M442.82,356.56l3.81-2.1a2.76,2.76,0,0,1,2.67,4.84h0l0,0-3.73,2.05,0,0a2.76,2.76,0,0,1-2.67-4.84Z"/><path class="cls-158" d="M455.62,349.79l3.91-1.89a2.77,2.77,0,1,1,2.42,5h0l0,0-3.83,1.85,0,0a2.77,2.77,0,0,1-2.42-5Z"/><path class="cls-159" d="M468.77,343.72l4-1.69a2.78,2.78,0,1,1,2.16,5.12h0L471,348.82l0,0a2.78,2.78,0,1,1-2.15-5.12Z"/><path class="cls-160" d="M482.21,338.33l4.08-1.48a2.79,2.79,0,1,1,1.9,5.25h0l0,0-4,1.44,0,0a2.79,2.79,0,0,1-1.89-5.25Z"/><path class="cls-161" d="M495.9,333.64l4.15-1.27a2.8,2.8,0,1,1,1.64,5.36h0L497.57,339h0a2.8,2.8,0,0,1-1.63-5.35Z"/><path class="cls-162" d="M509.81,329.65l4.21-1.06a2.81,2.81,0,0,1,1.37,5.46h0l-4.13,1h0a2.81,2.81,0,1,1-1.37-5.45Z"/><path class="cls-163" d="M523.91,326.37l4.26-.85a2.82,2.82,0,0,1,1.1,5.54h0l-4.18.82h0a2.82,2.82,0,0,1-1.09-5.53Z"/><path class="cls-164" d="M538.16,323.81l4.29-.63a2.83,2.83,0,1,1,.82,5.6h0l-4.22.61h0a2.82,2.82,0,0,1-.81-5.59Z"/><path class="cls-165" d="M552.49,321.93l4.32-.43a2.84,2.84,0,1,1,.57,5.65h0l-4.24.42h0a2.84,2.84,0,0,1-.57-5.65Z"/><path class="cls-166" d="M566.9,320.71l4.33-.25a2.85,2.85,0,0,1,.32,5.7h0l-4.26.23h0a2.85,2.85,0,0,1-.32-5.69Z"/><path class="cls-167" d="M581.34,320.1l4.33-.06a2.86,2.86,0,0,1,.08,5.72h0l-4.27.06h0a2.86,2.86,0,0,1-.08-5.72Z"/><path class="cls-168" d="M595.78,320.11l4.34.12A2.86,2.86,0,0,1,600,326h0l-4.26-.11h0a2.86,2.86,0,1,1,.15-5.72Z"/><path class="cls-169" d="M610.21,320.7l4.33.29a2.85,2.85,0,0,1-.38,5.68h0l-4.26-.27h0a2.86,2.86,0,0,1,.37-5.7Z"/><path class="cls-170" d="M624.61,321.85l4.3.44a2.84,2.84,0,0,1-.58,5.65h0l-4.24-.44h0a2.84,2.84,0,0,1,.57-5.66Z"/><path class="cls-171" d="M638.94,323.51l4.29.6a2.83,2.83,0,0,1-.78,5.6h0l-4.23-.59h0a2.83,2.83,0,0,1,.78-5.61Z"/><path class="cls-172" d="M653.21,325.67l4.26.75a2.81,2.81,0,1,1-1,5.54h0l-4.21-.73h0a2.82,2.82,0,1,1,1-5.56Z"/><path class="cls-173" d="M667.39,328.31l4.23.87a2.8,2.8,0,1,1-1.14,5.49h0l-4.18-.86h0a2.81,2.81,0,0,1,1.13-5.51Z"/><path class="cls-174" d="M681.46,331.38l4.21,1a2.8,2.8,0,0,1-1.3,5.44h0l-4.16-1h0a2.8,2.8,0,1,1,1.29-5.44Z"/><path class="cls-175" d="M695.45,334.87l4.18,1.13a2.78,2.78,0,0,1-1.45,5.37h0l-4.14-1.1h0a2.78,2.78,0,1,1,1.44-5.38Z"/><path class="cls-176" d="M709.33,338.76l4.14,1.24a2.77,2.77,0,1,1-1.59,5.31h0l-4.1-1.22h0a2.77,2.77,0,1,1,1.58-5.32Z"/><path class="cls-177" d="M723.09,343l4.11,1.35a2.76,2.76,0,1,1-1.72,5.24h0l-4.08-1.33h0a2.76,2.76,0,1,1,1.72-5.25Z"/><path class="cls-178" d="M736.74,347.64l4.08,1.45a2.75,2.75,0,0,1-1.85,5.18h0l-4-1.43h0a2.75,2.75,0,1,1,1.84-5.18Z"/><path class="cls-179" d="M750.27,352.59l4,1.54a2.74,2.74,0,1,1-2,5.11h0l-4-1.53h0a2.74,2.74,0,0,1,2-5.12Z"/><path class="cls-180" d="M763.67,357.85l4,1.63a2.72,2.72,0,1,1-2.06,5h0l-4-1.61h0a2.73,2.73,0,0,1,2-5.06Z"/><path class="cls-181" d="M776.94,363.38l4,1.7a2.72,2.72,0,0,1-2.15,5h0l-3.93-1.69h0a2.72,2.72,0,0,1,2.15-5Z"/><path class="cls-182" d="M790.1,369.14,794,370.9a2.7,2.7,0,1,1-2.22,4.93h0l-3.92-1.75h0a2.71,2.71,0,0,1,2.21-4.95Z"/><path class="cls-183" d="M803.18,375.07l3.91,1.8a2.69,2.69,0,0,1-2.26,4.89h0l-3.9-1.8h0a2.69,2.69,0,1,1,2.26-4.89Z"/><path class="cls-184" d="M816.19,381.13l3.89,1.84a2.68,2.68,0,1,1-2.28,4.84L813.91,386a2.68,2.68,0,1,1,2.27-4.86Z"/><path class="cls-185" d="M829.15,387.28l3.89,1.85a2.67,2.67,0,0,1-2.3,4.82l-3.88-1.85a2.67,2.67,0,0,1,2.29-4.83Z"/><path class="cls-186" d="M842.09,393.46l3.88,1.86a2.65,2.65,0,0,1-2.29,4.79l-3.88-1.85a2.66,2.66,0,0,1,2.28-4.8Z"/><path class="cls-187" d="M855,399.64l3.88,1.84a2.65,2.65,0,0,1-2.26,4.79l-3.89-1.84a2.65,2.65,0,1,1,2.26-4.79Z"/><path class="cls-188" d="M868,405.77l3.89,1.83a2.62,2.62,0,0,1-2.21,4.75l-3.91-1.82a2.63,2.63,0,1,1,2.21-4.77Z"/><path class="cls-189" d="M880.93,411.82l3.9,1.79h0a2.59,2.59,0,0,1-2.14,4.71l-3.93-1.78a2.6,2.6,0,0,1,2.14-4.73h0Z"/><path class="cls-190" d="M894,417.72l3.92,1.74h0a2.55,2.55,0,0,1-2.06,4.67l-4-1.73a2.56,2.56,0,0,1,2-4.69h0Z"/><path class="cls-191" d="M907.05,423.44l4,1.67h0a2.52,2.52,0,0,1-2,4.64l-4-1.67a2.53,2.53,0,0,1,1.95-4.66h0Z"/><path class="cls-192" d="M920.25,428.91l4,1.59h0a2.48,2.48,0,1,1-1.83,4.61l-4-1.58a2.49,2.49,0,0,1,1.83-4.64h0Z"/><path class="cls-193" d="M933.55,434.1l4,1.49h0a2.45,2.45,0,0,1-1.7,4.6l-4-1.49a2.46,2.46,0,1,1,1.69-4.61h0Z"/><path class="cls-194" d="M947,438.94l4,1.39h0a2.42,2.42,0,0,1-1.55,4.58l-4.09-1.38a2.43,2.43,0,0,1,1.54-4.6h0Z"/><path class="cls-195" d="M960.51,443.41l4.08,1.26h0a2.38,2.38,0,0,1-1.4,4.55L959.09,448a2.39,2.39,0,0,1,1.38-4.58h0Z"/><path class="cls-196" d="M974.17,447.46l4.13,1.12h0a2.34,2.34,0,0,1-1.22,4.52L972.93,452a2.35,2.35,0,0,1,1.21-4.55h0Z"/><path class="cls-197" d="M988,451l4.16,1h0a2.31,2.31,0,0,1-1,4.5l-4.22-1a2.32,2.32,0,1,1,1-4.53h0Z"/><path class="cls-198" d="M1001.88,454.05l4.2.8h0a2.27,2.27,0,0,1-.84,4.47l-4.26-.79a2.28,2.28,0,1,1,.83-4.49h0Z"/><path class="cls-199" d="M1015.91,456.5l4.22.61h0a2.24,2.24,0,0,1-.63,4.44l-4.28-.59a2.26,2.26,0,0,1,.62-4.47h0Z"/><path class="cls-200" d="M1030,458.3l4.24.41h0a2.21,2.21,0,0,1-.41,4.4l-4.31-.4a2.21,2.21,0,1,1,.41-4.41h0Z"/><path class="cls-201" d="M1044.19,459.4l4.25.19h0a2.17,2.17,0,0,1-.18,4.34l-4.33-.17a2.18,2.18,0,0,1,.17-4.36h0Z"/><path class="cls-202" d="M1058.39,459.75l4.26,0h0a2.13,2.13,0,0,1,.06,4.26l-4.33.08a2.15,2.15,0,0,1-.08-4.3h.05Z"/><path class="cls-203" d="M1072.59,459.31l4.24-.3h0a2.07,2.07,0,0,1,.32,4.13l-4.33.35a2.09,2.09,0,1,1-.33-4.16h.06Z"/><path class="cls-204" d="M1086.72,458l4.22-.58h0a2,2,0,0,1,.56,4l-4.29.63a2,2,0,0,1-.59-4h.06Z"/><path class="cls-205" d="M1100.74,455.73l4.18-.86h0a1.95,1.95,0,0,1,.8,3.81l-4.24.91a2,2,0,1,1-.82-3.85h0Z"/><path class="cls-206" d="M1114.59,452.56l4.1-1.13h0a1.89,1.89,0,0,1,1,3.64l-4.17,1.18a1.91,1.91,0,0,1-1-3.67h.06Z"/><path class="cls-207" d="M1128.18,448.46l4-1.41,0,0a1.83,1.83,0,0,1,1.22,3.45l-4.08,1.47a1.84,1.84,0,0,1-1.25-3.47h0Z"/><path class="cls-208" d="M1141.45,443.41l3.91-1.7,0,0a1.77,1.77,0,0,1,1.43,3.23l-4,1.77a1.79,1.79,0,1,1-1.46-3.26h0Z"/><path class="cls-209" d="M1154.31,437.39l3.76-2,0,0a1.71,1.71,0,0,1,1.62,3l-3.82,2.07a1.73,1.73,0,1,1-1.64-3h0Z"/><path class="cls-210" d="M1166.65,430.38l3.58-2.3,0,0a1.64,1.64,0,1,1,1.78,2.76l-3.63,2.37a1.66,1.66,0,1,1-1.82-2.78h0Z"/><path class="cls-211" d="M1178.36,422.37l3.37-2.6,0,0a1.58,1.58,0,0,1,1.94,2.5l-3.42,2.68a1.6,1.6,0,1,1-2-2.52h0Z"/><path class="cls-212" d="M1189.32,413.36l3.12-2.9,0,0a1.52,1.52,0,0,1,2.08,2.23l-3.16,3a1.54,1.54,0,1,1-2.11-2.24h0Z"/><path class="cls-213" d="M1199.39,403.37l2.83-3.18,0,0a1.47,1.47,0,0,1,2.07-.12,1.45,1.45,0,0,1,.12,2l-2.86,3.27a1.48,1.48,0,1,1-2.22-1.95h0Z"/><path class="cls-214" d="M727.37,1062.75a7.42,7.42,0,0,0,.94-.06,8.15,8.15,0,0,0,7.17-9L684.33,608.6a8.15,8.15,0,1,0-16.19,1.86l51.15,445.07A8.15,8.15,0,0,0,727.37,1062.75Z"/><path class="cls-215" d="M446.23,1062.75a8.15,8.15,0,0,0,7.94-6.37L554,611.31a8.15,8.15,0,0,0-15.9-3.56l-99.79,445.07a8.14,8.14,0,0,0,6.17,9.73A8.47,8.47,0,0,0,446.23,1062.75Z"/><path class="cls-216" d="M614.75,1062.75a8.15,8.15,0,0,0,8.15-8.15V835a8.15,8.15,0,0,0-16.3,0V1054.6A8.15,8.15,0,0,0,614.75,1062.75Z"/><path class="cls-217" d="M777.81,559.73,749.17,920.55a14.42,14.42,0,0,1-14.73,13.27l-299.19-7.3a14.42,14.42,0,0,1-13.89-16.68l57.28-359.78a14.41,14.41,0,0,1,14.57-12.14l270.56,6.26A14.41,14.41,0,0,1,777.81,559.73Z"/><path class="cls-218" d="M752.77,554.11l-250.9-5.81a14.43,14.43,0,0,0-14.57,12.15L433.25,900a14.43,14.43,0,0,0,13.89,16.68l277.91,6.77a14.41,14.41,0,0,0,14.72-13.27l27-340.46A14.42,14.42,0,0,0,752.77,554.11Z"/><path class="cls-219" d="M617.37,588.83l126.45,7.06a2.3,2.3,0,0,1,2.17,2.49l-.18,2a2.29,2.29,0,0,1-2.45,2.1l-126.28-9.08a2.3,2.3,0,0,1-2.13-2.49h0A2.32,2.32,0,0,1,617.37,588.83Z"/><rect class="cls-220" x="676.63" y="541.95" width="5.47" height="131.2" rx="2.3" transform="translate(15.93 1232.46) rotate(-85.09)"/><path class="cls-221" d="M651.35,616.1l0,.38a2.29,2.29,0,0,0,2.1,2.49l87.84,7.54a2.29,2.29,0,0,0,2.49-2.09l.16-1.79a2.3,2.3,0,0,0-2.14-2.49l-88-6.14A2.31,2.31,0,0,0,651.35,616.1Z"/><path class="cls-222" d="M710,696.53a2.14,2.14,0,0,1-1.5-.61L670,658.53l-43.54,26.34a2.15,2.15,0,0,1-2.88-.61l-51-73.55c-9.32,6.82-52.29,38.28-58.19,42.58a2.15,2.15,0,0,1-2.53-3.47l60-43.88a2.14,2.14,0,0,1,1.62-.38,2.17,2.17,0,0,1,1.42.89l51.15,73.7L669.16,654a2.14,2.14,0,0,1,2.61.3l38.43,37.28,23.56-17.18a2.15,2.15,0,1,1,2.54,3.47l-25,18.26A2.18,2.18,0,0,1,710,696.53Z"/><path class="cls-223" d="M563.57,726h-.13a1.43,1.43,0,0,1-1.3-1.55l.27-3a1.43,1.43,0,0,1,2.85.25l-.26,3A1.44,1.44,0,0,1,563.57,726Zm1.15-13h-.13a1.43,1.43,0,0,1-1.3-1.55l.38-4.29a1.43,1.43,0,1,1,2.85.26l-.37,4.28A1.45,1.45,0,0,1,564.72,713ZM566,698.67h-.13a1.43,1.43,0,0,1-1.3-1.55l.38-4.28a1.43,1.43,0,0,1,2.85.25l-.37,4.28A1.44,1.44,0,0,1,566,698.67Zm1.26-14.28h-.13a1.44,1.44,0,0,1-1.3-1.56l.38-4.28a1.43,1.43,0,0,1,2.85.25l-.37,4.29A1.44,1.44,0,0,1,567.24,684.39Zm1.26-14.27h-.13a1.43,1.43,0,0,1-1.3-1.55l.38-4.29A1.45,1.45,0,0,1,569,663a1.44,1.44,0,0,1,1.3,1.56l-.37,4.28A1.45,1.45,0,0,1,568.5,670.12Zm1.26-14.28h-.13a1.44,1.44,0,0,1-1.3-1.56l.38-4.28a1.43,1.43,0,0,1,2.85.25l-.37,4.28A1.44,1.44,0,0,1,569.76,655.84ZM571,641.56h-.13a1.44,1.44,0,0,1-1.3-1.56l.38-4.28a1.43,1.43,0,0,1,2.85.25l-.37,4.29A1.43,1.43,0,0,1,571,641.56Zm1.26-14.27h-.13a1.43,1.43,0,0,1-1.3-1.55l.38-4.28a1.44,1.44,0,1,1,2.86.25l-.38,4.28A1.44,1.44,0,0,1,572.28,627.29Z"/><path class="cls-224" d="M622.08,721.14H622a1.43,1.43,0,0,1-1.31-1.55l.38-4.28a1.45,1.45,0,0,1,1.56-1.3,1.43,1.43,0,0,1,1.3,1.55l-.38,4.28A1.44,1.44,0,0,1,622.08,721.14Zm1.26-14.28h-.12a1.43,1.43,0,0,1-1.3-1.55l.37-4.29a1.45,1.45,0,0,1,1.56-1.3,1.43,1.43,0,0,1,1.3,1.55l-.38,4.29A1.43,1.43,0,0,1,623.34,706.86Zm1.26-14.27h-.12a1.43,1.43,0,0,1-1.3-1.55l.37-4.28a1.45,1.45,0,0,1,1.56-1.31,1.44,1.44,0,0,1,1.3,1.56l-.38,4.28A1.44,1.44,0,0,1,624.6,692.59Z"/><path class="cls-225" d="M665.62,725.53h-.09a1.43,1.43,0,0,1-1.34-1.52l.24-4.29a1.41,1.41,0,0,1,1.51-1.35,1.43,1.43,0,0,1,1.35,1.51l-.24,4.3A1.44,1.44,0,0,1,665.62,725.53Zm.81-14.31h-.08A1.45,1.45,0,0,1,665,709.7l.25-4.29a1.43,1.43,0,1,1,2.86.16l-.25,4.3A1.43,1.43,0,0,1,666.43,711.22Zm.82-14.31h-.08a1.43,1.43,0,0,1-1.35-1.52l.24-4.29a1.44,1.44,0,1,1,2.87.17l-.25,4.29A1.43,1.43,0,0,1,667.25,696.91Zm.82-14.31H668a1.42,1.42,0,0,1-1.34-1.51l.24-4.3a1.43,1.43,0,0,1,2.86.17l-.24,4.29A1.44,1.44,0,0,1,668.07,682.6Zm.82-14.31h-.09a1.43,1.43,0,0,1-1.35-1.51l.25-4.29a1.41,1.41,0,0,1,1.51-1.35,1.43,1.43,0,0,1,1.35,1.51l-.24,4.29A1.44,1.44,0,0,1,668.89,668.29Z"/><path class="cls-226" d="M707.42,731.43h-.13a1.43,1.43,0,0,1-1.3-1.55l.38-4.29a1.43,1.43,0,1,1,2.85.26l-.38,4.28A1.43,1.43,0,0,1,707.42,731.43Zm1.26-14.28h-.13a1.43,1.43,0,0,1-1.3-1.55l.38-4.28a1.43,1.43,0,1,1,2.85.25l-.38,4.28A1.43,1.43,0,0,1,708.68,717.15Zm1.26-14.28h-.13a1.44,1.44,0,0,1-1.3-1.56l.38-4.28a1.43,1.43,0,0,1,2.85.25l-.38,4.29A1.42,1.42,0,0,1,709.94,702.87Z"/><path class="cls-227" d="M501.54,727.8l-.22,0a2.14,2.14,0,0,1-1.92-2.35l13.51-135.2a2.15,2.15,0,0,1,4.28.43l-13.52,135.2A2.15,2.15,0,0,1,501.54,727.8Z"/><polygon class="cls-228" points="506.95 598.25 514.93 591.71 521.45 599.7 522.07 593.54 515.54 585.56 507.56 592.09 506.95 598.25"/><path class="cls-229" d="M733.83,741.71h-.2L493,720.46a2.15,2.15,0,1,1,.37-4.28L734,737.42a2.15,2.15,0,0,1-.18,4.29Z"/><polygon class="cls-230" points="724.65 746.07 732.56 739.45 725.93 731.55 732.1 732.09 738.72 740 730.82 746.62 724.65 746.07"/><path class="cls-231" d="M532.94,1060.84a2.25,2.25,0,0,0-.07-.68c-3.37-13.39-20.13-21.73-20.13-21.73l-6.64.53c-3.82,11.79-3.33,19-2.72,22.25,0,.09.05.18.07.27A157.5,157.5,0,0,0,532.94,1060.84Z"/><path class="cls-232" d="M503.45,1061.48a2.88,2.88,0,0,0,2.11,2.12c7.79,1.64,20.18.32,25.38-.36a2.42,2.42,0,0,0,2-2.4A157.5,157.5,0,0,1,503.45,1061.48Z"/><path class="cls-233" d="M600.24,629.4,644,613.52l3.37,7.06-42,15.85S599.46,635.91,600.24,629.4Z"/><path class="cls-234" d="M644,613.52c-1.29,3.91,3.37,7.06,3.37,7.06l7.94-5.61a15.22,15.22,0,0,1-.84-3.1Z"/><path class="cls-235" d="M654.45,611.87a15.22,15.22,0,0,0,.84,3.1l5.86-4.15Z"/><path class="cls-236" d="M477.15,823.87c-4.1,4.38-10.14,8.16-14.39,10.52,6.35,7.84,14.94,15.7,26.31,23.39l3.25,7.3,10.42-12.49S484,843.28,477.15,823.87Z"/><path class="cls-237" d="M503.43,1029.06l2.81,13.54a2.22,2.22,0,0,0,1.89,1.83,19.6,19.6,0,0,0,4.36-.07,2.78,2.78,0,0,0,2.2-3.27l-2-12Z"/><path class="cls-238" d="M561.7,1061.34c-7.33-.21-11.13-1.07-13.09-1.87,0,.73,0,1.47,0,2.24a1.44,1.44,0,0,0,1.38,1.47l40.27-.26a1.84,1.84,0,0,0,1.48-2.67C586.49,1060.68,573,1061.66,561.7,1061.34Z"/><path class="cls-239" d="M591.77,1060.25a1.82,1.82,0,0,0-.16-.31c-3.56-5-12.62-14.86-30.52-19.15l-8.58-.27s-3.82,6.64-3.9,19c2,.8,5.76,1.66,13.09,1.87C573,1061.66,586.49,1060.68,591.77,1060.25Z"/><path class="cls-240" d="M550.92,1027.5c.09.64,1.27,10.37,1.72,14.14a1.87,1.87,0,0,0,1.58,1.69,20,20,0,0,0,5.9-.09,2.54,2.54,0,0,0,1.92-2.55v-15.27Z"/><path class="cls-241" d="M544,850s20.71,78.71,20.33,177.75a3.82,3.82,0,0,1-3,3.73,44.46,44.46,0,0,1-9.6,1.11,3.55,3.55,0,0,1-3.39-3c-2.9-17-19.57-113-29.06-128.53,0,0-6.25,85.44-4.25,129.77a2.09,2.09,0,0,1-1.86,2.18,34.69,34.69,0,0,1-7.7,0,2.81,2.81,0,0,1-2.51-2.39c-2.07-14.41-14-100.19-13.46-162,0-3.48,9.21-18.64,9.21-18.64Z"/><path class="cls-242" d="M611.75,680.5c-9.09,16.92-24.18,34.19-48.73,38.82-22.67,4.27-63.37,9.55-79.73,11.61a20,20,0,0,0-12.66,6.8c-12.86,14.87-41.07,55.61-7.87,96.66,4.25-2.36,10.29-6.14,14.39-10.52-3.67-10.36-4-23.59,3.73-39.82a38,38,0,0,0,1,3.81c10.62,33.62,11.18,61.6,11.16,68a2.13,2.13,0,0,0,1.33,2c14,5.6,40.86,2.26,49.88.92a3,3,0,0,0,2.54-3.45c-4.43-32.09,18.3-84.88,24.31-98.1a8.74,8.74,0,0,1,4.36-4.36c34.33-15.53,49.26-39.44,55.31-61C625.52,684.9,617.4,681.83,611.75,680.5Z"/><path class="cls-243" d="M630.75,691.93a104.16,104.16,0,0,0,1.63-48.73h-7.82a126.84,126.84,0,0,1-12.81,37.3C617.4,681.83,625.52,684.9,630.75,691.93Z"/><path class="cls-244" d="M627.31,647.36s-11.91-15.42-8-23.46,17.14-7.25,17.14-7.25l1.86,6.29a7.94,7.94,0,0,1-.19,5l-7.33,19.37Z"/><path class="cls-245" d="M507.43,700.05l-2.69,27.51s15.47,4.66,26.72-3.28l-7.91-25Z"/><path class="cls-246" d="M525.38,668.71c.37.35,15.72,30.48,15.72,30.48l-17.39,8.39-18.79-26.39S519.15,662.84,525.38,668.71Z"/><path class="cls-247" d="M512.62,681.92a2.77,2.77,0,0,0,.21,2.44l8.67,14.45a2.71,2.71,0,0,0,.47.59c1,1,4.57,3.76,7.3,0,2.33-3.25,4.51-6.2,6.85-7.41a2.76,2.76,0,0,1,3.74,1.23,103.06,103.06,0,0,1,5.94,14.08,2.75,2.75,0,0,1-1.61,3.38,76.61,76.61,0,0,1-16.65,4.86,2.78,2.78,0,0,1-2.63-1.11c-2.65-3.64-10.14-13.81-12.7-16.36-2.37-2.36-6.75-1.47-8.73-.91a2.72,2.72,0,0,1-2.21-.29c-2-1.2-5.5-4.21-2.31-9.3a2.78,2.78,0,0,0-.85-3.77c-2.24-1.47-4.67-4.23-2.36-8.7s6.53-4.94,9.37-4.59a2.88,2.88,0,0,0,3-1.68,1.85,1.85,0,0,1,1.44-1.13,2.69,2.69,0,0,0,2.18-3.16c-.51-2.56-.13-5.89,4-8.14,7.51-4.12,14.08,2.6,15.75,8.27s-6.72,9.69-12,10.36C515.6,675.48,513.47,679.71,512.62,681.92Z"/><path class="cls-248" d="M515.47,703.34s-3.34-9.76-7.61-9.4-7.63,4.61-2.34,9.39C512.11,709.28,515.47,703.34,515.47,703.34Z"/><path class="cls-249" d="M479.47,781.53c-5.63-15.4-3.59-34-3.56-34.19l1.55.18c0,.18-2,18.43,3.48,33.48Z"/><path class="cls-250" d="M518.51,899.06a.78.78,0,0,1-.76-.58c-1.72-6.63-14.58-13.91-14.7-14a.77.77,0,0,1-.3-1.06.77.77,0,0,1,1.06-.3c.55.31,13.57,7.68,15.45,15a.78.78,0,0,1-.56.95Z"/><path class="cls-41" d="M1298.77,407.3a1.43,1.43,0,1,1,0-2.86c2.38,0,4.77-.12,7.09-.27a1.44,1.44,0,0,1,1.52,1.35A1.42,1.42,0,0,1,1306,407c-2.37.15-4.8.24-7.23.27Zm-7.16-.07h0c-2.36-.08-4.79-.2-7.22-.38a1.43,1.43,0,0,1-1.32-1.54,1.41,1.41,0,0,1,1.53-1.32c2.39.17,4.78.3,7.1.38a1.42,1.42,0,0,1,1.39,1.47A1.43,1.43,0,0,1,1291.61,407.23Zm21.45-.83a1.43,1.43,0,0,1-.16-2.86c2.37-.27,4.73-.62,7-1a1.43,1.43,0,1,1,.51,2.82c-2.34.41-4.75.77-7.18,1.05Zm-35.75-.22h-.16c-2.36-.27-4.77-.59-7.16-.94a1.44,1.44,0,1,1,.42-2.84c2.36.35,4.73.66,7.06.93a1.43,1.43,0,0,1-.16,2.85Zm-14.18-2.1-.26,0c-2.34-.43-4.72-.9-7.07-1.41a1.43,1.43,0,0,1,.6-2.8c2.33.5,4.68,1,7,1.39a1.43,1.43,0,0,1-.26,2.84Zm64-.2a1.43,1.43,0,0,1-1.39-1.09,1.44,1.44,0,0,1,1-1.73c2.31-.57,4.6-1.21,6.8-1.92a1.42,1.42,0,0,1,1.8.92,1.43,1.43,0,0,1-.92,1.81c-2.27.72-4.62,1.39-7,2A1.39,1.39,0,0,1,1327.16,403.88Zm-78.05-2.82a1.32,1.32,0,0,1-.34,0c-2.31-.57-4.66-1.18-7-1.83a1.43,1.43,0,0,1,.77-2.76c2.29.64,4.61,1.25,6.9,1.81a1.43,1.43,0,0,1-.35,2.82Zm91.68-1.57a1.44,1.44,0,0,1-1.33-.9,1.42,1.42,0,0,1,.79-1.86c2.18-.9,4.34-1.88,6.4-2.93a1.44,1.44,0,0,1,1.3,2.56c-2.13,1.08-4.36,2.1-6.62,3A1.49,1.49,0,0,1,1340.79,399.49Zm-105.49-2.28a1.54,1.54,0,0,1-.43-.06c-2.34-.73-4.64-1.48-6.86-2.25a1.43,1.43,0,1,1,.94-2.71c2.18.76,4.46,1.51,6.77,2.22a1.43,1.43,0,0,1-.42,2.8ZM1353.54,393a1.43,1.43,0,0,1-.76-2.65c2-1.23,3.94-2.57,5.81-4a1.43,1.43,0,0,1,1.72,2.29c-1.94,1.45-4,2.84-6,4.11A1.42,1.42,0,0,1,1353.54,393Zm-131.8-.49a1.42,1.42,0,0,1-.53-.1c-1.07-.42-1.64-.66-1.64-.66l-3.26-1.38,3.29-1.28.52-.18c.78-.28,2.4-.84,4.57-1.72a1.43,1.43,0,1,1,1.08,2.65c-1,.41-1.87.74-2.62,1a1.35,1.35,0,0,1-.08.74A1.44,1.44,0,0,1,1221.74,392.51Zm10-5.52a1.43,1.43,0,0,1-.63-2.71c2.13-1.06,4.21-2.2,6.19-3.39a1.43,1.43,0,0,1,1.47,2.46c-2,1.22-4.19,2.4-6.39,3.49A1.31,1.31,0,0,1,1231.77,387ZM1365,384.4a1.47,1.47,0,0,1-1.07-.47,1.45,1.45,0,0,1,.1-2c1.73-1.56,3.42-3.22,5-4.94a1.44,1.44,0,0,1,2.11,2c-1.65,1.78-3.39,3.5-5.18,5.12A1.43,1.43,0,0,1,1365,384.4ZM1244,379.59a1.4,1.4,0,0,1-1.15-.59,1.43,1.43,0,0,1,.31-2,67.72,67.72,0,0,0,5.43-4.43,1.43,1.43,0,1,1,1.93,2.12,66.1,66.1,0,0,1-5.67,4.62A1.42,1.42,0,0,1,1244,379.59Zm130.64-5.68a1.44,1.44,0,0,1-1.13-2.31c1.42-1.83,2.8-3.76,4.09-5.73a1.43,1.43,0,0,1,2.4,1.56c-1.33,2.05-2.76,4-4.22,5.93A1.46,1.46,0,0,1,1374.68,373.91Zm-120.1-4a1.47,1.47,0,0,1-.93-.33,1.44,1.44,0,0,1-.16-2,46.76,46.76,0,0,0,4.08-5.62,1.43,1.43,0,1,1,2.44,1.5,48.11,48.11,0,0,1-4.34,6A1.42,1.42,0,0,1,1254.58,369.91Zm127.94-8a1.42,1.42,0,0,1-.69-.18,1.44,1.44,0,0,1-.57-1.95c1.12-2,2.18-4.14,3.18-6.3a1.43,1.43,0,0,1,2.6,1.2c-1,2.22-2.12,4.4-3.26,6.48A1.45,1.45,0,0,1,1382.52,362ZM1262,357.73a1.43,1.43,0,0,1-1.33-2c.09-.25.19-.49.28-.74.79-2.12,1.64-4.13,2.54-6a1.43,1.43,0,1,1,2.57,1.26c-.85,1.75-1.67,3.66-2.42,5.69-.1.27-.2.54-.31.81A1.43,1.43,0,0,1,1262,357.73ZM1388.53,349a1.34,1.34,0,0,1-.52-.1,1.42,1.42,0,0,1-.82-1.85c.83-2.16,1.62-4.4,2.35-6.67a1.43,1.43,0,0,1,2.73.87c-.75,2.32-1.56,4.62-2.41,6.83A1.43,1.43,0,0,1,1388.53,349Zm-120.16-4a1.47,1.47,0,0,1-.82-.26,1.44,1.44,0,0,1-.35-2,32.8,32.8,0,0,1,4.92-5.62,1.43,1.43,0,1,1,1.91,2.14,29.54,29.54,0,0,0-4.48,5.13A1.45,1.45,0,0,1,1268.37,345Zm10.69-9.26a1.44,1.44,0,0,1-.58-2.75,22,22,0,0,1,4.28-1.36c-1.38-.29-3-.61-4.82-.95a1.43,1.43,0,0,1,.53-2.82c2.94.55,5.33,1,7.11,1.47a1.44,1.44,0,0,1,1.06,1.73,2.25,2.25,0,0,1-.08.24,1.41,1.41,0,0,1,.85,1.19,1.43,1.43,0,0,1-1.3,1.55,20.16,20.16,0,0,0-6.48,1.58A1.46,1.46,0,0,1,1279.06,335.7Zm113.84-.37a1.61,1.61,0,0,1-.37,0,1.44,1.44,0,0,1-1-1.75q.38-1.41.72-2.85l-1.83-1.86a1.43,1.43,0,1,1,2-2l2.94,3-.18.77c-.29,1.25-.6,2.47-.92,3.68A1.42,1.42,0,0,1,1392.9,335.33Zm-121.77-5.92-.24,0c-2.86-.48-5.42-.89-7.08-1.15a1.43,1.43,0,0,1,.45-2.83l1.37.21a1.42,1.42,0,0,1,.39-1.94,27.44,27.44,0,0,0,4.78-4.79,1.43,1.43,0,1,1,2.19,1.85,30.42,30.42,0,0,1-5.24,5.22l3.62.6a1.44,1.44,0,0,1,1.17,1.66A1.43,1.43,0,0,1,1271.13,329.41Zm115.26-5.26a1.41,1.41,0,0,1-1-.43l-5-5.1a1.44,1.44,0,0,1,2.05-2l5,5.11a1.44,1.44,0,0,1,0,2A1.47,1.47,0,0,1,1386.39,324.15Zm-109.85-8.36a1.44,1.44,0,0,1-1.08-2.38c1.71-1.92,3.35-3.64,5-5.26a1.43,1.43,0,0,1,2,2.07c-1.63,1.56-3.22,3.23-4.87,5.09A1.42,1.42,0,0,1,1276.54,315.79Zm99.8-1.85a1.47,1.47,0,0,1-1-.43l-5-5.11a1.43,1.43,0,1,1,2-2l5,5.11a1.42,1.42,0,0,1,0,2A1.41,1.41,0,0,1,1376.34,313.94Zm-89.46-8a1.43,1.43,0,0,1-.9-2.55c1.85-1.48,3.83-2.93,5.88-4.3a1.44,1.44,0,0,1,1.59,2.39c-2,1.32-3.89,2.72-5.68,4.15A1.42,1.42,0,0,1,1286.88,305.91Zm79.4-2.19a1.41,1.41,0,0,1-1-.43l-5-5.1a1.44,1.44,0,0,1-.38-.72,1.52,1.52,0,0,1-.78-.46,32.05,32.05,0,0,0-5.78-3,1.44,1.44,0,0,1,1.11-2.65c.67.28,6.53,2.78,7.09,4.13,0,.09.06.18.08.26a1.45,1.45,0,0,1,.71.4l5,5.1a1.43,1.43,0,0,1-1,2.44Zm-67.52-5.78a1.43,1.43,0,0,1-.71-2.68c1.4-.79,2.86-1.57,4.34-2.32.71-.36,1.42-.7,2.12-1a1.44,1.44,0,0,1,1.21,2.61c-.68.31-1.35.63-2,1-1.44.73-2.86,1.49-4.23,2.26A1.46,1.46,0,0,1,1298.76,297.94Zm13-5.9a1.43,1.43,0,0,1-.44-2.8,59.71,59.71,0,0,1,7.11-1.81,1.43,1.43,0,0,1,.53,2.82,56.25,56.25,0,0,0-6.76,1.72A1.39,1.39,0,0,1,1311.79,292Zm35.3-.27a1.39,1.39,0,0,1-.4-.06,62.28,62.28,0,0,0-6.82-1.57,1.44,1.44,0,0,1-1.17-1.66,1.42,1.42,0,0,1,1.65-1.17,65.84,65.84,0,0,1,7.14,1.65,1.43,1.43,0,0,1-.4,2.81Zm-21.26-2.4a1.43,1.43,0,0,1-.09-2.86,59.71,59.71,0,0,1,7.33,0,1.43,1.43,0,1,1-.16,2.86,60.43,60.43,0,0,0-7,0Z"/><path class="cls-251" d="M1372.24,311.4s-35-17.21-50.35,7.07-24.91,52.62-38.1,55.64c0,0,73.47,20.07,97-51.92Z"/><path class="cls-252" d="M1404.43,236s-26.21-27.85-38.73-24.5c-11.92,3.18-76.83,60.48-83.14,66.06a.72.72,0,0,0-.09,1h0a9.81,9.81,0,0,0,8,3.9c15.13-.23,60.3-1.31,73.86-6C1380.67,270.69,1404.43,236,1404.43,236Z"/><path class="cls-253" d="M1309.86,261.86a.7.7,0,0,1-.55-.25.71.71,0,0,1,.08-1c.36-.31,36.46-31.07,52.51-43.7a9,9,0,0,1,9.8-.89,136.84,136.84,0,0,1,23.13,15.31.72.72,0,0,1-.93,1.1A135.26,135.26,0,0,0,1371,217.27a7.6,7.6,0,0,0-8.25.75c-16,12.62-52.1,43.36-52.46,43.67A.67.67,0,0,1,1309.86,261.86Z"/><path class="cls-254" d="M1457.94,306.88s19.57,32.85,12.92,44c-6.33,10.58-79.25,57.27-86.35,61.8a.71.71,0,0,1-1-.18h0a9.83,9.83,0,0,1-1.56-8.74c4.38-14.48,17.82-57.62,26.07-69.36C1418,320.19,1457.94,306.88,1457.94,306.88Z"/><path class="cls-253" d="M1407.75,391.62a.72.72,0,0,1-.6-.32.71.71,0,0,1,.2-1c.4-.27,39.86-26.51,56.4-38.46a7.58,7.58,0,0,0,3-7.72,135,135,0,0,0-8.28-26.15.72.72,0,0,1,.36-1,.71.71,0,0,1,1,.35,133.89,133.89,0,0,1,8.37,26.45,9,9,0,0,1-3.54,9.18c-16.56,12-56,38.23-56.44,38.49A.72.72,0,0,1,1407.75,391.62Z"/><path class="cls-255" d="M1507.27,159a197.73,197.73,0,0,0-54.52,28.84c-56.59,42.43-90.84,83.41-100.27,95.32a7.51,7.51,0,0,0-1,7.6,132.2,132.2,0,0,0,37.6,50.65A10.9,10.9,0,0,0,1400.3,343c16.26-6.87,63.27-28.49,117.18-69.41a197.8,197.8,0,0,0,42.46-44.15C1546.64,195.59,1522,171.72,1507.27,159Z"/><path class="cls-256" d="M1559.94,229.48c23.42-33.44,31.09-65.84,33.14-76.78a3.7,3.7,0,0,0-3.28-4.36c-11-1-44.12-2.54-82.53,10.65C1522,171.72,1546.64,195.59,1559.94,229.48Z"/><ellipse class="cls-257" cx="1488.79" cy="227.88" rx="33.17" ry="35.6" transform="translate(163.05 942.6) rotate(-37.03)"/><ellipse class="cls-258" cx="1490.13" cy="228.11" rx="26.43" ry="28.37" transform="translate(163.17 943.45) rotate(-37.03)"/><path class="cls-253" d="M1510.26,223.75a.72.72,0,0,1-.68-.49,21.61,21.61,0,0,0-3.19-6c-5.48-7.25-15-10.25-23.18-7.27a.7.7,0,0,1-.91-.43.71.71,0,0,1,.42-.92c8.76-3.19,19,0,24.81,7.76a22.87,22.87,0,0,1,3.4,6.39.71.71,0,0,1-.44.91A.66.66,0,0,1,1510.26,223.75Z"/><ellipse class="cls-259" cx="1435.57" cy="268.03" rx="21.92" ry="23.52" transform="translate(128.12 918.63) rotate(-37.03)"/><ellipse class="cls-260" cx="1436.46" cy="268.18" rx="17.46" ry="18.74" transform="translate(128.22 919.22) rotate(-37.03)"/><path class="cls-253" d="M1449.75,265.55a.72.72,0,0,1-.68-.49,13.76,13.76,0,0,0-2.07-3.89,13.34,13.34,0,0,0-15-4.72.72.72,0,0,1-.92-.43.72.72,0,0,1,.43-.92,14.81,14.81,0,0,1,16.67,5.21,15.54,15.54,0,0,1,2.28,4.29.72.72,0,0,1-.45.91A.93.93,0,0,1,1449.75,265.55Z"/><rect class="cls-261" width="1920" height="1277"/></svg>