<svg id="Layer_1" data-name="Layer 1" xmlns="http://www.w3.org/2000/svg" viewBox="0 0 1920 1277"><defs><style>.cls-1{fill:#f2b15b;}.cls-2{fill:#ecf3fb;}.cls-3{fill:#d6e4f5;}.cls-4{fill:#b9d3ee;}.cls-5{fill:#d3e1f4;}.cls-6{fill:#c6dbf1;}.cls-7{fill:#fab17e;}.cls-8{fill:#1c478a;}.cls-9{fill:#183660;}.cls-10{fill:#b6473d;}.cls-11{fill:#ee985e;}.cls-12{fill:#fff;}.cls-13{fill:#ec7e2a;}.cls-14{fill:#f89748;}.cls-15{fill:#f9ddbf;}.cls-16{fill:#ec893f;}.cls-17{fill:#99bfe5;}.cls-18{fill:#7caadb;}.cls-19{fill:#2e3652;}.cls-20{fill:#b2c1e3;}.cls-21{fill:#a1302f;}.cls-22{fill:#be4040;}.cls-23{fill:#a1afd9;}.cls-24{fill:#243962;}.cls-25{fill:#2b488c;}.cls-26{fill:#e3915a;}.cls-27{fill:#2b4f97;}.cls-28{fill:#dee9f7;}.cls-29{fill:#ee9960;}.cls-30{fill:#2e3b65;}.cls-31{opacity:0.8;}</style></defs><rect class="cls-1" width="1920" height="1277"/><path class="cls-2" d="M302.15,1091.06S68.26,842.5,232.27,610.63c61.2-86.52,217.43-135.1,361.05-95.69,84.83,23.29,213.49,19.85,339.2-185.36C1104,49.73,1815.6,177,1676.69,667.29c-58.51,206.54,159.57,215.94,51.55,424.21Z"/><path class="cls-3" d="M1568.39,593.12l-509.46,426.21L790.88,791c-50.16,44.17-127.65,112.36-205.59,180.79-53.27,46.77-96.4,84.55-131.35,115.13l-243.46-.28C278,1029.15,549.83,790.27,733,628.83l56-49.35,271,230.83,397.71-332.73Z"/><polygon class="cls-3" points="1393.14 425.17 1635.78 668.54 1704.32 390.52 1393.14 425.17"/><path class="cls-4" d="M597.73,938c-.9-22.29-2.86-41.67-5.19-55.19-3.73-21.55-7.09-33.95-7.12-34.08-.5-1.9-7.59-9.57-23.36-9.33s-14.27,10.29-14.27,10.29h0a3.32,3.32,0,0,0,.12.9c.15.52,14.62,53,14,120.76,0,.95-.11,2.59,0,3.69,0,0,36.54.94,36.55,0C599.68,969.1,599.06,952.69,597.73,938Z"/><path class="cls-5" d="M602.33,971c0,1-.51,1.7-1.12,1.7h0c-.61,0-1.09-.77-1.1-1.7H568.78c0,1-.51,1.7-1.11,1.7h0c-.62,0-1.11-.79-1.1-1.75a474.17,474.17,0,0,0-2.6-53.49c-4.16-39.87-11.86-66.51-12-66.88a3.35,3.35,0,0,1-.11-.9s-1.5-10,14.27-10.29,22.86,7.43,23.35,9.33c0,.1,1.93,7.12,4.46,19.74.84,4.18,1.74,9,2.67,14.34,2.33,13.51,4.29,32.9,5.19,55.18C603.14,952.69,603.6,965.07,602.33,971Z"/><path class="cls-6" d="M564.23,972.7H687s-2.86-11.57-74-9.85C562.73,964.07,564.23,972.7,564.23,972.7Z"/><path class="cls-4" d="M554.24,1093.54c14.24-72.06,10.58-116.28,10.56-116.84,0-1.11,2-2.11,3.11-2.15s6-.33,6.59.62c.75,1.25,3.61,55.73-17.6,118.37Z"/><path class="cls-4" d="M668.87,1093.54c-14.23-72.06-10.57-116.28-10.55-116.84,0-1.11-2-2.11-3.11-2.15s-6-.33-6.6.62c-.74,1.25-3.61,55.73,17.6,118.37Z"/><path class="cls-4" d="M691.59,1093.54C677.35,1021.48,681,977.26,681,976.7c0-1.11-2-2.11-3.11-2.15s-6-.33-6.59.62c-.75,1.25-3.61,55.73,17.6,118.37Z"/><path class="cls-4" d="M577.11,1093.54c14.24-72.06,10.58-116.28,10.56-116.84,0-1.11,2-2.11,3.11-2.15s6-.33,6.59.62c.75,1.25,3.61,55.73-17.6,118.37Z"/><rect class="cls-4" x="561.79" y="969.7" width="127.8" height="6.68" rx="3.34"/><path class="cls-7" d="M682.77,865.51l40.81-8.84,2.4,5.86s-45,26.8-49.25,25.48S682.77,865.51,682.77,865.51Z"/><path class="cls-7" d="M645.66,1050.08A3.62,3.62,0,0,0,645,1054s0,0,0,0c.93,2.59,4,5.47,7.61,8.36.46.37.87.7,1.23,1l.27.24.21.19c3.35,3.09,2.09,3.79,8.1,10.06,6.86,7.13,11.58,7.26,12.93,6.61,1.13-.55-1.18-4.34-3.74-8.59l-.37-.62-1-1.71c-3-5.12-2.22-7.52-1.51-15.14.58-6.19,9.63-34.59,9.63-34.59l-13.14-2.26s-4,22.61-8.32,26.09c-2.33,1.86-4.94,1.88-7.18,3.26l-.47.29A17.84,17.84,0,0,0,645.66,1050.08Z"/><path class="cls-8" d="M645.66,1050.08A3.62,3.62,0,0,0,645,1054s0,0,0,0c1.14,2.58,4.16,5.46,7.63,8.33.45.38.85.72,1.21,1l.27.24.21.19c3.35,3.09,2.09,3.79,8.1,10.06,6.86,7.13,11.58,7.26,12.93,6.61,1.13-.55-1.18-4.34-3.74-8.59a29.28,29.28,0,0,1-12.22-9c-4.13-5.27-6.88-12-9.69-16l-.47.29A17.84,17.84,0,0,0,645.66,1050.08Z"/><path class="cls-7" d="M751.63,1041.88c.82,4,6.6,3.38,13.06,1.8s4.92.29,14.12-.72,12-4.45,12.26-5.82c.25-1.21-4.29-1.64-9.17-2.2l-1.84-.22c-5.5-.69-9.53-4.24-14.53-7.15-4.73-2.77-11.8-14-11.8-14l-12.61,1s6.62,10,9.18,14.42c1.5,2.57,1.42,6,1.24,8.59A16.45,16.45,0,0,0,751.63,1041.88Z"/><path class="cls-8" d="M764.69,1043.68c6.46-1.58,4.92.29,14.12-.72s12-4.45,12.26-5.82c.25-1.21-4.29-1.64-9.17-2.2l0,.1a25.93,25.93,0,0,1-13.17,4.09c-6.24.15-12.85-1.64-17.15-1.57a16.45,16.45,0,0,0,.09,4.32C752.45,1045.93,758.23,1045.26,764.69,1043.68Z"/><path class="cls-7" d="M723.58,856.67s3-7.36,6.31-7.66,13.82-2,14.57-.45,0,6.91-2.26,8.86S726,862.53,726,862.53Z"/><path class="cls-9" d="M703.31,961.25l-27.17,73.13a24.7,24.7,0,0,1-8.18-.75,35.08,35.08,0,0,1-7.91-3.85s6.75-70.22,19.1-84.82S703.31,961.25,703.31,961.25Z"/><path class="cls-8" d="M595.82,931.66s78.09-26.4,95.51-20.79S761,1020.52,761,1020.52a10.11,10.11,0,0,1-4.4,2.78c-3,1.13-10.25,1-10.25,1s-47.19-40.44-52.81-52.24-7.86-23-13.48-21.91-72.47,27.53-87.64,11.8-11.2-36.17-11.2-36.17Z"/><path class="cls-10" d="M640.34,745.48c-3.37-1.92-7.42-2.13-10.25-2a4.73,4.73,0,0,1,2.16-1c-1.75-.26-5.67,1.48-5.67,1.48-24.4-9.4-28.24,26.53-27.72,34.88s.57,17.95-11.62,25.44c-24,14.73-3.74,40.45-3.74,40.45.19.11,11.15,18.71,11.15,18.71-.61-6.75,30.51-42.35,46.75-53,4-5.82,5.36-16.1,5.47-16.91-.69,8.15-2.08,12.72-3.33,15.3C657.29,796.17,649.29,750.56,640.34,745.48Z"/><path class="cls-7" d="M640.44,811c.08,0-7.84,4.15-13.8,2.52-5.6-1.53-9.27-8.8-9.19-8.81,2.37-.47,3.06-3.74,3-17.75l1.07.21,18.05,3.57s-.41,5.68-.43,11C639.14,806.23,639.41,810.49,640.44,811Z"/><path class="cls-11" d="M639.58,790.71s-.41,5.68-.43,11c-10.09-.29-15.43-9.5-17.62-14.6Z"/><path class="cls-10" d="M619.67,785.17s-5.29-8.36-6.56-15.51c-.91-5.1,1.69-24,20.7-21.3a25.86,25.86,0,0,1,10.71,4.06c4.13,2.78,10.09,8.8,3.43,25.31l-1.73,5.58Z"/><path class="cls-7" d="M643,795.78s-23.89.39-23.91-14.49-3.11-24.85,12.14-25.73,18.23,4.79,19.44,9.76S649.16,795.29,643,795.78Z"/><path class="cls-10" d="M642.06,755.19s-6.54,17.46-16.58,20-14.39-.11-14.39-.11a28.41,28.41,0,0,0,9.3-16.79S637.13,746.88,642.06,755.19Z"/><path class="cls-10" d="M640.44,756.61s4.89,3.9,6.08,7.69,1.72,11.59,4,11.32c0,0,4.93-11.87-.61-18.58C644,749.92,640.44,756.61,640.44,756.61Z"/><path class="cls-8" d="M587.24,875.24c-2.35-9.88,5.66-29,14-44.93,7.59-14.38,15.47-26,16.18-25.63,20,11.88,21.83,2,21.83,2h0s18.19,2.42,23.34,11.28c6.39,11,13.29,41.74,20.15,47.55-1.06,3.22-.6,4.94.51,8.93.24.86.5,1.67.79,2.44a47.19,47.19,0,0,0,3.45,7.07c-3.49,2.12-10.22,6.14-15.18,3.25-7.55-4.43-13.45-17.89-16.77-23.25l0-.06c-7.21,40.83,2.6,50.13-2.37,54.43-5.24,4.55-12.73-2.16-29.21,5C613.14,928,598.14,934.77,588,936c-5.29.62-9.25-.3-10.53-3.88C573.76,921.68,591.74,894.08,587.24,875.24Z"/><path class="cls-12" d="M637.64,786.75s.44,1.9,5.15,1.6c0,0,3.94-.24,3.82-2.32A12.69,12.69,0,0,0,637.64,786.75Z"/><path class="cls-9" d="M577.51,932.07c1.28,3.58,5.24,4.5,10.53,3.88,7-3.05,37.18-14.74,36.85-22.67-.51-11.73-5.81-12.11-2.06-26.59,3-11.63-24.89-33.25-29.34-38-8.37,15.87-8.6,16.62-6.25,26.5C591.74,894.08,573.76,921.68,577.51,932.07Z"/><path class="cls-8" d="M574.09,889.75a44.38,44.38,0,0,1,14.6-13.49c-.84-2.18,22.53-30.82,22.53-35.26s6.23-36.32,6.23-36.32-19.47,1.2-26.21,10.6C582.81,827,565.3,872.28,574.09,889.75Z"/><path class="cls-7" d="M588.69,876.26l38.91,10.15L624,893s-47.35-.33-49.86-3.21S588.69,876.26,588.69,876.26Z"/><path class="cls-9" d="M655.57,864c3.32,5.36,9.22,18.82,16.77,23.25,5,2.89,11.69-1.13,15.18-3.25a47.19,47.19,0,0,1-3.45-7.07c-2.78.64-6.17,1.45-8.36,2.11C671.45,880.28,655.57,864,655.57,864Z"/><path class="cls-7" d="M627.6,886.41s12.22-3.46,15.13-2.65,12.88,7.41,11.48,9.2S644,891.89,640,892.43s-7.17,2.54-10.08,2.11A33.38,33.38,0,0,1,624,893Z"/><path class="cls-7" d="M627.6,886.41s6-3.07,7.68-4.82a.47.47,0,0,1,.74.09c.46.71.88,2.1-1.21,3.48C631.79,887.15,627.6,886.41,627.6,886.41Z"/><path class="cls-13" d="M684.06,903.6h-57a4.55,4.55,0,0,1,4.55-4.55h52.45Z"/><polygon class="cls-13" points="683.9 841.52 772.03 841.52 750.89 903.6 662.19 903.6 683.9 841.52"/><polygon class="cls-14" points="773.33 841.52 752.18 903.6 663.49 903.6 685.2 841.52 773.33 841.52"/><path class="cls-15" d="M725.81,872a5.72,5.72,0,0,1-5.28,4.3,3.31,3.31,0,0,1-3.31-4.3,5.74,5.74,0,0,1,5.29-4.29A3.3,3.3,0,0,1,725.81,872Z"/><path class="cls-16" d="M773.33,841.52,752.18,903.6H693.45c38.91-13.28,49.26-53.78,51-62.08Z"/><path class="cls-17" d="M517.48,1093.54a2.28,2.28,0,0,0,2.26-1.85L530.81,1029l15.92-90.23,4.45-25.23-11.34-.32-2,14.65-13.81,102.93-8.19,61A1.59,1.59,0,0,0,517.48,1093.54Z"/><path class="cls-18" d="M537.87,927.82c7.35,3.24,8.86,10.9,8.86,10.9l4.45-25.23-11.34-.32Z"/><path class="cls-17" d="M799.53,1093.54a2.28,2.28,0,0,1-2.26-1.85L786.21,1029l-15.93-90.23-4.45-25.23,11.34-.32,2,14.65L793,1030.75l8.19,61A1.59,1.59,0,0,1,799.53,1093.54Z"/><path class="cls-18" d="M779.14,927.82c-7.35,3.24-8.86,10.9-8.86,10.9l-4.45-25.23,11.34-.32Z"/><rect class="cls-18" x="503" y="903.59" width="304.23" height="19.81" rx="9.91" transform="translate(1310.22 1826.98) rotate(-180)"/><rect class="cls-19" x="104.4" y="1088.41" width="1711.19" height="4.54" rx="2.27"/><path class="cls-7" d="M1231.21,893s-7.53,9.34-5.18,10.62,8.58,3.65,10,2.15,1.92-12.51,1.92-12.51Z"/><path class="cls-7" d="M1231.52,893.18s-3.08,1.07-4.29,2.67-3.9,4-3.24,4.73,4.5-2.32,4.5-2.32Z"/><path class="cls-20" d="M1259.69,768.27s-8.49,79-9.25,81.29c-.17.49-.83,3-1.77,6.59-1.34,5.14-3.22,12.53-5,19.56-2.7,10.61-5.18,20.4-5.18,20.4l-7.37-2.43s-.38-38.41,1.52-47.25,8-63.19,11-70.51S1259.69,768.27,1259.69,768.27Z"/><path class="cls-21" d="M1242,957.81l-46.31-12.14a11.37,11.37,0,0,1-8.08-13.83l5.26-20.07a11.36,11.36,0,0,1,13.83-8.09L1253,915.83a11.36,11.36,0,0,1,8.09,13.83l-5.27,20.07A11.36,11.36,0,0,1,1242,957.81Z"/><path class="cls-22" d="M1199,913.36l-5.32,20.29a11.36,11.36,0,0,0,2.76,10.71,11,11,0,0,0,3,2.29h0a11.16,11.16,0,0,0,2.3.88L1248,959.66a11.4,11.4,0,0,0,13.88-8.11l5.32-20.3a11.41,11.41,0,0,0-8.11-13.89l-15.92-4.17,1.14-4.33a3.75,3.75,0,0,0-2.68-4.58l-1.74-.46-9.68-2.54-2.41-.63a3.76,3.76,0,0,0-2.84.39,3.72,3.72,0,0,0-1.74,2.29l-1.14,4.33-9.22-2.42a10.58,10.58,0,0,0-1.09-.23h0a11.41,11.41,0,0,0-9.9,3.28h0A11.36,11.36,0,0,0,1199,913.36Zm41.92-.77-16.54-4.33,1.13-4.33a1.4,1.4,0,0,1,1.71-1l4.16,1.09,7.62,2,2,.54a1.71,1.71,0,0,1,.39.17,1.4,1.4,0,0,1,.61,1.54Z"/><path class="cls-7" d="M1235.61,906s2.06-3.47,1.29-4.67-3.55,3.59-3.55,3.59,1.9-4.12,1.19-4.8-3.61,4.06-3.61,4.06,1.81-4,1.17-4.14-2.79,3.36-2.79,3.36,1.12-3,.1-2.85-3.23,2.88-3.23,2.88Z"/><path class="cls-23" d="M1248.67,856.15c-1.34,5.14-3.22,12.53-5,19.56a76.05,76.05,0,0,1-3.54-15.51c-1.71-13.08,3.53-41,3.53-41Z"/><path class="cls-7" d="M1345.8,889.78s8.21,6.67,9.23,8.75,3.56,9.8,3.43,12.28-6.29-5.69-8.1-6.35,1.89,3.36,1.47,4.22-4.26-1.95-5.73-2.87-2.5-7.16-4.69-10.55S1345.8,889.78,1345.8,889.78Z"/><path class="cls-24" d="M1238.08,1089.46H1279c2.93-2-.79-21.43-.79-21.43s-11.17-4.24-13.1,4.38-14.23,11.36-20.74,12.41C1239.93,1085.54,1238.52,1088,1238.08,1089.46Z"/><path class="cls-24" d="M1298.78,1089.46h40.94c2.93-2-.8-21.43-.8-21.43s-11.17-4.24-13.1,4.38-14.23,11.36-20.73,12.41C1300.64,1085.54,1299.23,1088,1298.78,1089.46Z"/><path class="cls-25" d="M1249.09,891.1s1.84,23,4,50.55c2.94,37.48,10.87,130.41,10.87,130.41s5.2,4.43,16.71,2a364.67,364.67,0,0,0,12.73-68.65c0-.6.09-1.21.13-1.81,2.73-37.25,7-115.69,7-115.69Z"/><path class="cls-24" d="M1248.46,883.17s2.47,30.89,4.63,58.48l40.31,63.77c0-.6.09-1.21.13-1.81,2.73-37.25,7-115.69,7-115.69Z"/><path class="cls-25" d="M1260.21,883.17s29.23,72.76,38.57,100.34c6.66,19.65,25.43,88.56,25.43,88.56s8.16,2.49,15-2.32c0,0,7-70.41-7.12-90.26-7.48-10.53-1.86-109.5-32.2-110.34S1260.21,883.17,1260.21,883.17Z"/><path class="cls-20" d="M1315.91,889.78c-12.19,6.87-64.4,6.72-66.82,1.32-5.4-12.05-6.76-73.29-4.21-92.07,0,0,1.32-28.87,4.21-27.6,19.29-8.86,50.5-.81,50.5-.81,8.42,2.48,7.7,21.71,10.05,48.72.3,3.48.64,7.11,1,10.86,1.66,16.68,4.08,35.84,7.75,56C1318.65,887.58,1317.72,888.76,1315.91,889.78Z"/><path class="cls-7" d="M1285.17,767.37c-.32,5.16-7.06,4.58-15.15,2.73s-5.17-6.62-5.17-6.62.12-3.67.63-8.07c.19-1.59.42-3.29.73-4.94.14-.81.3-1.61.48-2.37,1.06-4.55,16.18-.16,16.07,1.06C1282.46,752.46,1284.85,763.31,1285.17,767.37Z"/><polygon class="cls-24" points="1267.82 776.38 1267.18 769.25 1276.14 770.94 1272.69 777.31 1267.82 776.38"/><path class="cls-23" d="M1265,760.12l-5.35,8.15a11.84,11.84,0,0,0,4.64,8.64l7.33-6.82S1266.92,768.29,1265,760.12Z"/><path class="cls-23" d="M1271.66,770.09s1.52,5.45,4.45,7.95c0,0,11.43-3.08,14.16-8.93l-6-7.69S1284,767.23,1271.66,770.09Z"/><path class="cls-26" d="M1282.84,751.72a28,28,0,0,1-17.36,3.69c.19-1.59.42-3.29.73-4.94,2-.49,3.66-.79,3.66-.79Z"/><path class="cls-7" d="M1287.46,746.22c-3.55,9.8-16.54,7.3-22.06,5.72-1.56-.44-2.52-.8-2.52-.8-1.71-.78-2.24-3.76-2.09-7.53.29-7.45,3.24-18,4.93-20.51,2.54-3.81,6.77-7.69,19.37-2.29S1292,733.68,1287.46,746.22Z"/><path class="cls-24" d="M1297.19,741.2c-4,3.24-12.51,9.24-12.51,9.24a15.44,15.44,0,0,0,2.11-4.36,4.35,4.35,0,0,0,.15-1.48,8.24,8.24,0,0,1,1.17-4.52c.52-.84.71-1.72.05-2.34-1.08-1-2.92-.08-4.13.74a2.42,2.42,0,0,1-2.66.07h0c-3.4-2.13.35-5.87-2.41-9s-14.71-3.53-14.23-5.48c-4.08-2.31-1.51-10.81-1.43-11.26a43.94,43.94,0,0,0,13.16-1.31c5.93-1.49,12.47,2.32,14.54,3.89a3.33,3.33,0,0,0-.33-1.45,3.07,3.07,0,0,1,.88,1.93c.09.09.13.15.1.17a3.84,3.84,0,0,1,1.87.43s-.5-.16-.74.14a.39.39,0,0,1-.1.08C1300.61,722.3,1300.49,738.5,1297.19,741.2Z"/><path class="cls-12" d="M1268.69,744.81s-.64,1.23-3.85.21c0,0-2.7-.86-2.25-2.28A9.13,9.13,0,0,1,1268.69,744.81Z"/><path class="cls-27" d="M1267.82,776.38s-7.16,90.38-7.06,97.9,7.93,15.5,7.93,15.5,6.23-6.83,7.45-14-3.45-98.44-3.45-98.44Z"/><path class="cls-20" d="M1299.6,770.62s11.54,2.76,20.67,20.3,16.34,52.89,20.69,62.22,7.35,38.73,7.35,38.73l-6.9,3.39s-16.66-30.13-19.12-40c-1.34-5.34-21.7-48.13-21.7-48.13Z"/><path class="cls-23" d="M1315.91,889.78h0c-21.74-3.13-15.51-75.07-13.8-75.36s8,12.86,8,12.86l.6,2.92c1.66,16.68,4.08,35.84,7.75,56C1318.65,887.58,1317.72,888.76,1315.91,889.78Z"/><path class="cls-24" d="M1587.13,1046.94s9,8.26,7.28,14.13-9.93,9.78-11,17-5.51,11.09-9.49,11.09h-18.94s-2.93-5,4.14-6.57,9.72-10,9.28-17.78a137.67,137.67,0,0,1,.67-18.26l15-3.47Z"/><path class="cls-24" d="M1476.09,1068.3s1.62,18.8-2.35,20.76l-50.85-.11s0-5.87,8.16-7.17,22.52-6.09,25-16.74S1476.09,1068.3,1476.09,1068.3Z"/><path class="cls-27" d="M1433.15,802.77s2.69,33,5.84,72.55c4.28,53.81,9.44,119.9,10,132.42.88,21.74,4.41,56.52,4.41,56.52s8.39,8.26,25.17,4.78c0,0,15-49.65,19.23-102.17.06-.86.13-1.73.19-2.6,4-53.47,10.16-166.07,10.16-166.07Z"/><path class="cls-24" d="M1433.15,802.77s2.69,33,5.84,72.55l58.76,91.55c.06-.86.13-1.73.19-2.6,4-53.47,10.16-166.07,10.16-166.07Z"/><path class="cls-27" d="M1445.4,806.68s48.35,119.33,80.14,175.41,41.72,71.73,41.72,71.73,18.21-7.17,19.87-12.06c0,0-12.16-108.27-33.45-134.66-12-14.91-22.4-48-21.88-63.65.89-27-9.24-58.29-9.24-58.29Z"/><path class="cls-7" d="M1406.8,808.43s-9,12.22-9.69,15.49-1.45,14.9-.37,18.31,6.71-10.17,9-11.73-1.43,5.34-.54,6.39,5.24-4.24,7-6,.91-10.86,2.74-16.36S1406.8,808.43,1406.8,808.43Z"/><path class="cls-12" d="M1446.61,630.81s-12.2,113.55-13.29,116.79c-.24.7-1.19,4.3-2.54,9.47-1.92,7.39-4.63,18-7.21,28.09-3.88,15.24-8.07,28.43-8.07,28.43s-1.84,1.19-6.29.81a6.63,6.63,0,0,1-4.66-2.85s.45-55.75,3.17-68.45,11.43-90.78,15.84-101.29S1446.61,630.81,1446.61,630.81Z"/><path class="cls-28" d="M1430.78,757.07c-1.92,7.39-4.63,18-7.21,28.09a109.87,109.87,0,0,1-5.09-22.27c-2.45-18.8,5.08-58.83,5.08-58.83Z"/><path class="cls-12" d="M1527.38,805.37c-17.51,9.88-92.52,9.66-96,1.91-7.77-17.32-9.71-105.3-6.05-132.28,0,0,1.89-41.48,6.05-39.65,27.7-12.73,72.55-1.16,72.55-1.16,12.09,3.56,11,31.19,14.43,70,.43,5,.91,10.22,1.45,15.6,2.39,24,5.86,51.49,11.14,80.53C1531.31,802.22,1530,803.91,1527.38,805.37Z"/><path class="cls-7" d="M1483.22,629.52c-.47,7.42-10.14,6.58-21.78,3.92s-7.41-9.51-7.41-9.51.17-5.27.9-11.58c.27-2.3.61-4.74,1-7.11.2-1.16.43-2.31.69-3.41,1.52-6.53,23.24-.23,23.08,1.53C1479.33,608.1,1482.76,623.7,1483.22,629.52Z"/><polygon class="cls-24" points="1458.28 642.47 1457.37 632.22 1470.24 634.65 1465.29 643.8 1458.28 642.47"/><path class="cls-28" d="M1454.3,619.11l-7.69,11.7a17,17,0,0,0,6.67,12.42l10.52-9.8S1457,630.84,1454.3,619.11Z"/><path class="cls-28" d="M1463.8,633.43s2.19,7.83,6.4,11.42c0,0,16.43-4.42,20.34-12.83L1482,621S1481.57,629.33,1463.8,633.43Z"/><path class="cls-26" d="M1479.88,607a40.3,40.3,0,0,1-25,5.31c.27-2.3.61-4.74,1-7.11,2.86-.7,5.25-1.13,5.25-1.13Z"/><path class="cls-7" d="M1486.51,599.14c-5.11,14.07-23.76,10.48-31.7,8.22-2.24-.63-3.62-1.16-3.62-1.16-2.46-1.11-3.22-5.4-3-10.81.42-10.7,4.65-25.82,7.08-29.46,3.65-5.49,9.74-11.06,27.83-3.3S1493.07,581.12,1486.51,599.14Z"/><path class="cls-22" d="M1500.49,591.92c-5.71,4.66-18,13.28-18,13.28s1.36-1.62,3-6.27a6.27,6.27,0,0,0,.23-2.12,11.72,11.72,0,0,1,1.67-6.49c.75-1.22,1-2.48.08-3.37-1.55-1.47-4.2-.12-5.94,1.07a3.51,3.51,0,0,1-3.82.1l0,0c-4.88-3.05.5-8.44-3.46-12.9s-21.13-5.09-20.44-7.89c-5.86-3.31-2.17-15.52-2.06-16.17a63.07,63.07,0,0,0,18.91-1.88c8.52-2.14,17.91,3.34,20.89,5.59a4.69,4.69,0,0,0-.48-2.08,4.42,4.42,0,0,1,1.27,2.76c.13.13.19.22.15.24a5.59,5.59,0,0,1,2.68.63s-.72-.23-1.07.2a.49.49,0,0,1-.14.11C1505.39,564.77,1505.23,588.05,1500.49,591.92Z"/><path class="cls-12" d="M1459.54,597.11s-.92,1.77-5.53.3c0,0-3.87-1.23-3.23-3.27A13.07,13.07,0,0,1,1459.54,597.11Z"/><path class="cls-27" d="M1458.28,642.47S1448,772.3,1448.15,783.12s11.39,22.25,11.39,22.25,9-9.8,10.7-20.15-5-141.42-5-141.42Z"/><path class="cls-28" d="M1527.38,805.37h0c-31.22-4.49-22.28-107.85-19.83-108.26S1519,715.59,1519,715.59l.86,4.19c2.39,24,5.86,51.49,11.14,80.53C1531.31,802.22,1530,803.91,1527.38,805.37Z"/><path class="cls-21" d="M1619.18,882.36l-66,19.22A16.32,16.32,0,0,1,1533,890.5l-8.33-28.62a16.33,16.33,0,0,1,11.08-20.17l66-19.22a16.33,16.33,0,0,1,20.17,11.08l8.33,28.62A16.32,16.32,0,0,1,1619.18,882.36Z"/><path class="cls-22" d="M1533.34,859.33l8.43,28.95A16.4,16.4,0,0,0,1558.51,900h0a15.87,15.87,0,0,0,3.5-.61l65.92-19.18A16.39,16.39,0,0,0,1639.06,860l-8.43-29a16.38,16.38,0,0,0-20.25-11.12l-22.69,6.61-1.8-6.18a5.4,5.4,0,0,0-6.68-3.67l-2.49.72-13.81,4-3.43,1a5.41,5.41,0,0,0-3.67,6.68l1.8,6.18-13.15,3.82a15,15,0,0,0-1.51.53h0a16.38,16.38,0,0,0-9.77,11.35h0A16.2,16.2,0,0,0,1533.34,859.33Zm51.1-31.88-23.59,6.86-1.79-6.17a2,2,0,0,1,1.37-2.49l5.92-1.73,10.87-3.16,2.93-.85a1.77,1.77,0,0,1,.6-.08,2,2,0,0,1,1.9,1.44Z"/><path class="cls-7" d="M1564.66,809s-2.05,17.13,1.79,16.88,13.23-2.09,13.87-5-7.19-16.71-7.19-16.71Z"/><path class="cls-7" d="M1565.15,808.92s-2.94,3.65-3.19,6.52-1.65,7.89-.34,8.22,3.72-6.25,3.72-6.25Z"/><path class="cls-12" d="M1503.94,634.19s16.59,4,29.7,29.16,23.47,76,29.73,89.4,11,53.64,11,53.64-1,2-4.35,2.73a20.25,20.25,0,0,1-5.3.34s-24.66-39.49-28.2-53.68c-1.92-7.68-31.18-69.15-31.18-69.15Z"/><polygon class="cls-7" points="411.64 1072.72 409.15 1054.82 419.59 1046.1 422.88 1069.79 411.64 1072.72"/><path class="cls-24" d="M446.3,1088.7H403.75s-1-6.48,1.2-11.4c2.13-4.72,5.44-7.64,5.75-11.26,2.7,2.79,6,4.58,12.18,3.75.76,1.22,4.87,7.76,7.39,9.57C433.05,1081.36,445.45,1080.65,446.3,1088.7Z"/><path class="cls-14" d="M437.75,831c-2.78,22.39-5.06,43.49-6.91,63.17-9.9,104.81-8,168.88-8,168.88s-.72,1.89-6.86,1.92a35.05,35.05,0,0,1-6.87-.74S387,995.82,388.69,956.87a59.16,59.16,0,0,1,1.73-12.61c5.32-19.93-19.68-96.14,7.5-124.52S439,820.75,437.75,831Z"/><path class="cls-13" d="M437.75,831c-2.78,22.39-5.06,43.49-6.91,63.17l-42.15,62.67a59.16,59.16,0,0,1,1.73-12.61c5.32-19.93-19.68-96.14,7.5-124.52S439,820.75,437.75,831Z"/><path class="cls-7" d="M471.25,617.47s-1-5.11-2.18-9c-.51-1.73,3.05-13.08,5.51-14.47s8.89,6.24,7.07,12.11c-.93,3-2.46,12.82-2.46,12.82Z"/><path class="cls-7" d="M471.25,617.47s-1.34-3-2.55-3.44-2.51-5.33-3.4-7.26c0,0,.86-1.25,2.36.36.92,1,3,3.89,3,3.89Z"/><path class="cls-7" d="M295.56,634.68c-.26.54-.62,1.5-.94,2.41,0-.25,0-.5,0-.74,0-1.8-6.75-11.6-9.51-12.22s-6.67,8.58-3.22,13.65c1.77,2.61,6.11,11.54,6.11,11.54l7.17-3.7s.41-3.23,1.43-4,.84-5.83,1.12-7.92C297.71,633.65,296.53,632.69,295.56,634.68Z"/><path class="cls-7" d="M340.27,1067.35c-.61-5.74-.75-20.83-.75-20.83s15.38-4.92,14.81-1.54c-2.78,16.59-2,24.81-2,24.81l-6.22,3.72Z"/><path class="cls-14" d="M424.91,830s-59.42,162.87-71.11,233.51c0,0-2.71,1.86-7.76,1.25-5.74-.7-7.31-4.69-7.31-4.69S328,975.36,349.33,946c14.66-20.2-6.32-108.9,27.82-116S424.91,830,424.91,830Z"/><path class="cls-9" d="M414.36,673.29h0c0-.07,0-.14-.05-.21-.35-1.44-.73-2.85-1.14-4.25h0a93.53,93.53,0,0,0-4.32-12c-.92-2.07-1.87-4-2.84-5.69-.15-.26-.3-.5-.44-.76h0c-2.29-3.86-4.65-6.53-6.78-7.35-3.89-1.5-8.21-1.08-11.18-.47a5.08,5.08,0,0,1,2.13-1.42c-1.9,0-5.78,2.46-5.78,2.46-27.36-6.12-25.76,32.59-23.9,41.36s-7,13-19.38,22c-23.71,17.13-23.32,35.29-23.32,35.29a6.74,6.74,0,0,1,.69.31c1-2.35,3-6.79,5.1-7.74a93,93,0,0,0-2.27,9.2c3.61,2,8.61,5.07,14,8.55h0c7.26,4.64,15.28,10,21.7,14.34-.3-1.77-.6-4.29-.16-5.72l2.05,6.34.27.83c4.1,2.78,7.33,5,9,6.14l.45.31.73.51c-.54-2.24,1.85-8.08,5.87-15.45.27-.51.56-1,.86-1.56,1.3-2.33,2.74-4.78,4.3-7.31.56-.91,1.13-1.83,1.72-2.76h0c.47-.75.94-1.49,1.44-2.25h0c1.16-1.8,2.37-3.61,3.6-5.43,3.18-4.69,6.54-9.36,9.87-13.64a119.94,119.94,0,0,1,13.55-15.18c.13-.27.25-.55.36-.82A27.48,27.48,0,0,0,412,706.3c.11-.49.22-1,.31-1.48a63.24,63.24,0,0,0,1-11.6,66.26,66.26,0,0,1-.14,11.69c-.08.63-.16,1.21-.26,1.76h0a24.27,24.27,0,0,1-.71,3.08,15.75,15.75,0,0,0,1.72-2.66,19.05,19.05,0,0,0,.9-2C418,696.93,417.13,684.73,414.36,673.29Z"/><path class="cls-7" d="M409.22,712.51c.09,0-7.67,5.64-14.24,4.85-6.19-.74-11.22-7.87-11.14-7.9,2.44-.87,2.65-4.44.39-19.3l1.17.06,19.7.94s.46,6.09,1.29,11.76C407.09,707.69,408.05,712.16,409.22,712.51Z"/><path class="cls-11" d="M405.1,691.16s.46,6.09,1.29,11.76c-10.75,1.29-17.86-7.63-21-12.7Z"/><path class="cls-9" d="M383.12,688.43s-6.93-8-9.41-15.41c-1.77-5.27-2-25.75,18.6-25.86a27.73,27.73,0,0,1,12,2.61c4.81,2.3,12.08,7.75,7.62,26.3l-.95,6.19Z"/><path class="cls-12" d="M440.24,826.83s-25.64,15.24-57.82,7.4c-.38-.09-26.5-4.26-26.5-4.26.44-1.22,3.82-21.4,4.26-22.53,5.71-14.74,16.15-94.71,24.87-98.65,2.22,2.42,8.59,4.08,14,3.6,6.27-.56,8.37-3.27,7.85-6.18,6.94,3.28,12.27,6.33,12.27,6.33C425.54,722,440.24,826.83,440.24,826.83Z"/><path class="cls-7" d="M409.48,696s-25.28,4.19-27.64-11.59-7.22-25.87,8.82-29.21,20.08,2.21,22.15,7.29S416,694.5,409.48,696Z"/><path class="cls-9" d="M402.14,653.1S398,672.65,387.72,677s-15.28,2.15-15.28,2.15a30.47,30.47,0,0,0,7.21-19.27S395.59,645.07,402.14,653.1Z"/><path class="cls-9" d="M400.64,654.86s5.8,3.36,7.66,7.19,3.66,12,6,11.38c0,0,3.35-13.36-3.58-19.6C403.4,647.2,400.64,654.86,400.64,654.86Z"/><path class="cls-25" d="M479.36,617.84a16.26,16.26,0,0,0-4.52-1.4,13.87,13.87,0,0,0-4,.42s-7.13,44.32-7.66,46.67-30.58,36.2-38.69,36.07c-7.31-.12-16,5.52-17.59,6.61,0,0,17,36,17.89,42.8.92,7.36,9.75,120.78,9.75,120.78s-.53,5.27,9.33,2.44S456.22,867,456.22,867s-9.05-89.28-11-117a54,54,0,0,0-1.73-10.36,10.49,10.49,0,0,1,1.69-8.92c12.47-17.11,32.15-44.83,33.25-50.72C480.09,671.33,479.36,617.84,479.36,617.84Z"/><path class="cls-24" d="M375.73,1088.7H333.17s-1-6.48,1.2-11.4c2.13-4.72,5.45-7.64,5.75-11.26,2.7,2.79,6,4.58,12.18,3.75.76,1.22,4.87,7.76,7.39,9.57C362.47,1081.36,374.87,1080.65,375.73,1088.7Z"/><path class="cls-25" d="M405,752.51c-1.43-8.83-19.75-44.27-19.75-44.27s-11.57-3.46-19.19-.7S319,688,317.71,686s-22.38-41.39-22.38-41.39-1.75-1-4.55.45a5.12,5.12,0,0,0-2.79,4.27s16.3,49.54,20.63,57.2c2.62,4.62,24.6,20.71,41.64,32.76a10.7,10.7,0,0,1,4.43,10.16c-2.3,16.94-2.88,26.48-5.51,55.55-2.19,24.11-3,70.8-3,70.8s19.07,6.6,32.23,7.47,16-13,16-13S406.43,761.58,405,752.51Z"/><path class="cls-12" d="M401.19,688.2a11.32,11.32,0,0,0,6.7,1.26c2.48-.37,3.05-3.32,3.05-3.32a9.85,9.85,0,0,0-4.48,0A19,19,0,0,0,401.19,688.2Z"/><path class="cls-7" d="M1208.42,387.41s-11.83-21,0-25.29,17.18-.33,17.74,4.45-4.51,23.66-4.51,23.66Z"/><path class="cls-14" d="M1217.9,521.82a383.22,383.22,0,0,1-59.28,6.09,332.31,332.31,0,0,1-45.56-2c-3.59-.41-7-.88-10.33-1.38-34.91-5.29-54.19-14.68-54.19-14.68s31.9-66.77,57.66-64.2c30.23,3,81.46,30.14,86.55,22.53,5.73-8.57,10.53-82.08,10.53-82.08,13.4-9.18,21.4.49,21.4.49S1250.86,515.87,1217.9,521.82Z"/><path class="cls-13" d="M1217.9,521.82a383.22,383.22,0,0,1-59.28,6.09,332.31,332.31,0,0,1-45.56-2c-8-25.58-13.83-51.71,2.34-36C1143.94,517.68,1217.9,521.82,1217.9,521.82Z"/><path class="cls-24" d="M1046.12,1060.9s-2.29,26.55,3.32,29.31l71.8-.15s0-8.28-11.53-10.13-31.8-8.59-35.22-23.63S1046.12,1060.9,1046.12,1060.9Z"/><path class="cls-27" d="M1098.84,739.66c-.36,17.35-1.19,35.26-2.83,51.35-7.75,76.34-10.48,168.59-11.59,186.37-1.93,30.87-8,80.19-8,80.19s-12.1,11.49-35.68,6c0,0-19.53-71-23.9-145.84-.06-1.22-.13-2.46-.19-3.69-.51-9.89-1-21.2-1.58-33.39-3.59-81.67-7.5-203-7.5-203l90.11-21.16S1099.72,696.39,1098.84,739.66Z"/><path class="cls-24" d="M1098.84,739.66c-22.84,39.4-66.37,112-83.8,141-3.59-81.67-7.5-203-7.5-203l90.11-21.16S1099.72,696.39,1098.84,739.66Z"/><path class="cls-7" d="M870.69,663.34s-14.66,17.24-16,22-3.67,22-2.41,27.18,11-14.43,14.55-16.52-2.66,7.8-1.45,9.45,8.21-5.78,10.94-8.29,2.46-16,5.74-24S870.69,663.34,870.69,663.34Z"/><path class="cls-24" d="M867.25,1030.74s-12.78,11.66-10.29,20,14,13.81,15.59,23.94,7.79,15.65,13.4,15.65H912.7s4.13-7.12-5.84-9.27-13.74-14-13.12-25.1-.93-25.78-.93-25.78l-21.2-4.92Z"/><path class="cls-27" d="M1083.45,679.52S999.1,860,954.21,939.18s-58.91,101.28-58.91,101.28-25.71-10.13-28-17c0,0,17.16-152.88,47.22-190.14,17-21.06,36.94-84.25,37.87-106.35S973,652.1,973,652.1Z"/><path class="cls-14" d="M1108.11,688s-33.54,22.43-81,20.34c-20.83-.91-62.16-6.81-68.83-23.38-1.56-3.89-.42-8.83,1.93-16.41,6.1-19.69,20.31-57.2,16-140.35a136.71,136.71,0,0,1,.56-21.83c4.47-41,27.94-65.21,50.63-73.14,55.33-19.34,73.78,7.45,73.78,7.45s24.46,19.38,28.14,59.82C1136.69,581.42,1108.11,688,1108.11,688Z"/><path class="cls-7" d="M1043.61,428.61s25.39,15.45,52.93,11.08c0,0,5.44-1.38,2.77-7.78a80.84,80.84,0,0,0,2.44-8.52,126.64,126.64,0,0,0,3.15-13.91l-15.62-16.43-14.8-15.69C1070.39,414.87,1043.61,428.61,1043.61,428.61Z"/><path class="cls-29" d="M1072.11,391.58s8.5,22.73,29.64,31.81c2.42-8.82,4-18.05,4-18.05l-16.46-12.29Z"/><path class="cls-7" d="M1122.44,408.68S1074,414.74,1070.57,385s-11.94-49,18.85-54.18,38.12,5.58,41.71,15.25S1135,406.34,1122.44,408.68Z"/><path class="cls-30" d="M1055.27,325.94c-.41-.52-1.41-1-3.65-1.17a9.17,9.17,0,0,1,4.24-1c.59-3.11,2.46-8.57,7.88-9.71a6.76,6.76,0,0,0-3.45,4.74c6.46-6.16,20-10.3,56.77-6,48.5,5.67,31.29,36.21,24.86,39.69s-21.91-7.3-33.68-6.82S1093.6,363,1089.53,365.2s-2.35-1.88-7.64-4.52-6.14,6.27-4.81,12.13-6.35,13.24-6.35,13.24l-7.18-8.34c-7.17-8.34-12.93-42.72-9.25-49.86Z"/><polygon class="cls-27" points="1203.28 373.47 1121.01 374.2 1120.44 361.83 1202.46 355.47 1203.28 373.47"/><polygon class="cls-27" points="1265.38 375.54 1175.81 376.83 1174.79 354.33 1264.11 347.41 1265.38 375.54"/><polygon class="cls-24" points="1325.78 377.3 1250.25 377.4 1248.87 347.02 1324.1 340.17 1325.78 377.3"/><path class="cls-24" d="M1326.86,382.43h0a4.23,4.23,0,0,0,4-4.41l-1.77-39a4.23,4.23,0,0,0-4.42-4h0a4.21,4.21,0,0,0-4,4.41l1.77,39A4.22,4.22,0,0,0,1326.86,382.43Z"/><path class="cls-27" d="M1120.75,376.84h0a3.74,3.74,0,0,1-3.92-3.58l-.46-10.12a3.76,3.76,0,0,1,3.58-3.92h0a3.75,3.75,0,0,1,3.92,3.58l.46,10.12A3.75,3.75,0,0,1,1120.75,376.84Z"/><path class="cls-13" d="M960.19,668.58c6.1-19.69,20.31-57.2,16-140.35a136.71,136.71,0,0,1,.56-21.83h0c18.21-1.56,46.05,18.12,46.05,18.12S1005.68,629,960.19,668.58Z"/><path class="cls-14" d="M1043.61,428.61s-46.69,8-71,37.76S909,538,899.78,552.7s-35,114.58-35,114.58,1.69,3.21,8.79,5.08a16.73,16.73,0,0,0,11.71-1s34.06-58.3,46.88-87.43c5.33-12.1,97.45-60,132.09-55.06C1077.88,530.84,1043.61,428.61,1043.61,428.61Z"/><path class="cls-7" d="M1202.79,351.93s10,6.14,16,3.54,5.48-5,5.48-5S1206.17,345.46,1202.79,351.93Z"/><path class="cls-22" d="M1088.92,461.18s-20.49,129.37-165.87,167l-15.84,31.24L935,664.17s165.52-47.95,163.29-205.27Z"/><polygon class="cls-21" points="1085.75 440.54 1079.04 441.19 1079.04 450.91 1088.92 461.18 1098.32 458.9 1098.32 445.42 1091.57 440.54 1085.75 440.54"/><path class="cls-13" d="M1059.41,414.81s-6.49,1.46-21.34,13.8c0,0,14.77,31.35,45.93,35.11,0,0-.51-14.55,1.75-23.19C1085.75,440.53,1061.05,431.69,1059.41,414.81Z"/><path class="cls-13" d="M1085.75,440.53s15.2,8.08,16.33,20.65c0,0,5.81-9.2,4.12-15.58s-6.89-13.69-6.89-13.69S1099.82,439.6,1085.75,440.53Z"/><rect class="cls-31" width="1920" height="1277"/></svg>